<svg width="32" height="34" viewBox="0 0 32 34" fill="none" xmlns="http://www.w3.org/2000/svg">
<g clip-path="url(#clip0_250_189)">
<path d="M0.120597 19.5067V19.5054L0.119141 19.5005L0.120597 19.5067Z" fill="black"/>
<path d="M0.627795 20.7898L0.619682 20.7794C0.619141 20.7788 0.619141 20.7788 0.619141 20.7788L0.627795 20.7898Z" fill="black"/>
<path d="M0.627795 14.8586L0.619682 14.8481C0.619141 14.8481 0.619141 14.8481 0.619141 14.8481L0.627795 14.8586Z" fill="black"/>
<path d="M0.120395 13.5758C0.120395 13.5758 0.120395 13.5739 0.119768 13.5727L0.119141 13.5708L0.120395 13.5758Z" fill="black"/>
<path d="M32 13.5926C32.0005 13.4415 31.9728 13.2951 31.9281 13.1563C31.9719 13.0282 31.995 12.8989 31.9955 12.774C31.9965 12.5774 31.9452 12.3873 31.8674 12.2346L31.8649 12.2298C31.8413 12.1839 31.8091 12.1353 31.7734 12.0867V8.41659C31.9151 8.2003 31.9996 7.94025 32.0001 7.66102C32.0001 7.1206 31.6935 6.63517 31.2246 6.43071L19.6396 1.28781H19.6059C19.3626 1.19703 19.1104 1.14258 18.8545 1.14258C18.6047 1.14258 18.3544 1.19438 18.1138 1.28243H18.0836L1.10419 8.55219L1.06194 8.57729L1.06294 8.57888C0.846313 8.70008 0.686 8.86828 0.575437 9.03111C0.382 9.31679 0.283 9.61801 0.211063 9.8914L0.210562 9.89512C0.102562 10.3197 0.0573125 10.7506 0.0296875 11.1153L0.0291875 11.1185C0.0035625 11.4848 0.0020625 11.7945 6.25e-05 11.9217V11.9249V11.9928C0.0005625 12.4376 0.0236875 13.0158 0.119187 13.5723L0.120687 13.5782C0.171 13.858 0.241813 14.1421 0.3625 14.4187L0.3645 14.423L0.364938 14.424C0.426313 14.5602 0.506187 14.706 0.61675 14.8448L0.61925 14.848C0.62725 14.8582 0.638875 14.8673 0.647937 14.8769C0.624812 14.9057 0.594625 14.9335 0.5755 14.9628C0.3815 15.248 0.283063 15.5492 0.211125 15.822L0.210625 15.8247V15.8257C0.102625 16.2503 0.057375 16.6817 0.02975 17.0464L0.02925 17.0491C0.0035 17.416 0.002 17.7252 0 17.8528V17.8554V17.9238C0.0005 18.3692 0.023625 18.9475 0.119625 19.5044L0.120625 19.5087C0.170937 19.7891 0.24175 20.0737 0.362437 20.3503L0.364875 20.355C0.42575 20.4902 0.505625 20.6359 0.616687 20.7763L0.619187 20.7796C0.639312 20.8052 0.668938 20.8282 0.692563 20.8537C0.652813 20.9002 0.607125 20.9462 0.575437 20.9926C0.381437 21.2783 0.283 21.5795 0.211063 21.8518L0.209562 21.8593L0.210562 21.856C0.102562 22.2806 0.0573125 22.7121 0.0296875 23.0768L0.0291875 23.08C0.0035625 23.4462 0.0020625 23.756 6.25e-05 23.8841V23.8873V23.9535C0.0005625 24.3994 0.0236875 24.9782 0.119687 25.5353L0.120687 25.5395C0.171 25.8193 0.241813 26.104 0.3625 26.38L0.364938 26.3853C0.425813 26.521 0.505687 26.6662 0.61675 26.8067L0.60875 26.797L0.619313 26.8104C0.725313 26.9412 0.871063 27.0678 1.05306 27.1623L1.05106 27.1655L1.05456 27.1676L1.08019 27.1831L13.5769 32.6629L13.6056 32.6757C13.8825 32.7959 14.177 32.8573 14.473 32.8573C14.7635 32.8573 15.0545 32.798 15.3289 32.6789L31.3231 25.7733V25.7728C31.5075 25.6938 31.6814 25.5651 31.8146 25.3584L31.8151 25.3589C31.8151 25.3589 31.8156 25.3574 31.8161 25.3563C31.8166 25.3558 31.8171 25.3558 31.8176 25.3547H31.8171C31.9433 25.1518 31.9945 24.9382 31.9956 24.7353C31.9966 24.5387 31.9452 24.3486 31.8674 24.1959L31.8649 24.1911V24.1917C31.8413 24.1457 31.8091 24.0966 31.7734 24.048V20.3784C31.9152 20.1621 31.9996 19.901 32.0001 19.6223C32.0006 19.4536 31.9669 19.2896 31.9101 19.1363C31.9674 18.9922 31.9951 18.8454 31.9956 18.7048C31.9966 18.5078 31.9452 18.3188 31.8674 18.165L31.8649 18.1602C31.8413 18.1148 31.8091 18.0656 31.7734 18.017V14.3479C31.915 14.1314 31.9995 13.8707 32 13.5926ZM13.517 31.1536L1.61575 25.9342L1.571 25.8787C1.53381 25.8173 1.48612 25.7003 1.44788 25.5551C1.38863 25.3378 1.34787 25.0547 1.32325 24.7685C1.29863 24.4828 1.29006 24.195 1.29006 23.9537V23.8965C1.29206 23.7102 1.29856 23.1709 1.37094 22.6635C1.40513 22.4104 1.45794 22.1663 1.52319 21.9933L1.53681 21.9619L13.5169 27.1256V31.1536H13.517ZM13.517 25.1231L2.68781 20.3727L1.61581 19.9039L1.57106 19.8484C1.53387 19.7864 1.48619 19.67 1.44794 19.5252C1.38869 19.3068 1.34794 19.0243 1.32331 18.7382C1.29869 18.4525 1.29013 18.1647 1.29013 17.9238V17.8661C1.29212 17.6793 1.29862 17.1404 1.371 16.6326C1.40519 16.38 1.458 16.1354 1.52325 15.9629L1.53688 15.9315L13.5169 21.0951V25.1231H13.517ZM13.517 15.492V15.7365V19.192L2.57275 14.3908L1.61581 13.9727L1.57106 13.9166C1.53387 13.8552 1.48619 13.7383 1.44794 13.5942C1.38869 13.3762 1.34794 13.0938 1.32331 12.807C1.29869 12.5208 1.29013 12.2335 1.29013 11.9927V11.935C1.29212 11.7487 1.29862 11.2093 1.371 10.702C1.40519 10.4488 1.458 10.2048 1.52325 10.0318L1.53688 10.0008L13.5169 15.1641V15.492H13.517ZM30.4832 24.6575L14.885 31.3906L14.8438 31.4104C14.7236 31.4606 14.5985 31.4867 14.4729 31.4867C14.4281 31.4867 14.3824 31.4797 14.3382 31.4723V27.3942C14.397 27.4011 14.4578 27.4049 14.5166 27.4049C14.7514 27.4049 14.9866 27.3557 15.2062 27.2596L15.2212 27.2527L30.4832 20.6344V24.6575H30.4832ZM30.4832 18.6041V18.6265L14.885 25.3602L14.8438 25.3795C14.7236 25.4302 14.5985 25.4558 14.4729 25.4558C14.4281 25.4558 14.3824 25.4489 14.3382 25.4425V21.3638C14.397 21.3707 14.4578 21.3745 14.5166 21.3745C14.7514 21.3745 14.9866 21.3254 15.2062 21.2297L15.2212 21.2223L25.9258 16.5808L30.4832 14.6039V18.6041ZM30.4832 12.5737V12.6959L14.885 19.4291L14.8438 19.4483C14.7236 19.4991 14.5985 19.5252 14.4729 19.5252C14.4281 19.5252 14.3824 19.5183 14.3382 19.5114V15.783V15.4322C14.397 15.4397 14.4578 15.4428 14.5166 15.4428C14.7514 15.4428 14.9866 15.3943 15.2062 15.2987L15.2212 15.2918L30.4832 8.67291V12.5737H30.4832Z" fill="black"/>
<path d="M0.120474 25.5373V25.5361L0.119141 25.5322L0.120474 25.5373Z" fill="black"/>
</g>
<defs>
<clipPath id="clip0_250_189">
<rect width="32" height="34" fill="white"/>
</clipPath>
</defs>
</svg>
