<svg xmlns="http://www.w3.org/2000/svg" xmlns:xlink="http://www.w3.org/1999/xlink" width="500" zoomAndPan="magnify" viewBox="0 0 375 374.999991" height="500" preserveAspectRatio="xMidYMid meet" version="1.0"><path fill="#8f0000" d="M 107.9375 267.0625 L 218.75 218.75 L 267.375 108.25 L 156.5625 156.5625 Z M 174.25 174.25 C 174.683594 173.816406 175.136719 173.402344 175.613281 173.011719 C 176.085938 172.625 176.582031 172.257812 177.089844 171.914062 C 177.601562 171.574219 178.128906 171.257812 178.667969 170.96875 C 179.210938 170.679688 179.765625 170.417969 180.332031 170.179688 C 180.898438 169.945312 181.476562 169.738281 182.066406 169.558594 C 182.652344 169.382812 183.246094 169.230469 183.851562 169.113281 C 184.453125 168.992188 185.058594 168.902344 185.671875 168.839844 C 186.28125 168.78125 186.894531 168.75 187.507812 168.75 C 188.121094 168.75 188.734375 168.78125 189.347656 168.839844 C 189.957031 168.898438 190.566406 168.988281 191.167969 169.109375 C 191.769531 169.230469 192.367188 169.378906 192.953125 169.554688 C 193.542969 169.734375 194.117188 169.941406 194.6875 170.175781 C 195.253906 170.410156 195.808594 170.671875 196.351562 170.960938 C 196.890625 171.25 197.417969 171.566406 197.929688 171.90625 C 198.441406 172.25 198.933594 172.613281 199.40625 173.003906 C 199.882812 173.394531 200.335938 173.804688 200.773438 174.238281 C 201.207031 174.671875 201.617188 175.128906 202.007812 175.601562 C 202.398438 176.078125 202.761719 176.570312 203.105469 177.082031 C 203.445312 177.589844 203.761719 178.117188 204.050781 178.660156 C 204.339844 179.199219 204.601562 179.753906 204.839844 180.324219 C 205.074219 180.890625 205.28125 181.46875 205.457031 182.054688 C 205.636719 182.644531 205.785156 183.238281 205.90625 183.839844 C 206.027344 184.445312 206.117188 185.050781 206.175781 185.660156 C 206.238281 186.273438 206.265625 186.886719 206.265625 187.5 C 206.265625 188.113281 206.238281 188.726562 206.175781 189.339844 C 206.117188 189.949219 206.027344 190.554688 205.90625 191.160156 C 205.785156 191.761719 205.636719 192.355469 205.457031 192.945312 C 205.28125 193.53125 205.074219 194.109375 204.839844 194.675781 C 204.601562 195.246094 204.339844 195.800781 204.050781 196.339844 C 203.761719 196.882812 203.445312 197.410156 203.105469 197.917969 C 202.761719 198.429688 202.398438 198.921875 202.007812 199.398438 C 201.617188 199.871094 201.207031 200.328125 200.773438 200.761719 C 200.335938 201.195312 199.882812 201.605469 199.40625 201.996094 C 198.933594 202.386719 198.441406 202.75 197.929688 203.09375 C 197.417969 203.433594 196.890625 203.75 196.351562 204.039062 C 195.808594 204.328125 195.253906 204.589844 194.6875 204.824219 C 194.117188 205.058594 193.542969 205.265625 192.953125 205.445312 C 192.367188 205.621094 191.769531 205.769531 191.167969 205.890625 C 190.566406 206.011719 189.957031 206.101562 189.347656 206.160156 C 188.734375 206.21875 188.121094 206.25 187.507812 206.25 C 186.894531 206.25 186.28125 206.21875 185.671875 206.160156 C 185.058594 206.097656 184.453125 206.007812 183.851562 205.886719 C 183.246094 205.769531 182.652344 205.617188 182.066406 205.441406 C 181.476562 205.261719 180.898438 205.054688 180.332031 204.820312 C 179.765625 204.582031 179.210938 204.320312 178.667969 204.03125 C 178.128906 203.742188 177.601562 203.425781 177.089844 203.085938 C 176.582031 202.742188 176.085938 202.375 175.613281 201.988281 C 175.136719 201.597656 174.683594 201.183594 174.25 200.75 C 173.816406 200.316406 173.40625 199.863281 173.015625 199.386719 C 172.628906 198.914062 172.261719 198.421875 171.921875 197.910156 C 171.582031 197.398438 171.265625 196.875 170.976562 196.332031 C 170.6875 195.789062 170.425781 195.238281 170.191406 194.667969 C 169.957031 194.101562 169.75 193.527344 169.574219 192.9375 C 169.394531 192.351562 169.246094 191.757812 169.125 191.15625 C 169.007812 190.554688 168.917969 189.945312 168.855469 189.335938 C 168.796875 188.726562 168.765625 188.113281 168.765625 187.5 C 168.765625 186.886719 168.796875 186.273438 168.855469 185.664062 C 168.917969 185.054688 169.007812 184.445312 169.125 183.84375 C 169.246094 183.242188 169.394531 182.648438 169.574219 182.0625 C 169.75 181.472656 169.957031 180.898438 170.191406 180.328125 C 170.425781 179.761719 170.6875 179.207031 170.976562 178.667969 C 171.265625 178.125 171.582031 177.601562 171.921875 177.089844 C 172.261719 176.578125 172.628906 176.085938 173.015625 175.613281 C 173.40625 175.136719 173.816406 174.683594 174.25 174.25 Z M 174.25 174.25 " fill-opacity="1" fill-rule="nonzero"/><path fill="#8f0000" d="M 362.5 184.375 L 375 184.375 C 374.949219 181.371094 374.828125 178.371094 374.632812 175.375 C 374.441406 172.375 374.175781 169.382812 373.835938 166.398438 C 373.5 163.414062 373.089844 160.4375 372.609375 157.472656 C 372.128906 154.507812 371.578125 151.554688 370.957031 148.617188 C 370.332031 145.679688 369.640625 142.757812 368.878906 139.851562 C 368.113281 136.945312 367.28125 134.0625 366.378906 131.195312 C 365.476562 128.328125 364.507812 125.488281 363.46875 122.667969 C 362.433594 119.851562 361.328125 117.058594 360.152344 114.292969 C 358.980469 111.527344 357.742188 108.789062 356.4375 106.085938 C 355.136719 103.378906 353.765625 100.703125 352.335938 98.0625 C 350.902344 95.421875 349.40625 92.820312 347.851562 90.25 C 346.292969 87.683594 344.671875 85.152344 342.996094 82.660156 C 341.316406 80.171875 339.578125 77.722656 337.78125 75.316406 C 335.984375 72.90625 334.128906 70.542969 332.21875 68.226562 C 330.308594 65.910156 328.34375 63.636719 326.324219 61.414062 C 324.304688 59.191406 322.230469 57.015625 320.109375 54.890625 C 317.984375 52.769531 315.808594 50.695312 313.585938 48.675781 C 311.363281 46.65625 309.089844 44.691406 306.773438 42.78125 C 304.457031 40.871094 302.09375 39.015625 299.683594 37.21875 C 297.277344 35.421875 294.828125 33.683594 292.339844 32.003906 C 289.847656 30.328125 287.316406 28.707031 284.75 27.148438 C 282.179688 25.59375 279.578125 24.097656 276.9375 22.664062 C 274.296875 21.234375 271.621094 19.863281 268.914062 18.5625 C 266.210938 17.257812 263.472656 16.019531 260.707031 14.847656 C 257.941406 13.671875 255.148438 12.566406 252.332031 11.53125 C 249.511719 10.492188 246.671875 9.523438 243.804688 8.621094 C 240.9375 7.71875 238.054688 6.886719 235.148438 6.121094 C 232.242188 5.359375 229.320312 4.667969 226.382812 4.042969 C 223.445312 3.421875 220.492188 2.871094 217.527344 2.390625 C 214.5625 1.910156 211.585938 1.5 208.601562 1.164062 C 205.617188 0.824219 202.625 0.558594 199.625 0.367188 C 196.628906 0.171875 193.628906 0.0507812 190.625 0 L 190.625 12.5 C 190.625 12.914062 190.546875 13.3125 190.386719 13.695312 C 190.230469 14.078125 190.003906 14.417969 189.710938 14.710938 C 189.417969 15.003906 189.078125 15.230469 188.695312 15.386719 C 188.3125 15.546875 187.914062 15.625 187.5 15.625 C 187.085938 15.625 186.6875 15.546875 186.304688 15.386719 C 185.921875 15.230469 185.582031 15.003906 185.289062 14.710938 C 184.996094 14.417969 184.769531 14.078125 184.613281 13.695312 C 184.453125 13.3125 184.375 12.914062 184.375 12.5 L 184.375 0 C 181.371094 0.0507812 178.371094 0.171875 175.375 0.367188 C 172.375 0.558594 169.382812 0.824219 166.398438 1.164062 C 163.414062 1.5 160.4375 1.910156 157.472656 2.390625 C 154.507812 2.871094 151.554688 3.421875 148.617188 4.042969 C 145.679688 4.667969 142.757812 5.359375 139.851562 6.121094 C 136.945312 6.886719 134.0625 7.71875 131.195312 8.621094 C 128.328125 9.523438 125.488281 10.492188 122.667969 11.53125 C 119.851562 12.566406 117.058594 13.671875 114.292969 14.847656 C 111.527344 16.019531 108.789062 17.257812 106.085938 18.5625 C 103.378906 19.863281 100.703125 21.234375 98.0625 22.664062 C 95.421875 24.097656 92.820312 25.59375 90.25 27.148438 C 87.683594 28.707031 85.152344 30.328125 82.660156 32.003906 C 80.171875 33.683594 77.722656 35.421875 75.316406 37.21875 C 72.90625 39.015625 70.542969 40.871094 68.226562 42.78125 C 65.910156 44.691406 63.636719 46.65625 61.414062 48.675781 C 59.191406 50.695312 57.015625 52.769531 54.890625 54.890625 C 52.769531 57.015625 50.695312 59.191406 48.675781 61.414062 C 46.65625 63.636719 44.691406 65.910156 42.78125 68.226562 C 40.871094 70.542969 39.015625 72.90625 37.21875 75.316406 C 35.421875 77.722656 33.683594 80.171875 32.003906 82.660156 C 30.328125 85.152344 28.707031 87.683594 27.148438 90.25 C 25.59375 92.820312 24.097656 95.421875 22.664062 98.0625 C 21.234375 100.703125 19.863281 103.378906 18.5625 106.085938 C 17.257812 108.789062 16.019531 111.527344 14.847656 114.292969 C 13.671875 117.058594 12.566406 119.851562 11.53125 122.667969 C 10.492188 125.488281 9.523438 128.328125 8.621094 131.195312 C 7.71875 134.0625 6.886719 136.945312 6.121094 139.851562 C 5.359375 142.757812 4.667969 145.679688 4.042969 148.617188 C 3.421875 151.554688 2.871094 154.507812 2.390625 157.472656 C 1.910156 160.4375 1.5 163.414062 1.164062 166.398438 C 0.824219 169.382812 0.558594 172.375 0.367188 175.375 C 0.171875 178.371094 0.0507812 181.371094 0 184.375 L 12.5 184.375 C 12.914062 184.375 13.3125 184.453125 13.695312 184.613281 C 14.078125 184.769531 14.417969 184.996094 14.710938 185.289062 C 15.003906 185.582031 15.230469 185.921875 15.386719 186.304688 C 15.546875 186.6875 15.625 187.085938 15.625 187.5 C 15.625 187.914062 15.546875 188.3125 15.386719 188.695312 C 15.230469 189.078125 15.003906 189.417969 14.710938 189.710938 C 14.417969 190.003906 14.078125 190.226562 13.695312 190.386719 C 13.3125 190.546875 12.914062 190.625 12.5 190.625 L 0 190.625 C 0.0507812 193.628906 0.171875 196.628906 0.367188 199.625 C 0.558594 202.625 0.824219 205.617188 1.164062 208.601562 C 1.5 211.585938 1.910156 214.5625 2.390625 217.527344 C 2.871094 220.492188 3.421875 223.445312 4.042969 226.382812 C 4.667969 229.320312 5.359375 232.242188 6.121094 235.148438 C 6.886719 238.054688 7.71875 240.9375 8.621094 243.804688 C 9.523438 246.671875 10.492188 249.511719 11.53125 252.332031 C 12.566406 255.148438 13.671875 257.941406 14.847656 260.707031 C 16.019531 263.472656 17.257812 266.210938 18.5625 268.914062 C 19.863281 271.621094 21.234375 274.296875 22.664062 276.9375 C 24.097656 279.578125 25.59375 282.179688 27.148438 284.75 C 28.707031 287.316406 30.328125 289.847656 32.003906 292.339844 C 33.683594 294.828125 35.421875 297.277344 37.21875 299.683594 C 39.015625 302.09375 40.871094 304.457031 42.78125 306.773438 C 44.691406 309.089844 46.65625 311.363281 48.675781 313.585938 C 50.695312 315.808594 52.769531 317.984375 54.890625 320.109375 C 57.015625 322.230469 59.191406 324.304688 61.414062 326.324219 C 63.636719 328.34375 65.910156 330.308594 68.226562 332.21875 C 70.542969 334.128906 72.90625 335.984375 75.316406 337.78125 C 77.722656 339.578125 80.171875 341.316406 82.660156 342.996094 C 85.152344 344.671875 87.683594 346.292969 90.25 347.851562 C 92.820312 349.40625 95.421875 350.902344 98.0625 352.335938 C 100.703125 353.765625 103.378906 355.136719 106.085938 356.4375 C 108.789062 357.742188 111.527344 358.980469 114.292969 360.152344 C 117.058594 361.328125 119.851562 362.433594 122.667969 363.46875 C 125.488281 364.507812 128.328125 365.476562 131.195312 366.378906 C 134.0625 367.28125 136.945312 368.113281 139.851562 368.878906 C 142.757812 369.640625 145.679688 370.332031 148.617188 370.957031 C 151.554688 371.578125 154.507812 372.128906 157.472656 372.609375 C 160.4375 373.089844 163.414062 373.5 166.398438 373.835938 C 169.382812 374.175781 172.375 374.441406 175.375 374.632812 C 178.371094 374.828125 181.371094 374.949219 184.375 375 L 184.375 362.5 C 184.375 362.085938 184.453125 361.6875 184.613281 361.304688 C 184.769531 360.921875 184.996094 360.582031 185.289062 360.289062 C 185.582031 359.996094 185.921875 359.769531 186.304688 359.613281 C 186.6875 359.453125 187.085938 359.375 187.5 359.375 C 187.914062 359.375 188.3125 359.453125 188.695312 359.613281 C 189.078125 359.769531 189.417969 359.996094 189.710938 360.289062 C 190.003906 360.582031 190.230469 360.921875 190.386719 361.304688 C 190.546875 361.6875 190.625 362.085938 190.625 362.5 L 190.625 375 C 193.628906 374.949219 196.628906 374.828125 199.625 374.632812 C 202.625 374.441406 205.617188 374.175781 208.601562 373.835938 C 211.585938 373.5 214.5625 373.089844 217.527344 372.609375 C 220.492188 372.128906 223.445312 371.578125 226.382812 370.957031 C 229.320312 370.332031 232.242188 369.640625 235.148438 368.878906 C 238.054688 368.113281 240.9375 367.28125 243.804688 366.378906 C 246.671875 365.476562 249.511719 364.507812 252.332031 363.46875 C 255.148438 362.433594 257.941406 361.328125 260.707031 360.152344 C 263.472656 358.980469 266.210938 357.742188 268.914062 356.4375 C 271.621094 355.136719 274.296875 353.765625 276.9375 352.335938 C 279.578125 350.902344 282.179688 349.40625 284.75 347.851562 C 287.316406 346.292969 289.847656 344.671875 292.339844 342.996094 C 294.828125 341.316406 297.277344 339.578125 299.683594 337.78125 C 302.09375 335.984375 304.457031 334.128906 306.773438 332.21875 C 309.09375 330.308594 311.363281 328.34375 313.585938 326.324219 C 315.808594 324.304688 317.984375 322.230469 320.109375 320.109375 C 322.230469 317.984375 324.304688 315.808594 326.324219 313.585938 C 328.34375 311.363281 330.308594 309.089844 332.21875 306.773438 C 334.128906 304.457031 335.984375 302.09375 337.78125 299.683594 C 339.578125 297.277344 341.316406 294.828125 342.996094 292.339844 C 344.671875 289.847656 346.292969 287.316406 347.851562 284.75 C 349.40625 282.179688 350.902344 279.578125 352.335938 276.9375 C 353.765625 274.296875 355.136719 271.621094 356.4375 268.914062 C 357.742188 266.210938 358.980469 263.472656 360.152344 260.707031 C 361.328125 257.941406 362.433594 255.148438 363.46875 252.332031 C 364.507812 249.511719 365.476562 246.671875 366.378906 243.804688 C 367.28125 240.9375 368.113281 238.054688 368.878906 235.148438 C 369.640625 232.242188 370.332031 229.320312 370.957031 226.382812 C 371.578125 223.445312 372.128906 220.492188 372.609375 217.527344 C 373.089844 214.5625 373.5 211.585938 373.835938 208.601562 C 374.175781 205.617188 374.441406 202.625 374.632812 199.625 C 374.828125 196.628906 374.949219 193.628906 375 190.625 L 362.5 190.625 C 362.085938 190.625 361.6875 190.546875 361.304688 190.386719 C 360.921875 190.226562 360.582031 190.003906 360.289062 189.710938 C 359.996094 189.417969 359.769531 189.078125 359.613281 188.695312 C 359.453125 188.3125 359.375 187.914062 359.375 187.5 C 359.375 187.085938 359.453125 186.6875 359.613281 186.304688 C 359.769531 185.921875 359.996094 185.582031 360.289062 185.289062 C 360.582031 184.996094 360.921875 184.769531 361.304688 184.613281 C 361.6875 184.453125 362.085938 184.375 362.5 184.375 Z M 187.5 343.75 C 184.941406 343.75 182.386719 343.6875 179.832031 343.5625 C 177.277344 343.4375 174.730469 343.25 172.183594 342.996094 C 169.640625 342.746094 167.101562 342.433594 164.574219 342.058594 C 162.042969 341.683594 159.523438 341.246094 157.015625 340.746094 C 154.507812 340.25 152.015625 339.6875 149.535156 339.066406 C 147.054688 338.445312 144.589844 337.765625 142.144531 337.023438 C 139.695312 336.28125 137.269531 335.476562 134.859375 334.617188 C 132.453125 333.753906 130.066406 332.835938 127.707031 331.855469 C 125.34375 330.878906 123.007812 329.839844 120.695312 328.75 C 118.382812 327.65625 116.097656 326.503906 113.84375 325.300781 C 111.589844 324.09375 109.363281 322.835938 107.171875 321.519531 C 104.976562 320.207031 102.816406 318.835938 100.691406 317.417969 C 98.566406 315.996094 96.476562 314.523438 94.421875 313 C 92.367188 311.476562 90.351562 309.90625 88.375 308.28125 C 86.398438 306.660156 84.464844 304.992188 82.570312 303.273438 C 80.675781 301.554688 78.824219 299.792969 77.015625 297.984375 C 75.207031 296.175781 73.445312 294.324219 71.726562 292.429688 C 70.007812 290.535156 68.339844 288.601562 66.71875 286.625 C 65.09375 284.648438 63.523438 282.632812 62 280.578125 C 60.476562 278.523438 59.003906 276.433594 57.582031 274.308594 C 56.164062 272.179688 54.792969 270.023438 53.480469 267.828125 C 52.164062 265.636719 50.90625 263.410156 49.699219 261.15625 C 48.496094 258.902344 47.34375 256.617188 46.25 254.304688 C 45.160156 251.992188 44.121094 249.65625 43.144531 247.292969 C 42.164062 244.933594 41.246094 242.546875 40.382812 240.140625 C 39.523438 237.730469 38.71875 235.304688 37.976562 232.855469 C 37.234375 230.410156 36.554688 227.945312 35.933594 225.464844 C 35.3125 222.984375 34.75 220.492188 34.253906 217.984375 C 33.753906 215.476562 33.316406 212.957031 32.941406 210.425781 C 32.566406 207.898438 32.253906 205.359375 32.003906 202.816406 C 31.75 200.269531 31.5625 197.722656 31.4375 195.167969 C 31.3125 192.613281 31.25 190.058594 31.25 187.5 C 31.25 184.941406 31.3125 182.386719 31.4375 179.832031 C 31.5625 177.277344 31.75 174.730469 32.003906 172.183594 C 32.253906 169.640625 32.566406 167.101562 32.941406 164.574219 C 33.316406 162.042969 33.753906 159.523438 34.253906 157.015625 C 34.75 154.507812 35.3125 152.015625 35.933594 149.535156 C 36.554688 147.054688 37.234375 144.589844 37.976562 142.144531 C 38.71875 139.695312 39.523438 137.269531 40.382812 134.859375 C 41.246094 132.453125 42.164062 130.066406 43.144531 127.707031 C 44.121094 125.34375 45.160156 123.007812 46.25 120.695312 C 47.34375 118.382812 48.496094 116.097656 49.699219 113.84375 C 50.90625 111.589844 52.164062 109.363281 53.480469 107.171875 C 54.792969 104.976562 56.164062 102.816406 57.582031 100.691406 C 59.003906 98.566406 60.476562 96.476562 62 94.421875 C 63.523438 92.367188 65.09375 90.351562 66.71875 88.375 C 68.339844 86.398438 70.007812 84.464844 71.726562 82.570312 C 73.445312 80.675781 75.207031 78.824219 77.015625 77.015625 C 78.824219 75.207031 80.675781 73.445312 82.570312 71.726562 C 84.464844 70.007812 86.398438 68.339844 88.375 66.71875 C 90.351562 65.09375 92.367188 63.523438 94.421875 62 C 96.476562 60.476562 98.566406 59.003906 100.691406 57.582031 C 102.816406 56.164062 104.976562 54.792969 107.171875 53.480469 C 109.363281 52.164062 111.589844 50.90625 113.84375 49.699219 C 116.097656 48.496094 118.382812 47.34375 120.695312 46.25 C 123.007812 45.160156 125.34375 44.121094 127.707031 43.144531 C 130.066406 42.164062 132.453125 41.246094 134.859375 40.382812 C 137.269531 39.523438 139.695312 38.71875 142.144531 37.976562 C 144.589844 37.234375 147.054688 36.554688 149.535156 35.933594 C 152.015625 35.3125 154.507812 34.75 157.015625 34.253906 C 159.523438 33.753906 162.042969 33.316406 164.574219 32.941406 C 167.101562 32.566406 169.640625 32.253906 172.183594 32.003906 C 174.730469 31.75 177.277344 31.5625 179.832031 31.4375 C 182.386719 31.3125 184.941406 31.25 187.5 31.25 C 190.058594 31.25 192.613281 31.3125 195.167969 31.4375 C 197.722656 31.5625 200.269531 31.75 202.816406 32.003906 C 205.359375 32.253906 207.898438 32.566406 210.425781 32.941406 C 212.957031 33.316406 215.476562 33.753906 217.984375 34.253906 C 220.492188 34.75 222.984375 35.3125 225.464844 35.933594 C 227.945312 36.554688 230.410156 37.234375 232.855469 37.976562 C 235.304688 38.71875 237.730469 39.523438 240.140625 40.382812 C 242.546875 41.246094 244.933594 42.164062 247.292969 43.144531 C 249.65625 44.121094 251.992188 45.160156 254.304688 46.25 C 256.617188 47.34375 258.902344 48.496094 261.15625 49.699219 C 263.410156 50.90625 265.636719 52.164062 267.828125 53.480469 C 270.023438 54.792969 272.179688 56.164062 274.308594 57.582031 C 276.433594 59.003906 278.523438 60.476562 280.578125 62 C 282.632812 63.523438 284.648438 65.09375 286.625 66.71875 C 288.601562 68.339844 290.535156 70.007812 292.429688 71.726562 C 294.324219 73.445312 296.175781 75.207031 297.984375 77.015625 C 299.792969 78.824219 301.554688 80.675781 303.273438 82.570312 C 304.992188 84.464844 306.660156 86.398438 308.28125 88.375 C 309.90625 90.351562 311.476562 92.367188 313 94.421875 C 314.523438 96.476562 315.996094 98.566406 317.417969 100.691406 C 318.835938 102.816406 320.207031 104.976562 321.519531 107.171875 C 322.835938 109.363281 324.09375 111.589844 325.300781 113.84375 C 326.503906 116.097656 327.65625 118.382812 328.75 120.695312 C 329.839844 123.007812 330.878906 125.34375 331.855469 127.707031 C 332.835938 130.066406 333.753906 132.453125 334.617188 134.859375 C 335.476562 137.269531 336.28125 139.695312 337.023438 142.144531 C 337.765625 144.589844 338.445312 147.054688 339.066406 149.535156 C 339.6875 152.015625 340.25 154.507812 340.746094 157.015625 C 341.246094 159.523438 341.683594 162.042969 342.058594 164.574219 C 342.433594 167.101562 342.746094 169.640625 342.996094 172.183594 C 343.25 174.730469 343.4375 177.277344 343.5625 179.832031 C 343.6875 182.386719 343.75 184.941406 343.75 187.5 C 343.75 190.058594 343.6875 192.613281 343.5625 195.167969 C 343.4375 197.722656 343.25 200.269531 342.996094 202.816406 C 342.746094 205.359375 342.433594 207.898438 342.058594 210.425781 C 341.683594 212.957031 341.246094 215.476562 340.746094 217.984375 C 340.25 220.492188 339.6875 222.984375 339.066406 225.464844 C 338.445312 227.945312 337.765625 230.410156 337.023438 232.855469 C 336.28125 235.304688 335.476562 237.730469 334.617188 240.140625 C 333.753906 242.546875 332.835938 244.933594 331.855469 247.292969 C 330.878906 249.65625 329.839844 251.992188 328.75 254.304688 C 327.65625 256.617188 326.503906 258.902344 325.300781 261.15625 C 324.09375 263.410156 322.835938 265.636719 321.519531 267.828125 C 320.207031 270.023438 318.835938 272.179688 317.417969 274.308594 C 315.996094 276.433594 314.523438 278.523438 313 280.578125 C 311.476562 282.632812 309.90625 284.648438 308.28125 286.625 C 306.660156 288.601562 304.992188 290.535156 303.273438 292.429688 C 301.554688 294.324219 299.792969 296.175781 297.984375 297.984375 C 296.175781 299.792969 294.324219 301.554688 292.429688 303.273438 C 290.535156 304.992188 288.601562 306.660156 286.625 308.28125 C 284.648438 309.90625 282.632812 311.476562 280.578125 313 C 278.523438 314.523438 276.433594 315.996094 274.308594 317.417969 C 272.179688 318.835938 270.023438 320.207031 267.828125 321.519531 C 265.636719 322.835938 263.410156 324.09375 261.15625 325.300781 C 258.902344 326.503906 256.617188 327.65625 254.304688 328.75 C 251.992188 329.839844 249.65625 330.878906 247.292969 331.855469 C 244.933594 332.835938 242.546875 333.753906 240.140625 334.617188 C 237.730469 335.476562 235.304688 336.28125 232.855469 337.023438 C 230.410156 337.765625 227.945312 338.445312 225.464844 339.066406 C 222.984375 339.6875 220.492188 340.25 217.984375 340.746094 C 215.476562 341.246094 212.957031 341.683594 210.425781 342.058594 C 207.898438 342.433594 205.359375 342.746094 202.816406 342.996094 C 200.269531 343.25 197.722656 343.4375 195.167969 343.5625 C 192.613281 343.6875 190.058594 343.75 187.5 343.75 Z M 187.5 343.75 " fill-opacity="1" fill-rule="nonzero"/></svg>