<svg width="24" height="24" viewBox="0 0 24 24" fill="none" xmlns="http://www.w3.org/2000/svg">
<g clip-path="url(#clip0_242_14296)">
<rect width="24" height="24" rx="12" fill="#8F0000"/>
<path d="M12 0C5.37188 0 0 5.37188 0 12C0 18.6281 5.37188 24 12 24C18.6281 24 24 18.6281 24 12C24 5.37188 18.6281 0 12 0ZM12 22.1531C6.39375 22.1531 1.84688 17.6062 1.84688 12C1.84688 6.39375 6.39375 1.84688 12 1.84688C17.6062 1.84688 22.1531 6.39375 22.1531 12C22.1531 17.6062 17.6062 22.1531 12 22.1531ZM5.54062 18.4594L14.3109 14.3063L18.4641 5.53594L9.69375 9.68906L5.54062 18.4594ZM13.3828 13.3828L7.84219 16.1531L10.6125 10.6125L13.3828 13.3828Z" fill="white"/>
</g>
<defs>
<clipPath id="clip0_242_14296">
<rect width="24" height="24" rx="12" fill="white"/>
</clipPath>
</defs>
</svg>
