<svg width="32" height="32" viewBox="0 0 32 32" fill="none" xmlns="http://www.w3.org/2000/svg">
<path d="M0.120597 18.3643V18.363L0.119141 18.3581L0.120597 18.3643Z" fill="white"/>
<path d="M0.627795 19.6475L0.619682 19.637C0.619141 19.6365 0.619141 19.6365 0.619141 19.6365L0.627795 19.6475Z" fill="white"/>
<path d="M0.627795 13.7158L0.619682 13.7054C0.619141 13.7054 0.619141 13.7054 0.619141 13.7054L0.627795 13.7158Z" fill="white"/>
<path d="M0.120395 12.4332C0.120395 12.4332 0.120395 12.4313 0.119768 12.43L0.119141 12.4281L0.120395 12.4332Z" fill="white"/>
<path d="M32 12.45C32.0005 12.2989 31.9728 12.1525 31.9281 12.0138C31.9719 11.8856 31.995 11.7564 31.9955 11.6314C31.9965 11.4348 31.9452 11.2448 31.8674 11.092L31.8649 11.0873C31.8413 11.0414 31.8091 10.9928 31.7734 10.9441V7.27401C31.9151 7.05772 31.9996 6.79768 32.0001 6.51844C32.0001 5.97802 31.6935 5.49259 31.2246 5.28813L19.6396 0.145231H19.6059C19.3626 0.0544532 19.1104 0 18.8545 0C18.6047 0 18.3544 0.0517969 18.1138 0.139852H18.0836L1.10419 7.40961L1.06194 7.43471L1.06294 7.43631C0.846312 7.5575 0.686 7.7257 0.575437 7.88853C0.382 8.17421 0.283 8.47543 0.211063 8.74883L0.210562 8.75254C0.102562 9.17708 0.0573125 9.60799 0.0296875 9.97276L0.0291875 9.97595C0.0035625 10.3422 0.0020625 10.652 6.25e-05 10.7791V10.7823V10.8502C0.0005625 11.295 0.0236875 11.8732 0.119187 12.4297L0.120687 12.4356C0.171 12.7154 0.241813 12.9995 0.3625 13.2761L0.3645 13.2804L0.364938 13.2815C0.426313 13.4177 0.506187 13.5634 0.61675 13.7023L0.61925 13.7055C0.62725 13.7156 0.638875 13.7247 0.647937 13.7343C0.624812 13.7632 0.594625 13.7909 0.5755 13.8203C0.3815 14.1054 0.283063 14.4066 0.211125 14.6794L0.210625 14.6821V14.6832C0.102625 15.1077 0.057375 15.5391 0.02975 15.9038L0.02925 15.9065C0.0035 16.2734 0.002 16.5826 0 16.7102V16.7129V16.7812C0.0005 17.2266 0.023625 17.8049 0.119625 18.3619L0.120625 18.3661C0.170937 18.6465 0.24175 18.9311 0.362437 19.2077L0.364875 19.2125C0.42575 19.3476 0.505625 19.4934 0.616687 19.6337L0.619187 19.637C0.639312 19.6626 0.668938 19.6856 0.692563 19.7112C0.652813 19.7577 0.607125 19.8036 0.575437 19.85C0.381437 20.1357 0.283 20.4369 0.211063 20.7092L0.209562 20.7167L0.210562 20.7134C0.102562 21.138 0.0573125 21.5695 0.0296875 21.9342L0.0291875 21.9374C0.0035625 22.3037 0.0020625 22.6134 6.25e-05 22.7416V22.7447V22.8109C0.0005625 23.2568 0.0236875 23.8357 0.119687 24.3927L0.120687 24.3969C0.171 24.6768 0.241813 24.9614 0.3625 25.2374L0.364938 25.2427C0.425813 25.3784 0.505688 25.5236 0.61675 25.6641L0.60875 25.6545L0.619313 25.6678C0.725313 25.7986 0.871063 25.9252 1.05306 26.0197L1.05106 26.0229L1.05456 26.025L1.08019 26.0405L13.5769 31.5203L13.6056 31.5331C13.8825 31.6533 14.177 31.7147 14.473 31.7147C14.7635 31.7147 15.0545 31.6555 15.3289 31.5363L31.3231 24.6307V24.6302C31.5075 24.5512 31.6814 24.4225 31.8146 24.2158L31.8151 24.2164C31.8151 24.2164 31.8156 24.2148 31.8161 24.2137C31.8166 24.2132 31.8171 24.2132 31.8176 24.2121H31.8171C31.9433 24.0092 31.9945 23.7956 31.9956 23.5927C31.9966 23.3961 31.9452 23.2061 31.8674 23.0533L31.8649 23.0486V23.0491C31.8413 23.0031 31.8091 22.9541 31.7734 22.9054V19.2358C31.9152 19.0195 31.9996 18.7584 32.0001 18.4797C32.0006 18.311 31.9669 18.147 31.9101 17.9938C31.9674 17.8496 31.9951 17.7028 31.9956 17.5623C31.9966 17.3652 31.9452 17.1762 31.8674 17.0224L31.8649 17.0176C31.8413 16.9722 31.8091 16.923 31.7734 16.8744V13.2053C31.915 12.9888 31.9995 12.7282 32 12.45ZM13.517 30.011L1.61575 24.7916L1.571 24.7361C1.53381 24.6747 1.48613 24.5578 1.44788 24.4125C1.38863 24.1952 1.34788 23.9122 1.32325 23.626C1.29863 23.3403 1.29006 23.0525 1.29006 22.8111V22.754C1.29206 22.5676 1.29856 22.0283 1.37094 21.5209C1.40512 21.2678 1.45794 21.0238 1.52319 20.8508L1.53681 20.8193L13.5169 25.983V30.011H13.517ZM13.517 23.9805L2.68781 19.2301L1.61581 18.7613L1.57106 18.7058C1.53387 18.6438 1.48619 18.5274 1.44794 18.3826C1.38869 18.1642 1.34794 17.8817 1.32331 17.5956C1.29869 17.3099 1.29013 17.0221 1.29013 16.7812V16.7236C1.29213 16.5367 1.29863 15.9979 1.371 15.49C1.40519 15.2374 1.458 14.9928 1.52325 14.8203L1.53688 14.7889L13.5169 19.9526V23.9805H13.517ZM13.517 14.3494V14.5939V18.0494L2.57275 13.2482L1.61581 12.8301L1.57106 12.774C1.53387 12.7126 1.48619 12.5957 1.44794 12.4516C1.38869 12.2336 1.34794 11.9512 1.32331 11.6644C1.29869 11.3782 1.29013 11.0909 1.29013 10.8501V10.7924C1.29213 10.6061 1.29863 10.0667 1.371 9.55938C1.40519 9.30624 1.458 9.06226 1.52325 8.88921L1.53688 8.85826L13.5169 14.0215V14.3494H13.517ZM30.4832 23.5149L14.885 30.2481L14.8438 30.2678C14.7236 30.318 14.5985 30.3441 14.4729 30.3441C14.4281 30.3441 14.3824 30.3372 14.3382 30.3297V26.2516C14.397 26.2586 14.4578 26.2623 14.5166 26.2623C14.7514 26.2623 14.9866 26.2131 15.2062 26.117L15.2212 26.1101L30.4832 19.4918V23.5149H30.4832ZM30.4832 17.4615V17.484L14.885 24.2176L14.8438 24.2369C14.7236 24.2876 14.5985 24.3133 14.4729 24.3133C14.4281 24.3133 14.3824 24.3064 14.3382 24.2999V20.2212C14.397 20.2281 14.4578 20.2319 14.5166 20.2319C14.7514 20.2319 14.9866 20.1828 15.2062 20.0872L15.2212 20.0797L25.9258 15.4382L30.4832 13.4613V17.4615ZM30.4832 11.4311V11.5534L14.885 18.2866L14.8438 18.3057C14.7236 18.3565 14.5985 18.3826 14.4729 18.3826C14.4281 18.3826 14.3824 18.3757 14.3382 18.3688V14.6405V14.2896C14.397 14.2971 14.4578 14.3003 14.5166 14.3003C14.7514 14.3003 14.9866 14.2517 15.2062 14.1562L15.2212 14.1492L30.4832 7.53034V11.4311H30.4832Z" fill="white"/>
<path d="M0.120474 24.3947V24.3934L0.119141 24.3896L0.120474 24.3947Z" fill="white"/>
</svg>
