<svg width="30" height="30" viewBox="0 0 30 30" fill="none" xmlns="http://www.w3.org/2000/svg">
<path fill-rule="evenodd" clip-rule="evenodd" d="M14.9986 0.0336914C17.7077 0.0646538 20.1551 0.731508 22.3408 2.03426C24.5005 3.31099 26.297 5.1213 27.5586 7.29206C28.8514 9.49437 29.5132 11.9604 29.544 14.6903C29.4673 18.4254 28.291 21.6155 26.0153 24.2607C23.7395 26.9059 20.8249 28.5423 17.8076 29.1697V18.6976H20.6602L21.3053 14.5824H16.9859V11.887C16.9619 11.3282 17.1383 10.7793 17.4833 10.3395C17.8287 9.89844 18.437 9.66664 19.3082 9.64407H21.9165V6.03919C21.8791 6.02713 21.524 5.97944 20.8512 5.89612C20.0881 5.8067 19.3208 5.75894 18.5525 5.75305C16.8138 5.76109 15.4386 6.25232 14.4271 7.22675C13.4156 8.20091 12.8989 9.6103 12.877 11.4549V14.5824H9.58989V18.6976H12.877V29.1697C9.17226 28.5423 6.25758 26.9059 3.98185 24.2607C1.70611 21.6155 0.529914 18.4254 0.453125 14.6903C0.483848 11.9603 1.14564 9.49425 2.43852 7.29206C3.70011 5.1213 5.49664 3.311 7.65631 2.03426C9.84198 0.731759 12.2894 0.0649047 14.9986 0.0336914Z" fill="black"/>
</svg>
