<svg width="30" height="30" viewBox="0 0 30 30" fill="none" xmlns="http://www.w3.org/2000/svg">
<path d="M29.726 8.60143C29.6578 7.05302 29.4078 5.9885 29.0496 5.06608C28.6802 4.08695 28.1118 3.21034 27.3671 2.48162C26.6395 1.74155 25.7585 1.16648 24.7922 0.802226C23.8659 0.443532 22.8085 0.193136 21.2625 0.124866C19.705 0.0508144 19.2105 0.0336914 15.2601 0.0336914C11.3097 0.0336914 10.8152 0.0508144 9.26345 0.119084C7.71744 0.187354 6.65457 0.437972 5.7338 0.796444C4.75597 1.16648 3.88072 1.73576 3.15312 2.48162C2.41419 3.21034 1.84024 4.09274 1.47633 5.06052C1.11819 5.9885 0.868182 7.04723 0.800018 8.59564C0.726081 10.1556 0.708984 10.6509 0.708984 14.6074C0.708984 18.5639 0.726081 19.0591 0.794245 20.6133C0.862409 22.1617 1.11264 23.2263 1.47078 24.1487C1.84024 25.1278 2.41419 26.0044 3.15312 26.7331C3.88072 27.4732 4.76174 28.0483 5.72803 28.4125C6.65457 28.7712 7.71167 29.0216 9.2579 29.0899C10.8095 29.1584 11.3041 29.1753 15.2546 29.1753C19.205 29.1753 19.6994 29.1584 21.2512 29.0899C22.7972 29.0216 23.8601 28.7712 24.7809 28.4125C26.7363 27.6553 28.2823 26.1069 29.0383 24.1487C29.3962 23.2207 29.6465 22.1617 29.7146 20.6133C29.7828 19.0591 29.7999 18.5639 29.7999 14.6074C29.7999 10.6509 29.7941 10.1556 29.726 8.60143ZM27.1058 20.4995C27.0431 21.9227 26.8045 22.6912 26.6055 23.2036C26.1166 24.4731 25.1106 25.4807 23.843 25.9704C23.3314 26.1696 22.5585 26.4087 21.1431 26.4712C19.6084 26.5397 19.1481 26.5566 15.2659 26.5566C11.3836 26.5566 10.9176 26.5397 9.38845 26.4712C7.96745 26.4087 7.2001 26.1696 6.68854 25.9704C6.05775 25.7369 5.48357 25.3669 5.01752 24.883C4.53438 24.4104 4.16492 23.8411 3.93179 23.2094C3.73284 22.697 3.49416 21.9227 3.43177 20.5053C3.36338 18.9682 3.34651 18.507 3.34651 14.6187C3.34651 10.7305 3.36338 10.2637 3.43177 8.73241C3.49416 7.30919 3.73284 6.54066 3.93179 6.0283C4.16492 5.39631 4.53438 4.82146 5.0233 4.35447C5.49489 3.87058 6.0633 3.50055 6.69431 3.26727C7.20587 3.06802 7.97899 2.82897 9.39423 2.76626C10.9289 2.69799 11.3894 2.68087 15.2714 2.68087C19.1594 2.68087 19.6197 2.69799 21.1488 2.76626C22.5699 2.82897 23.3372 3.06802 23.8488 3.26727C24.4796 3.50055 25.0537 3.87058 25.5198 4.35447C26.0029 4.82702 26.3724 5.39631 26.6055 6.0283C26.8045 6.54066 27.0431 7.31475 27.1058 8.73241C27.1739 10.2695 27.191 10.7305 27.191 14.6187C27.191 18.507 27.1739 18.9624 27.1058 20.4995Z" fill="black"/>
<path d="M15.2597 7.12109C11.1332 7.12109 7.78516 10.4741 7.78516 14.6072C7.78516 18.7403 11.1332 22.0933 15.2597 22.0933C19.3863 22.0933 22.7342 18.7403 22.7342 14.6072C22.7342 10.4741 19.3863 7.12109 15.2597 7.12109ZM15.2597 19.4632C12.5826 19.4632 10.4111 17.2886 10.4111 14.6072C10.4111 11.9258 12.5826 9.75114 15.2597 9.75114C17.9369 9.75114 20.1082 11.9258 20.1082 14.6072C20.1082 17.2886 17.9369 19.4632 15.2597 19.4632Z" fill="black"/>
<path d="M24.7753 6.8253C24.7753 7.79041 23.994 8.57296 23.0301 8.57296C22.0665 8.57296 21.2852 7.79041 21.2852 6.8253C21.2852 5.85996 22.0665 5.07764 23.0301 5.07764C23.994 5.07764 24.7753 5.85996 24.7753 6.8253Z" fill="black"/>
</svg>
