<svg width="427" height="160" viewBox="0 0 427 160" fill="none" xmlns="http://www.w3.org/2000/svg">
<g style="mix-blend-mode:color-burn" filter="url(#filter0_d_235_8)">
<path d="M36.0659 109.331L43.6847 79.646L45.6691 84.6252L19.738 69.8595L30.004 65.5859L48.2819 76.1726L44.3675 77.8021L49.3543 57.5305L59.3248 53.3799L52.0207 81.9811L49.9625 77.0326L76.9821 92.2982L66.5684 96.6333L47.286 85.3384L51.3493 84.2534L46.258 105.088L36.0659 109.331Z" fill="#8F0000"/>
</g>
<g style="mix-blend-mode:darken" filter="url(#filter1_d_235_8)">
<path d="M141.16 48.2217L133.6 34.9417V41.0617C133.6 42.715 133.653 44.1017 133.76 45.2217C133.867 46.3417 134.04 47.315 134.28 48.1417C134.52 48.9683 134.827 49.7017 135.2 50.3417C135.573 50.955 136.027 51.5817 136.56 52.2217C135.973 52.0617 135.453 51.9017 135 51.7417C134.573 51.5817 134.147 51.395 133.72 51.1817C133.32 50.9683 132.893 50.7017 132.44 50.3817C132.013 50.0617 131.507 49.6617 130.92 49.1817C130.547 49.8217 130.133 50.4083 129.68 50.9417C129.253 51.5017 128.733 52.0217 128.12 52.5017C127.533 52.9817 126.853 53.4217 126.08 53.8217C125.307 54.2217 124.4 54.5817 123.36 54.9017C124.16 54.1283 124.907 53.2483 125.6 52.2617C126.293 51.3017 126.893 50.275 127.4 49.1817C127.933 48.0617 128.347 46.915 128.64 45.7417C128.96 44.5683 129.12 43.3817 129.12 42.1817C129.12 41.0617 128.973 39.9817 128.68 38.9417C128.413 37.9017 127.96 36.9017 127.32 35.9417C128.627 33.435 129.28 31.195 129.28 29.2217C129.28 27.5417 128.84 26.035 127.96 24.7017C127.107 23.3417 125.88 22.0883 124.28 20.9417C124.547 20.8617 124.853 20.8217 125.2 20.8217C125.733 20.8217 126.32 20.8883 126.96 21.0217C127.627 21.1283 128.347 21.2483 129.12 21.3817C129.92 21.515 130.787 21.6483 131.72 21.7817C132.653 21.8883 133.68 21.9417 134.8 21.9417C135.067 21.9417 135.32 21.9417 135.56 21.9417C135.827 21.9417 136.093 21.9283 136.36 21.9017C136.12 22.0883 135.893 22.3283 135.68 22.6217C135.493 22.915 135.32 23.235 135.16 23.5817C135 23.9283 134.867 24.2883 134.76 24.6617C134.68 25.035 134.64 25.3817 134.64 25.7017L142.6 39.4217L149.24 25.9417C148.92 25.0083 148.547 24.2217 148.12 23.5817C147.72 22.9417 147.187 22.3417 146.52 21.7817C146.707 21.835 146.88 21.8617 147.04 21.8617C147.2 21.8617 147.373 21.8617 147.56 21.8617C148.467 21.8617 149.413 21.835 150.4 21.7817C151.387 21.7017 152.373 21.6083 153.36 21.5017C154.347 21.3683 155.307 21.235 156.24 21.1017C157.173 20.9417 158.067 20.795 158.92 20.6617C158.12 21.2217 157.467 21.835 156.96 22.5017C156.48 23.1417 156.107 23.8217 155.84 24.5417C155.6 25.2617 155.427 26.0217 155.32 26.8217C155.24 27.595 155.2 28.395 155.2 29.2217C155.2 30.235 155.373 31.2883 155.72 32.3817C156.067 33.475 156.573 34.6617 157.24 35.9417C156.76 36.795 156.32 37.8617 155.92 39.1417C155.547 40.4217 155.36 41.7017 155.36 42.9817C155.36 44.3683 155.6 45.6617 156.08 46.8617C156.587 48.0617 157.307 48.955 158.24 49.5417C157.68 49.835 157.12 50.1817 156.56 50.5817C156 50.955 155.48 51.355 155 51.7817C154.52 52.235 154.093 52.6883 153.72 53.1417C153.347 53.595 153.067 54.0217 152.88 54.4217C152.747 54.0217 152.507 53.5817 152.16 53.1017C151.84 52.6217 151.44 52.155 150.96 51.7017C150.48 51.2483 149.96 50.835 149.4 50.4617C148.84 50.0617 148.28 49.755 147.72 49.5417C148.147 49.1683 148.48 48.675 148.72 48.0617C148.987 47.4483 149.173 46.7683 149.28 46.0217C149.413 45.275 149.493 44.475 149.52 43.6217C149.573 42.7683 149.6 41.915 149.6 41.0617V33.5017L141.84 48.3417L141.16 48.2217ZM167.294 46.9417C167.88 46.995 168.48 47.035 169.094 47.0617C169.734 47.0883 170.52 47.2083 171.454 47.4217V41.7817C170.68 42.075 169.934 42.3283 169.214 42.5417C168.494 42.7283 167.88 42.8483 167.374 42.9017L167.294 46.9417ZM177.614 34.1817C177.187 34.795 176.907 35.6083 176.774 36.6217C176.667 37.635 176.614 39.115 176.614 41.0617C176.614 42.3417 176.64 43.3683 176.694 44.1417C176.774 44.8883 176.88 45.4883 177.014 45.9417C177.147 46.3683 177.334 46.675 177.574 46.8617C177.814 47.0217 178.107 47.1417 178.454 47.2217V47.6617C178.08 47.795 177.68 48.035 177.254 48.3817C176.854 48.7017 176.454 49.0617 176.054 49.4617C175.654 49.8617 175.294 50.275 174.974 50.7017C174.654 51.1283 174.414 51.5017 174.254 51.8217C173.694 51.4483 173.187 50.955 172.734 50.3417C172.28 49.7283 171.92 49.115 171.654 48.5017L168.894 51.8217C167.88 51.2083 166.76 50.7417 165.534 50.4217C164.334 50.1017 162.96 49.9283 161.414 49.9017C161.68 49.2083 161.84 48.3417 161.894 47.3017C161.947 46.235 161.974 45.1683 161.974 44.1017C161.974 43.4617 161.934 42.8617 161.854 42.3017C161.774 41.715 161.64 41.195 161.454 40.7417C162.04 40.8217 162.68 40.8617 163.374 40.8617C164.12 40.8617 164.88 40.835 165.654 40.7817C166.454 40.7017 167.214 40.595 167.934 40.4617C168.654 40.3283 169.307 40.1817 169.894 40.0217C170.507 39.835 171.014 39.635 171.414 39.4217V35.4617C170.507 35.8617 169.56 36.195 168.574 36.4617C167.587 36.7283 166.774 36.8617 166.134 36.8617C165.68 36.8617 165.254 36.8217 164.854 36.7417C164.48 36.635 164.134 36.4483 163.814 36.1817C163.494 35.8883 163.2 35.4883 162.934 34.9817C162.694 34.475 162.48 33.8217 162.294 33.0217C162.454 33.0217 162.56 33.035 162.614 33.0617C162.694 33.0617 162.894 33.0617 163.214 33.0617C165.134 33.0617 166.787 32.8883 168.174 32.5417C169.56 32.195 170.64 31.795 171.414 31.3417C172.294 32.3017 173.2 33.0217 174.134 33.5017C175.094 33.955 176.254 34.1817 177.614 34.1817ZM187.155 35.8217C188.302 35.075 189.329 34.3283 190.235 33.5817C191.142 32.835 192.075 31.955 193.035 30.9417C193.489 31.3683 193.902 31.755 194.275 32.1017C194.649 32.4217 195.022 32.715 195.395 32.9817C195.795 33.2483 196.209 33.515 196.635 33.7817C197.062 34.0217 197.555 34.275 198.115 34.5417C198.009 34.915 197.915 35.315 197.835 35.7417C197.782 36.1417 197.729 36.6617 197.675 37.3017C197.649 37.9417 197.622 38.7283 197.595 39.6617C197.569 40.595 197.555 41.755 197.555 43.1417C197.555 44.315 197.555 45.2883 197.555 46.0617C197.582 46.8083 197.609 47.4217 197.635 47.9017C197.662 48.3817 197.702 48.7817 197.755 49.1017C197.809 49.395 197.862 49.675 197.915 49.9417C197.382 50.1283 196.835 50.3817 196.275 50.7017C195.742 51.0217 195.195 51.3817 194.635 51.7817C194.102 52.1817 193.595 52.595 193.115 53.0217C192.635 53.4483 192.209 53.8617 191.835 54.2617L191.595 54.0217C191.755 53.4883 191.902 52.8217 192.035 52.0217C192.169 51.2483 192.275 50.475 192.355 49.7017C192.435 48.9017 192.502 48.1683 192.555 47.5017C192.609 46.835 192.635 46.355 192.635 46.0617C192.635 44.5417 192.622 43.0217 192.595 41.5017C192.595 39.9817 192.595 38.4617 192.595 36.9417L192.075 36.3817L187.155 38.5817V47.1817C187.155 48.8617 187.515 49.835 188.235 50.1017V50.7017H180.875V50.1017C181.195 49.9683 181.449 49.7017 181.635 49.3017C181.849 48.875 181.955 48.2883 181.955 47.5417V33.5817L180.475 32.9417V32.5017C181.409 32.3683 182.422 32.195 183.515 31.9817C184.609 31.7417 185.582 31.515 186.435 31.3017L187.155 32.5017V35.8217ZM200.814 32.9817C201.374 32.9283 202 32.8483 202.694 32.7417C203.387 32.6083 204.08 32.4617 204.774 32.3017C205.467 32.1417 206.107 31.9817 206.694 31.8217C207.28 31.635 207.747 31.4617 208.094 31.3017C208.04 31.755 207.987 32.1683 207.934 32.5417C207.907 32.915 207.88 33.315 207.854 33.7417C207.854 34.1683 207.84 34.635 207.814 35.1417C207.814 35.6483 207.814 36.2483 207.814 36.9417V45.0217L209.494 46.3017L213.334 44.6217V38.3817C213.334 37.475 213.307 36.7283 213.254 36.1417C213.227 35.555 213.147 35.0883 213.014 34.7417C212.88 34.395 212.694 34.1417 212.454 33.9817C212.24 33.795 211.934 33.6483 211.534 33.5417V33.0217C212.814 32.9417 214.067 32.755 215.294 32.4617C216.547 32.1683 217.627 31.795 218.534 31.3417V40.7817C218.534 42.035 218.56 43.0617 218.614 43.8617C218.667 44.635 218.76 45.2617 218.894 45.7417C219.027 46.2217 219.2 46.5683 219.414 46.7817C219.654 46.995 219.96 47.1417 220.334 47.2217V47.6617C219.987 47.8217 219.6 48.0617 219.174 48.3817C218.747 48.7017 218.334 49.0617 217.934 49.4617C217.534 49.8617 217.174 50.275 216.854 50.7017C216.534 51.1017 216.294 51.475 216.134 51.8217C215.254 51.075 214.614 50.3817 214.214 49.7417C213.84 49.1017 213.587 48.315 213.454 47.3817C212.654 47.7817 211.947 48.155 211.334 48.5017C210.747 48.8483 210.2 49.195 209.694 49.5417C209.214 49.8883 208.76 50.2483 208.334 50.6217C207.934 50.995 207.52 51.395 207.094 51.8217C206.56 51.3417 206.08 50.9417 205.654 50.6217C205.254 50.275 204.854 49.9683 204.454 49.7017C204.08 49.435 203.694 49.195 203.294 48.9817C202.92 48.7417 202.494 48.4883 202.014 48.2217C202.12 48.0617 202.214 47.7017 202.294 47.1417C202.4 46.5817 202.494 45.9017 202.574 45.1017C202.654 44.3017 202.707 43.4483 202.734 42.5417C202.787 41.6083 202.814 40.715 202.814 39.8617C202.814 38.9017 202.774 38.075 202.694 37.3817C202.64 36.6617 202.534 36.0483 202.374 35.5417C202.214 35.035 202 34.6217 201.734 34.3017C201.494 33.955 201.174 33.6617 200.774 33.4217L200.814 32.9817ZM228.505 46.9417C229.091 46.995 229.691 47.035 230.305 47.0617C230.945 47.0883 231.731 47.2083 232.665 47.4217V41.7817C231.891 42.075 231.145 42.3283 230.425 42.5417C229.705 42.7283 229.091 42.8483 228.585 42.9017L228.505 46.9417ZM238.825 34.1817C238.398 34.795 238.118 35.6083 237.985 36.6217C237.878 37.635 237.825 39.115 237.825 41.0617C237.825 42.3417 237.851 43.3683 237.905 44.1417C237.985 44.8883 238.091 45.4883 238.225 45.9417C238.358 46.3683 238.545 46.675 238.785 46.8617C239.025 47.0217 239.318 47.1417 239.665 47.2217V47.6617C239.291 47.795 238.891 48.035 238.465 48.3817C238.065 48.7017 237.665 49.0617 237.265 49.4617C236.865 49.8617 236.505 50.275 236.185 50.7017C235.865 51.1283 235.625 51.5017 235.465 51.8217C234.905 51.4483 234.398 50.955 233.945 50.3417C233.491 49.7283 233.131 49.115 232.865 48.5017L230.105 51.8217C229.091 51.2083 227.971 50.7417 226.745 50.4217C225.545 50.1017 224.171 49.9283 222.625 49.9017C222.891 49.2083 223.051 48.3417 223.105 47.3017C223.158 46.235 223.185 45.1683 223.185 44.1017C223.185 43.4617 223.145 42.8617 223.065 42.3017C222.985 41.715 222.851 41.195 222.665 40.7417C223.251 40.8217 223.891 40.8617 224.585 40.8617C225.331 40.8617 226.091 40.835 226.865 40.7817C227.665 40.7017 228.425 40.595 229.145 40.4617C229.865 40.3283 230.518 40.1817 231.105 40.0217C231.718 39.835 232.225 39.635 232.625 39.4217V35.4617C231.718 35.8617 230.771 36.195 229.785 36.4617C228.798 36.7283 227.985 36.8617 227.345 36.8617C226.891 36.8617 226.465 36.8217 226.065 36.7417C225.691 36.635 225.345 36.4483 225.025 36.1817C224.705 35.8883 224.411 35.4883 224.145 34.9817C223.905 34.475 223.691 33.8217 223.505 33.0217C223.665 33.0217 223.771 33.035 223.825 33.0617C223.905 33.0617 224.105 33.0617 224.425 33.0617C226.345 33.0617 227.998 32.8883 229.385 32.5417C230.771 32.195 231.851 31.795 232.625 31.3417C233.505 32.3017 234.411 33.0217 235.345 33.5017C236.305 33.955 237.465 34.1817 238.825 34.1817ZM241.126 51.5417C241.82 51.195 242.34 50.6217 242.686 49.8217C243.033 49.0217 243.206 48.0883 243.206 47.0217V26.5017C243.206 25.835 243.193 25.235 243.166 24.7017C243.14 24.1683 243.073 23.675 242.966 23.2217C242.886 22.7683 242.766 22.3283 242.606 21.9017C242.446 21.475 242.246 21.035 242.006 20.5817C242.54 20.7683 243.166 20.8617 243.886 20.8617C244.766 20.8617 245.686 20.715 246.646 20.4217C247.633 20.1283 248.686 19.715 249.806 19.1817C249.273 19.8217 248.9 20.675 248.686 21.7417C248.5 22.8083 248.406 24.035 248.406 25.4217V44.7817C248.406 45.875 248.446 46.7817 248.526 47.5017C248.606 48.2217 248.74 48.8617 248.926 49.4217C249.14 49.9817 249.433 50.515 249.806 51.0217C250.18 51.555 250.646 52.1817 251.206 52.9017L250.966 53.2617C250.246 52.915 249.646 52.635 249.166 52.4217C248.686 52.235 248.273 52.0617 247.926 51.9017C247.606 51.7417 247.313 51.5683 247.046 51.3817C246.806 51.2217 246.553 50.995 246.286 50.7017C245.513 51.0217 244.673 51.2883 243.766 51.5017C242.886 51.715 242.02 51.8217 241.166 51.8217L241.126 51.5417ZM284.09 23.3817C284.17 24.6617 284.277 25.7417 284.41 26.6217C284.57 27.475 284.757 28.3017 284.97 29.1017C285.183 29.875 285.437 30.715 285.73 31.6217C286.023 32.5017 286.357 33.6083 286.73 34.9417C286.463 35.475 286.223 36.155 286.01 36.9817C285.823 37.7817 285.65 38.6217 285.49 39.5017C285.357 40.3817 285.25 41.2483 285.17 42.1017C285.117 42.955 285.09 43.7017 285.09 44.3417C285.09 44.8483 285.103 45.3417 285.13 45.8217C285.183 46.3017 285.277 46.755 285.41 47.1817C283.863 47.475 282.517 48.1417 281.37 49.1817C280.223 50.195 279.09 51.4217 277.97 52.8617C275.81 51.9283 273.303 51.2617 270.45 50.8617C267.623 50.4883 264.597 50.3017 261.37 50.3017C261.663 50.1417 262.037 49.8483 262.49 49.4217C262.943 48.9683 263.383 48.4617 263.81 47.9017C264.237 47.315 264.597 46.715 264.89 46.1017C265.21 45.4617 265.37 44.875 265.37 44.3417C265.37 43.8083 265.357 43.2083 265.33 42.5417C265.33 41.875 265.277 41.195 265.17 40.5017C265.09 39.8083 264.943 39.1417 264.73 38.5017C264.543 37.835 264.277 37.2617 263.93 36.7817C264.223 36.4617 264.463 35.9817 264.65 35.3417C264.837 34.675 264.97 33.955 265.05 33.1817C265.157 32.3817 265.223 31.5683 265.25 30.7417C265.277 29.8883 265.29 29.115 265.29 28.4217C265.29 27.5683 265.223 26.835 265.09 26.2217C264.957 25.6083 264.717 25.0483 264.37 24.5417C264.05 24.0083 263.597 23.4883 263.01 22.9817C262.45 22.475 261.73 21.8883 260.85 21.2217C262.743 21.2217 264.437 21.2217 265.93 21.2217C267.45 21.195 268.85 21.1683 270.13 21.1417C271.41 21.0883 272.61 21.0217 273.73 20.9417C274.85 20.835 275.97 20.6883 277.09 20.5017C277.917 21.0083 278.97 21.5283 280.25 22.0617C281.53 22.595 282.81 23.035 284.09 23.3817ZM279.61 44.9417C279.61 44.355 279.65 43.5817 279.73 42.6217C279.81 41.635 279.917 40.6483 280.05 39.6617C280.21 38.6483 280.383 37.7017 280.57 36.8217C280.783 35.9417 281.01 35.2883 281.25 34.8617C281.063 34.3283 280.85 33.6617 280.61 32.8617C280.37 32.035 280.13 31.1817 279.89 30.3017C279.65 29.395 279.437 28.5017 279.25 27.6217C279.063 26.715 278.93 25.915 278.85 25.2217C278.423 25.2217 277.877 25.2483 277.21 25.3017C276.57 25.3283 275.863 25.395 275.09 25.5017C274.343 25.5817 273.583 25.7017 272.81 25.8617C272.063 25.995 271.37 26.1683 270.73 26.3817C270.677 27.5817 270.637 28.9683 270.61 30.5417C270.583 32.0883 270.57 33.7417 270.57 35.5017C270.57 37.2083 270.597 39.0083 270.65 40.9017C270.73 42.7683 270.85 44.7017 271.01 46.7017C271.277 46.7817 271.623 46.875 272.05 46.9817C272.503 47.0883 272.97 47.195 273.45 47.3017C273.93 47.4083 274.397 47.515 274.85 47.6217C275.33 47.7017 275.743 47.7683 276.09 47.8217C276.463 47.2083 276.97 46.6483 277.61 46.1417C278.25 45.635 278.917 45.235 279.61 44.9417ZM296.896 31.3417C298.736 31.955 300.269 32.3683 301.496 32.5817C302.723 32.795 303.856 32.9017 304.896 32.9017C305.483 32.9017 305.923 32.9017 306.216 32.9017C306.536 32.875 306.843 32.835 307.136 32.7817C306.816 34.515 306.656 36.555 306.656 38.9017C306.656 41.7817 306.896 44.5817 307.376 47.3017C306.709 47.3817 306.003 47.555 305.256 47.8217C304.509 48.0883 303.763 48.4217 303.016 48.8217C302.269 49.2217 301.549 49.6883 300.856 50.2217C300.163 50.7283 299.536 51.2617 298.976 51.8217C298.683 51.5817 298.176 51.3283 297.456 51.0617C296.736 50.8217 295.949 50.595 295.096 50.3817C294.243 50.1683 293.389 49.995 292.536 49.8617C291.683 49.7283 290.976 49.6617 290.416 49.6617C290.256 49.6617 290.096 49.675 289.936 49.7017C289.803 49.7017 289.669 49.715 289.536 49.7417C289.909 49.4217 290.176 48.795 290.336 47.8617C290.523 46.9017 290.616 45.6617 290.616 44.1417C290.616 43.3683 290.589 42.5283 290.536 41.6217C290.483 40.6883 290.403 39.8083 290.296 38.9817C290.216 38.155 290.123 37.4483 290.016 36.8617C289.909 36.275 289.803 35.915 289.696 35.7817C290.736 35.595 291.896 35.115 293.176 34.3417C294.456 33.5417 295.696 32.5417 296.896 31.3417ZM301.696 36.4217C300.469 36.315 299.269 36.1417 298.096 35.9017C296.923 35.635 296.029 35.3417 295.416 35.0217C295.549 36.1417 295.643 37.195 295.696 38.1817C295.749 39.1417 295.776 40.115 295.776 41.1017C295.776 41.875 295.749 42.755 295.696 43.7417C295.669 44.7017 295.629 45.6483 295.576 46.5817C296.483 46.6883 297.483 46.835 298.576 47.0217C299.669 47.2083 300.683 47.4483 301.616 47.7417L301.696 36.4217ZM334.91 48.2217L327.35 34.9417V41.0617C327.35 42.715 327.403 44.1017 327.51 45.2217C327.617 46.3417 327.79 47.315 328.03 48.1417C328.27 48.9683 328.577 49.7017 328.95 50.3417C329.323 50.955 329.777 51.5817 330.31 52.2217C329.723 52.0617 329.203 51.9017 328.75 51.7417C328.323 51.5817 327.897 51.395 327.47 51.1817C327.07 50.9683 326.643 50.7017 326.19 50.3817C325.763 50.0617 325.257 49.6617 324.67 49.1817C324.297 49.8217 323.883 50.4083 323.43 50.9417C323.003 51.5017 322.483 52.0217 321.87 52.5017C321.283 52.9817 320.603 53.4217 319.83 53.8217C319.057 54.2217 318.15 54.5817 317.11 54.9017C317.91 54.1283 318.657 53.2483 319.35 52.2617C320.043 51.3017 320.643 50.275 321.15 49.1817C321.683 48.0617 322.097 46.915 322.39 45.7417C322.71 44.5683 322.87 43.3817 322.87 42.1817C322.87 41.0617 322.723 39.9817 322.43 38.9417C322.163 37.9017 321.71 36.9017 321.07 35.9417C322.377 33.435 323.03 31.195 323.03 29.2217C323.03 27.5417 322.59 26.035 321.71 24.7017C320.857 23.3417 319.63 22.0883 318.03 20.9417C318.297 20.8617 318.603 20.8217 318.95 20.8217C319.483 20.8217 320.07 20.8883 320.71 21.0217C321.377 21.1283 322.097 21.2483 322.87 21.3817C323.67 21.515 324.537 21.6483 325.47 21.7817C326.403 21.8883 327.43 21.9417 328.55 21.9417C328.817 21.9417 329.07 21.9417 329.31 21.9417C329.577 21.9417 329.843 21.9283 330.11 21.9017C329.87 22.0883 329.643 22.3283 329.43 22.6217C329.243 22.915 329.07 23.235 328.91 23.5817C328.75 23.9283 328.617 24.2883 328.51 24.6617C328.43 25.035 328.39 25.3817 328.39 25.7017L336.35 39.4217L342.99 25.9417C342.67 25.0083 342.297 24.2217 341.87 23.5817C341.47 22.9417 340.937 22.3417 340.27 21.7817C340.457 21.835 340.63 21.8617 340.79 21.8617C340.95 21.8617 341.123 21.8617 341.31 21.8617C342.217 21.8617 343.163 21.835 344.15 21.7817C345.137 21.7017 346.123 21.6083 347.11 21.5017C348.097 21.3683 349.057 21.235 349.99 21.1017C350.923 20.9417 351.817 20.795 352.67 20.6617C351.87 21.2217 351.217 21.835 350.71 22.5017C350.23 23.1417 349.857 23.8217 349.59 24.5417C349.35 25.2617 349.177 26.0217 349.07 26.8217C348.99 27.595 348.95 28.395 348.95 29.2217C348.95 30.235 349.123 31.2883 349.47 32.3817C349.817 33.475 350.323 34.6617 350.99 35.9417C350.51 36.795 350.07 37.8617 349.67 39.1417C349.297 40.4217 349.11 41.7017 349.11 42.9817C349.11 44.3683 349.35 45.6617 349.83 46.8617C350.337 48.0617 351.057 48.955 351.99 49.5417C351.43 49.835 350.87 50.1817 350.31 50.5817C349.75 50.955 349.23 51.355 348.75 51.7817C348.27 52.235 347.843 52.6883 347.47 53.1417C347.097 53.595 346.817 54.0217 346.63 54.4217C346.497 54.0217 346.257 53.5817 345.91 53.1017C345.59 52.6217 345.19 52.155 344.71 51.7017C344.23 51.2483 343.71 50.835 343.15 50.4617C342.59 50.0617 342.03 49.755 341.47 49.5417C341.897 49.1683 342.23 48.675 342.47 48.0617C342.737 47.4483 342.923 46.7683 343.03 46.0217C343.163 45.275 343.243 44.475 343.27 43.6217C343.323 42.7683 343.35 41.915 343.35 41.0617V33.5017L335.59 48.3417L334.91 48.2217ZM361.044 46.9417C361.63 46.995 362.23 47.035 362.844 47.0617C363.484 47.0883 364.27 47.2083 365.204 47.4217V41.7817C364.43 42.075 363.684 42.3283 362.964 42.5417C362.244 42.7283 361.63 42.8483 361.124 42.9017L361.044 46.9417ZM371.364 34.1817C370.937 34.795 370.657 35.6083 370.524 36.6217C370.417 37.635 370.364 39.115 370.364 41.0617C370.364 42.3417 370.39 43.3683 370.444 44.1417C370.524 44.8883 370.63 45.4883 370.764 45.9417C370.897 46.3683 371.084 46.675 371.324 46.8617C371.564 47.0217 371.857 47.1417 372.204 47.2217V47.6617C371.83 47.795 371.43 48.035 371.004 48.3817C370.604 48.7017 370.204 49.0617 369.804 49.4617C369.404 49.8617 369.044 50.275 368.724 50.7017C368.404 51.1283 368.164 51.5017 368.004 51.8217C367.444 51.4483 366.937 50.955 366.484 50.3417C366.03 49.7283 365.67 49.115 365.404 48.5017L362.644 51.8217C361.63 51.2083 360.51 50.7417 359.284 50.4217C358.084 50.1017 356.71 49.9283 355.164 49.9017C355.43 49.2083 355.59 48.3417 355.644 47.3017C355.697 46.235 355.724 45.1683 355.724 44.1017C355.724 43.4617 355.684 42.8617 355.604 42.3017C355.524 41.715 355.39 41.195 355.204 40.7417C355.79 40.8217 356.43 40.8617 357.124 40.8617C357.87 40.8617 358.63 40.835 359.404 40.7817C360.204 40.7017 360.964 40.595 361.684 40.4617C362.404 40.3283 363.057 40.1817 363.644 40.0217C364.257 39.835 364.764 39.635 365.164 39.4217V35.4617C364.257 35.8617 363.31 36.195 362.324 36.4617C361.337 36.7283 360.524 36.8617 359.884 36.8617C359.43 36.8617 359.004 36.8217 358.604 36.7417C358.23 36.635 357.884 36.4483 357.564 36.1817C357.244 35.8883 356.95 35.4883 356.684 34.9817C356.444 34.475 356.23 33.8217 356.044 33.0217C356.204 33.0217 356.31 33.035 356.364 33.0617C356.444 33.0617 356.644 33.0617 356.964 33.0617C358.884 33.0617 360.537 32.8883 361.924 32.5417C363.31 32.195 364.39 31.795 365.164 31.3417C366.044 32.3017 366.95 33.0217 367.884 33.5017C368.844 33.955 370.004 34.1817 371.364 34.1817ZM375.705 42.8617C375.705 41.395 375.679 40.2217 375.625 39.3417C375.572 38.435 375.465 37.7417 375.305 37.2617C375.172 36.755 374.985 36.4083 374.745 36.2217C374.532 36.0083 374.252 35.8483 373.905 35.7417V35.3017C374.252 35.1683 374.639 34.9417 375.065 34.6217C375.492 34.275 375.905 33.9017 376.305 33.5017C376.705 33.1017 377.065 32.6883 377.385 32.2617C377.705 31.835 377.945 31.4617 378.105 31.1417C378.665 31.515 379.172 32.0083 379.625 32.6217C380.079 33.235 380.439 33.8483 380.705 34.4617C381.185 34.1417 381.732 33.8217 382.345 33.5017C382.959 33.1817 383.599 32.8883 384.265 32.6217C384.959 32.3283 385.652 32.075 386.345 31.8617C387.065 31.6217 387.772 31.4217 388.465 31.2617C389.105 31.955 389.799 32.5283 390.545 32.9817C391.292 33.435 392.052 33.7683 392.825 33.9817C392.532 35.1017 392.359 36.1683 392.305 37.1817C392.252 38.1683 392.225 39.1683 392.225 40.1817C392.225 41.435 392.239 42.5283 392.265 43.4617C392.292 44.395 392.332 45.195 392.385 45.8617C392.439 46.5283 392.505 47.075 392.585 47.5017C392.665 47.9017 392.772 48.2217 392.905 48.4617C391.705 48.675 390.479 49.0883 389.225 49.7017C387.999 50.2883 386.772 51.0083 385.545 51.8617C384.719 51.515 383.932 51.2483 383.185 51.0617C382.465 50.875 381.705 50.7417 380.905 50.6617V54.7017C380.905 55.395 380.919 55.995 380.945 56.5017C380.999 57.035 381.065 57.5283 381.145 57.9817C381.225 58.4617 381.345 58.9017 381.505 59.3017C381.665 59.7283 381.865 60.1683 382.105 60.6217C381.572 60.435 380.945 60.3417 380.225 60.3417C379.345 60.3417 378.412 60.4883 377.425 60.7817C376.465 61.075 375.425 61.4883 374.305 62.0217C374.839 61.3817 375.199 60.5283 375.385 59.4617C375.599 58.395 375.705 57.1683 375.705 55.7817V42.8617ZM384.225 47.9017C384.545 47.6083 384.972 47.2883 385.505 46.9417C386.065 46.5683 386.559 46.2883 386.985 46.1017C386.932 45.515 386.892 44.7283 386.865 43.7417C386.865 42.7283 386.865 41.7683 386.865 40.8617C386.865 40.0083 386.879 39.155 386.905 38.3017C386.959 37.4483 387.012 36.6617 387.065 35.9417C386.532 35.9683 385.959 36.0483 385.345 36.1817C384.759 36.2883 384.185 36.4217 383.625 36.5817C383.065 36.7417 382.545 36.9283 382.065 37.1417C381.585 37.3283 381.199 37.515 380.905 37.7017V47.1017C381.332 47.1283 381.865 47.2217 382.505 47.3817C383.145 47.5417 383.719 47.715 384.225 47.9017ZM401.552 46.9417C402.138 46.995 402.738 47.035 403.352 47.0617C403.992 47.0883 404.778 47.2083 405.712 47.4217V41.7817C404.938 42.075 404.192 42.3283 403.472 42.5417C402.752 42.7283 402.138 42.8483 401.632 42.9017L401.552 46.9417ZM411.872 34.1817C411.445 34.795 411.165 35.6083 411.032 36.6217C410.925 37.635 410.872 39.115 410.872 41.0617C410.872 42.3417 410.898 43.3683 410.952 44.1417C411.032 44.8883 411.138 45.4883 411.272 45.9417C411.405 46.3683 411.592 46.675 411.832 46.8617C412.072 47.0217 412.365 47.1417 412.712 47.2217V47.6617C412.338 47.795 411.938 48.035 411.512 48.3817C411.112 48.7017 410.712 49.0617 410.312 49.4617C409.912 49.8617 409.552 50.275 409.232 50.7017C408.912 51.1283 408.672 51.5017 408.512 51.8217C407.952 51.4483 407.445 50.955 406.992 50.3417C406.538 49.7283 406.178 49.115 405.912 48.5017L403.152 51.8217C402.138 51.2083 401.018 50.7417 399.792 50.4217C398.592 50.1017 397.218 49.9283 395.672 49.9017C395.938 49.2083 396.098 48.3417 396.152 47.3017C396.205 46.235 396.232 45.1683 396.232 44.1017C396.232 43.4617 396.192 42.8617 396.112 42.3017C396.032 41.715 395.898 41.195 395.712 40.7417C396.298 40.8217 396.938 40.8617 397.632 40.8617C398.378 40.8617 399.138 40.835 399.912 40.7817C400.712 40.7017 401.472 40.595 402.192 40.4617C402.912 40.3283 403.565 40.1817 404.152 40.0217C404.765 39.835 405.272 39.635 405.672 39.4217V35.4617C404.765 35.8617 403.818 36.195 402.832 36.4617C401.845 36.7283 401.032 36.8617 400.392 36.8617C399.938 36.8617 399.512 36.8217 399.112 36.7417C398.738 36.635 398.392 36.4483 398.072 36.1817C397.752 35.8883 397.458 35.4883 397.192 34.9817C396.952 34.475 396.738 33.8217 396.552 33.0217C396.712 33.0217 396.818 33.035 396.872 33.0617C396.952 33.0617 397.152 33.0617 397.472 33.0617C399.392 33.0617 401.045 32.8883 402.432 32.5417C403.818 32.195 404.898 31.795 405.672 31.3417C406.552 32.3017 407.458 33.0217 408.392 33.5017C409.352 33.955 410.512 34.1817 411.872 34.1817ZM147.84 58.3817C147.92 59.6617 148.027 60.7417 148.16 61.6217C148.32 62.475 148.507 63.3017 148.72 64.1017C148.933 64.875 149.187 65.715 149.48 66.6217C149.773 67.5017 150.107 68.6083 150.48 69.9417C150.213 70.475 149.973 71.155 149.76 71.9817C149.573 72.7817 149.4 73.6217 149.24 74.5017C149.107 75.3817 149 76.2483 148.92 77.1017C148.867 77.955 148.84 78.7017 148.84 79.3417C148.84 79.8483 148.853 80.3417 148.88 80.8217C148.933 81.3017 149.027 81.755 149.16 82.1817C147.613 82.475 146.267 83.1417 145.12 84.1817C143.973 85.195 142.84 86.4217 141.72 87.8617C139.56 86.9283 137.053 86.2617 134.2 85.8617C131.373 85.4883 128.347 85.3017 125.12 85.3017C125.413 85.1417 125.787 84.8483 126.24 84.4217C126.693 83.9683 127.133 83.4617 127.56 82.9017C127.987 82.315 128.347 81.715 128.64 81.1017C128.96 80.4617 129.12 79.875 129.12 79.3417C129.12 78.8083 129.107 78.2083 129.08 77.5417C129.08 76.875 129.027 76.195 128.92 75.5017C128.84 74.8083 128.693 74.1417 128.48 73.5017C128.293 72.835 128.027 72.2617 127.68 71.7817C127.973 71.4617 128.213 70.9817 128.4 70.3417C128.587 69.675 128.72 68.955 128.8 68.1817C128.907 67.3817 128.973 66.5683 129 65.7417C129.027 64.8883 129.04 64.115 129.04 63.4217C129.04 62.5683 128.973 61.835 128.84 61.2217C128.707 60.6083 128.467 60.0483 128.12 59.5417C127.8 59.0083 127.347 58.4883 126.76 57.9817C126.2 57.475 125.48 56.8883 124.6 56.2217C126.493 56.2217 128.187 56.2217 129.68 56.2217C131.2 56.195 132.6 56.1683 133.88 56.1417C135.16 56.0883 136.36 56.0217 137.48 55.9417C138.6 55.835 139.72 55.6883 140.84 55.5017C141.667 56.0083 142.72 56.5283 144 57.0617C145.28 57.595 146.56 58.035 147.84 58.3817ZM143.36 79.9417C143.36 79.355 143.4 78.5817 143.48 77.6217C143.56 76.635 143.667 75.6483 143.8 74.6617C143.96 73.6483 144.133 72.7017 144.32 71.8217C144.533 70.9417 144.76 70.2883 145 69.8617C144.813 69.3283 144.6 68.6617 144.36 67.8617C144.12 67.035 143.88 66.1817 143.64 65.3017C143.4 64.395 143.187 63.5017 143 62.6217C142.813 61.715 142.68 60.915 142.6 60.2217C142.173 60.2217 141.627 60.2483 140.96 60.3017C140.32 60.3283 139.613 60.395 138.84 60.5017C138.093 60.5817 137.333 60.7017 136.56 60.8617C135.813 60.995 135.12 61.1683 134.48 61.3817C134.427 62.5817 134.387 63.9683 134.36 65.5417C134.333 67.0883 134.32 68.7417 134.32 70.5017C134.32 72.2083 134.347 74.0083 134.4 75.9017C134.48 77.7683 134.6 79.7017 134.76 81.7017C135.027 81.7817 135.373 81.875 135.8 81.9817C136.253 82.0883 136.72 82.195 137.2 82.3017C137.68 82.4083 138.147 82.515 138.6 82.6217C139.08 82.7017 139.493 82.7683 139.84 82.8217C140.213 82.2083 140.72 81.6483 141.36 81.1417C142 80.635 142.667 80.235 143.36 79.9417ZM160.646 66.3417C162.486 66.955 164.019 67.3683 165.246 67.5817C166.473 67.795 167.606 67.9017 168.646 67.9017C169.233 67.9017 169.673 67.9017 169.966 67.9017C170.286 67.875 170.593 67.835 170.886 67.7817C170.566 69.515 170.406 71.555 170.406 73.9017C170.406 76.7817 170.646 79.5817 171.126 82.3017C170.459 82.3817 169.753 82.555 169.006 82.8217C168.259 83.0883 167.513 83.4217 166.766 83.8217C166.019 84.2217 165.299 84.6883 164.606 85.2217C163.913 85.7283 163.286 86.2617 162.726 86.8217C162.433 86.5817 161.926 86.3283 161.206 86.0617C160.486 85.8217 159.699 85.595 158.846 85.3817C157.993 85.1683 157.139 84.995 156.286 84.8617C155.433 84.7283 154.726 84.6617 154.166 84.6617C154.006 84.6617 153.846 84.675 153.686 84.7017C153.553 84.7017 153.419 84.715 153.286 84.7417C153.659 84.4217 153.926 83.795 154.086 82.8617C154.273 81.9017 154.366 80.6617 154.366 79.1417C154.366 78.3683 154.339 77.5283 154.286 76.6217C154.233 75.6883 154.153 74.8083 154.046 73.9817C153.966 73.155 153.873 72.4483 153.766 71.8617C153.659 71.275 153.553 70.915 153.446 70.7817C154.486 70.595 155.646 70.115 156.926 69.3417C158.206 68.5417 159.446 67.5417 160.646 66.3417ZM165.446 71.4217C164.219 71.315 163.019 71.1417 161.846 70.9017C160.673 70.635 159.779 70.3417 159.166 70.0217C159.299 71.1417 159.393 72.195 159.446 73.1817C159.499 74.1417 159.526 75.115 159.526 76.1017C159.526 76.875 159.499 77.755 159.446 78.7417C159.419 79.7017 159.379 80.6483 159.326 81.5817C160.233 81.6883 161.233 81.835 162.326 82.0217C163.419 82.2083 164.433 82.4483 165.366 82.7417L165.446 71.4217ZM198.66 83.2217L191.1 69.9417V76.0617C191.1 77.715 191.153 79.1017 191.26 80.2217C191.367 81.3417 191.54 82.315 191.78 83.1417C192.02 83.9683 192.327 84.7017 192.7 85.3417C193.073 85.955 193.527 86.5817 194.06 87.2217C193.473 87.0617 192.953 86.9017 192.5 86.7417C192.073 86.5817 191.647 86.395 191.22 86.1817C190.82 85.9683 190.393 85.7017 189.94 85.3817C189.513 85.0617 189.007 84.6617 188.42 84.1817C188.047 84.8217 187.633 85.4083 187.18 85.9417C186.753 86.5017 186.233 87.0217 185.62 87.5017C185.033 87.9817 184.353 88.4217 183.58 88.8217C182.807 89.2217 181.9 89.5817 180.86 89.9017C181.66 89.1283 182.407 88.2483 183.1 87.2617C183.793 86.3017 184.393 85.275 184.9 84.1817C185.433 83.0617 185.847 81.915 186.14 80.7417C186.46 79.5683 186.62 78.3817 186.62 77.1817C186.62 76.0617 186.473 74.9817 186.18 73.9417C185.913 72.9017 185.46 71.9017 184.82 70.9417C186.127 68.435 186.78 66.195 186.78 64.2217C186.78 62.5417 186.34 61.035 185.46 59.7017C184.607 58.3417 183.38 57.0883 181.78 55.9417C182.047 55.8617 182.353 55.8217 182.7 55.8217C183.233 55.8217 183.82 55.8883 184.46 56.0217C185.127 56.1283 185.847 56.2483 186.62 56.3817C187.42 56.515 188.287 56.6483 189.22 56.7817C190.153 56.8883 191.18 56.9417 192.3 56.9417C192.567 56.9417 192.82 56.9417 193.06 56.9417C193.327 56.9417 193.593 56.9283 193.86 56.9017C193.62 57.0883 193.393 57.3283 193.18 57.6217C192.993 57.915 192.82 58.235 192.66 58.5817C192.5 58.9283 192.367 59.2883 192.26 59.6617C192.18 60.035 192.14 60.3817 192.14 60.7017L200.1 74.4217L206.74 60.9417C206.42 60.0083 206.047 59.2217 205.62 58.5817C205.22 57.9417 204.687 57.3417 204.02 56.7817C204.207 56.835 204.38 56.8617 204.54 56.8617C204.7 56.8617 204.873 56.8617 205.06 56.8617C205.967 56.8617 206.913 56.835 207.9 56.7817C208.887 56.7017 209.873 56.6083 210.86 56.5017C211.847 56.3683 212.807 56.235 213.74 56.1017C214.673 55.9417 215.567 55.795 216.42 55.6617C215.62 56.2217 214.967 56.835 214.46 57.5017C213.98 58.1417 213.607 58.8217 213.34 59.5417C213.1 60.2617 212.927 61.0217 212.82 61.8217C212.74 62.595 212.7 63.395 212.7 64.2217C212.7 65.235 212.873 66.2883 213.22 67.3817C213.567 68.475 214.073 69.6617 214.74 70.9417C214.26 71.795 213.82 72.8617 213.42 74.1417C213.047 75.4217 212.86 76.7017 212.86 77.9817C212.86 79.3683 213.1 80.6617 213.58 81.8617C214.087 83.0617 214.807 83.955 215.74 84.5417C215.18 84.835 214.62 85.1817 214.06 85.5817C213.5 85.955 212.98 86.355 212.5 86.7817C212.02 87.235 211.593 87.6883 211.22 88.1417C210.847 88.595 210.567 89.0217 210.38 89.4217C210.247 89.0217 210.007 88.5817 209.66 88.1017C209.34 87.6217 208.94 87.155 208.46 86.7017C207.98 86.2483 207.46 85.835 206.9 85.4617C206.34 85.0617 205.78 84.755 205.22 84.5417C205.647 84.1683 205.98 83.675 206.22 83.0617C206.487 82.4483 206.673 81.7683 206.78 81.0217C206.913 80.275 206.993 79.475 207.02 78.6217C207.073 77.7683 207.1 76.915 207.1 76.0617V68.5017L199.34 83.3417L198.66 83.2217ZM224.794 81.9417C225.38 81.995 225.98 82.035 226.594 82.0617C227.234 82.0883 228.02 82.2083 228.954 82.4217V76.7817C228.18 77.075 227.434 77.3283 226.714 77.5417C225.994 77.7283 225.38 77.8483 224.874 77.9017L224.794 81.9417ZM235.114 69.1817C234.687 69.795 234.407 70.6083 234.274 71.6217C234.167 72.635 234.114 74.115 234.114 76.0617C234.114 77.3417 234.14 78.3683 234.194 79.1417C234.274 79.8883 234.38 80.4883 234.514 80.9417C234.647 81.3683 234.834 81.675 235.074 81.8617C235.314 82.0217 235.607 82.1417 235.954 82.2217V82.6617C235.58 82.795 235.18 83.035 234.754 83.3817C234.354 83.7017 233.954 84.0617 233.554 84.4617C233.154 84.8617 232.794 85.275 232.474 85.7017C232.154 86.1283 231.914 86.5017 231.754 86.8217C231.194 86.4483 230.687 85.955 230.234 85.3417C229.78 84.7283 229.42 84.115 229.154 83.5017L226.394 86.8217C225.38 86.2083 224.26 85.7417 223.034 85.4217C221.834 85.1017 220.46 84.9283 218.914 84.9017C219.18 84.2083 219.34 83.3417 219.394 82.3017C219.447 81.235 219.474 80.1683 219.474 79.1017C219.474 78.4617 219.434 77.8617 219.354 77.3017C219.274 76.715 219.14 76.195 218.954 75.7417C219.54 75.8217 220.18 75.8617 220.874 75.8617C221.62 75.8617 222.38 75.835 223.154 75.7817C223.954 75.7017 224.714 75.595 225.434 75.4617C226.154 75.3283 226.807 75.1817 227.394 75.0217C228.007 74.835 228.514 74.635 228.914 74.4217V70.4617C228.007 70.8617 227.06 71.195 226.074 71.4617C225.087 71.7283 224.274 71.8617 223.634 71.8617C223.18 71.8617 222.754 71.8217 222.354 71.7417C221.98 71.635 221.634 71.4483 221.314 71.1817C220.994 70.8883 220.7 70.4883 220.434 69.9817C220.194 69.475 219.98 68.8217 219.794 68.0217C219.954 68.0217 220.06 68.035 220.114 68.0617C220.194 68.0617 220.394 68.0617 220.714 68.0617C222.634 68.0617 224.287 67.8883 225.674 67.5417C227.06 67.195 228.14 66.795 228.914 66.3417C229.794 67.3017 230.7 68.0217 231.634 68.5017C232.594 68.955 233.754 69.1817 235.114 69.1817ZM244.695 72.8617C245.309 71.875 245.882 70.835 246.415 69.7417C246.949 68.6483 247.442 67.4883 247.895 66.2617C248.402 66.5817 249.122 66.915 250.055 67.2617C250.989 67.5817 252.015 67.875 253.135 68.1417C253.002 69.2617 252.762 70.2883 252.415 71.2217C252.069 72.1283 251.629 72.8883 251.095 73.5017L248.415 72.1017H247.935L244.695 76.6617V82.1817C244.695 83.115 244.855 83.795 245.175 84.2217C245.522 84.6217 246.122 84.8883 246.975 85.0217V85.7017H238.415V85.1017C239.135 84.835 239.495 83.9817 239.495 82.5417V68.5817L238.015 67.9417V67.5017C238.949 67.3683 239.962 67.195 241.055 66.9817C242.149 66.7417 243.122 66.515 243.975 66.3017L244.695 67.5017V72.8617ZM265.377 88.8217C265.51 88.475 265.63 88.0483 265.737 87.5417C265.87 87.035 265.977 86.5017 266.057 85.9417C266.137 85.3817 266.204 84.8083 266.257 84.2217C266.31 83.635 266.337 83.0883 266.337 82.5817V79.2617C265.537 78.7017 264.724 78.2083 263.897 77.7817C263.07 77.3283 262.19 76.915 261.257 76.5417V82.1817C261.257 83.8617 261.617 84.835 262.337 85.1017V85.7017H254.977V85.1017C255.697 84.835 256.057 83.9817 256.057 82.5417V61.5017C256.057 60.7817 256.03 60.1417 255.977 59.5817C255.95 59.0217 255.884 58.515 255.777 58.0617C255.697 57.6083 255.577 57.1817 255.417 56.7817C255.284 56.3817 255.097 55.9817 254.857 55.5817C255.337 55.7683 255.964 55.8617 256.737 55.8617C257.564 55.8617 258.457 55.7283 259.417 55.4617C260.377 55.195 261.457 54.7683 262.657 54.1817C262.177 54.7683 261.817 55.555 261.577 56.5417C261.364 57.5283 261.257 58.8217 261.257 60.4217V68.7417C261.817 68.3683 262.377 67.9417 262.937 67.4617C263.497 66.9817 264.124 66.395 264.817 65.7017C265.617 66.235 266.524 66.6883 267.537 67.0617C268.577 67.4083 269.817 67.7283 271.257 68.0217C271.017 68.795 270.897 69.7283 270.897 70.8217C270.897 71.115 270.91 71.4883 270.937 71.9417C270.964 72.395 271.004 72.7283 271.057 72.9417L265.137 75.1817V75.3417C266.577 75.635 267.817 75.995 268.857 76.4217C269.924 76.8483 270.91 77.3283 271.817 77.8617C271.71 78.4217 271.63 78.9817 271.577 79.5417C271.55 80.1017 271.537 80.755 271.537 81.5017C271.537 83.0217 271.63 84.2083 271.817 85.0617C271.284 85.3017 270.724 85.5817 270.137 85.9017C269.55 86.2217 268.977 86.555 268.417 86.9017C267.857 87.2483 267.337 87.595 266.857 87.9417C266.404 88.2883 266.017 88.6217 265.697 88.9417L265.377 88.8217ZM261.257 74.8617L267.377 72.3817L267.297 71.0617L261.257 69.8617V74.8617ZM282.776 86.9817C282.269 86.6083 281.643 86.2617 280.896 85.9417C280.149 85.6217 279.376 85.355 278.576 85.1417C277.803 84.9017 277.043 84.715 276.296 84.5817C275.576 84.4483 274.976 84.3817 274.496 84.3817C274.709 84.035 274.896 83.555 275.056 82.9417C275.216 82.3017 275.336 81.6217 275.416 80.9017C275.523 80.155 275.589 79.395 275.616 78.6217C275.669 77.8483 275.696 77.1417 275.696 76.5017C275.696 74.875 275.589 73.5283 275.376 72.4617C275.189 71.3683 275.003 70.515 274.816 69.9017C275.963 69.6883 277.003 69.275 277.936 68.6617C278.896 68.0483 279.843 67.275 280.776 66.3417C281.869 66.555 283.216 66.7417 284.816 66.9017C286.416 67.035 288.003 67.1283 289.576 67.1817C289.496 67.6617 289.456 68.2617 289.456 68.9817C289.456 69.5417 289.483 70.155 289.536 70.8217C289.589 71.4617 289.656 72.1017 289.736 72.7417C289.816 73.3817 289.923 73.995 290.056 74.5817C290.189 75.1683 290.336 75.675 290.496 76.1017C288.869 76.235 287.216 76.4217 285.536 76.6617C283.856 76.875 282.216 77.115 280.616 77.3817C280.589 78.155 280.536 78.915 280.456 79.6617C280.376 80.4083 280.309 81.0617 280.256 81.6217C280.576 81.755 280.976 81.875 281.456 81.9817C281.963 82.0883 282.496 82.195 283.056 82.3017C283.616 82.3817 284.163 82.4617 284.696 82.5417C285.229 82.595 285.683 82.635 286.056 82.6617C286.189 81.835 286.509 81.1283 287.016 80.5417C287.549 79.955 288.443 79.475 289.696 79.1017C289.669 79.4217 289.656 79.7417 289.656 80.0617C289.656 80.355 289.656 80.6483 289.656 80.9417C289.656 81.8483 289.683 82.5683 289.736 83.1017C289.816 83.6083 289.949 84.115 290.136 84.6217C289.629 84.675 289.029 84.7817 288.336 84.9417C287.643 85.075 286.949 85.2617 286.256 85.5017C285.563 85.715 284.896 85.9417 284.256 86.1817C283.643 86.4483 283.149 86.715 282.776 86.9817ZM280.216 69.9417C280.349 71.0617 280.443 72.0483 280.496 72.9017C280.576 73.755 280.629 74.5417 280.656 75.2617L285.336 74.1017C285.203 73.5683 285.083 73.0083 284.976 72.4217C284.896 71.835 284.856 71.235 284.856 70.6217C284.243 70.6217 283.496 70.5683 282.616 70.4617C281.763 70.3283 280.963 70.155 280.216 69.9417ZM300.533 70.3417V79.1817C300.533 80.5683 300.867 81.6083 301.533 82.3017C302.227 82.995 303.08 83.3683 304.093 83.4217V83.9817C303.64 84.1417 303.16 84.3417 302.653 84.5817C302.147 84.8217 301.653 85.075 301.173 85.3417C300.693 85.5817 300.24 85.835 299.813 86.1017C299.387 86.3683 299.053 86.6083 298.813 86.8217C298.2 86.4483 297.573 86.0883 296.933 85.7417C296.293 85.395 295.76 85.115 295.333 84.9017V70.0217H292.013V69.5817C293.187 69.1283 294.293 68.435 295.333 67.5017V66.2217C295.333 66.0083 295.307 65.675 295.253 65.2217C295.227 64.7417 295.187 64.2617 295.133 63.7817C295.08 63.275 295.013 62.8217 294.933 62.4217C294.853 61.995 294.76 61.715 294.653 61.5817C295.853 61.5017 296.96 61.2617 297.973 60.8617C298.987 60.4617 300.067 59.955 301.213 59.3417C301.107 59.6083 301.013 60.0217 300.933 60.5817C300.853 61.1417 300.773 61.7417 300.693 62.3817C300.64 62.995 300.6 63.595 300.573 64.1817C300.547 64.7417 300.533 65.1417 300.533 65.3817V67.5017H306.173V67.6617C305.747 68.115 305.36 68.6217 305.013 69.1817C304.693 69.7417 304.467 70.2883 304.333 70.8217L300.533 70.3417ZM315.12 86.9817C314.613 86.6083 313.986 86.2617 313.24 85.9417C312.493 85.6217 311.72 85.355 310.92 85.1417C310.146 84.9017 309.386 84.715 308.64 84.5817C307.92 84.4483 307.32 84.3817 306.84 84.3817C307.053 84.035 307.24 83.555 307.4 82.9417C307.56 82.3017 307.68 81.6217 307.76 80.9017C307.866 80.155 307.933 79.395 307.96 78.6217C308.013 77.8483 308.04 77.1417 308.04 76.5017C308.04 74.875 307.933 73.5283 307.72 72.4617C307.533 71.3683 307.346 70.515 307.16 69.9017C308.306 69.6883 309.346 69.275 310.28 68.6617C311.24 68.0483 312.186 67.275 313.12 66.3417C314.213 66.555 315.56 66.7417 317.16 66.9017C318.76 67.035 320.346 67.1283 321.92 67.1817C321.84 67.6617 321.8 68.2617 321.8 68.9817C321.8 69.5417 321.826 70.155 321.88 70.8217C321.933 71.4617 322 72.1017 322.08 72.7417C322.16 73.3817 322.266 73.995 322.4 74.5817C322.533 75.1683 322.68 75.675 322.84 76.1017C321.213 76.235 319.56 76.4217 317.88 76.6617C316.2 76.875 314.56 77.115 312.96 77.3817C312.933 78.155 312.88 78.915 312.8 79.6617C312.72 80.4083 312.653 81.0617 312.6 81.6217C312.92 81.755 313.32 81.875 313.8 81.9817C314.306 82.0883 314.84 82.195 315.4 82.3017C315.96 82.3817 316.506 82.4617 317.04 82.5417C317.573 82.595 318.026 82.635 318.4 82.6617C318.533 81.835 318.853 81.1283 319.36 80.5417C319.893 79.955 320.786 79.475 322.04 79.1017C322.013 79.4217 322 79.7417 322 80.0617C322 80.355 322 80.6483 322 80.9417C322 81.8483 322.026 82.5683 322.08 83.1017C322.16 83.6083 322.293 84.115 322.48 84.6217C321.973 84.675 321.373 84.7817 320.68 84.9417C319.986 85.075 319.293 85.2617 318.6 85.5017C317.906 85.715 317.24 85.9417 316.6 86.1817C315.986 86.4483 315.493 86.715 315.12 86.9817ZM312.56 69.9417C312.693 71.0617 312.786 72.0483 312.84 72.9017C312.92 73.755 312.973 74.5417 313 75.2617L317.68 74.1017C317.546 73.5683 317.426 73.0083 317.32 72.4217C317.24 71.835 317.2 71.235 317.2 70.6217C316.586 70.6217 315.84 70.5683 314.96 70.4617C314.106 70.3283 313.306 70.155 312.56 69.9417ZM332.037 67.5017V82.1817C332.037 83.8617 332.397 84.835 333.117 85.1017V85.7017C332.264 85.835 331.464 85.995 330.717 86.1817C329.971 86.3683 329.197 86.5817 328.397 86.8217H328.197C327.291 85.595 326.837 84.155 326.837 82.5017V68.5817L325.357 67.9417V67.5017C326.291 67.3683 327.304 67.195 328.397 66.9817C329.491 66.7417 330.464 66.515 331.317 66.3017L332.037 67.5017ZM325.717 59.7017C326.171 58.9283 326.717 58.1683 327.357 57.4217C328.024 56.6483 328.757 56.0483 329.557 55.6217C329.717 55.835 329.957 56.0883 330.277 56.3817C330.624 56.675 330.984 56.9683 331.357 57.2617C331.757 57.555 332.131 57.835 332.477 58.1017C332.851 58.3417 333.131 58.515 333.317 58.6217C332.411 59.2617 331.637 59.8883 330.997 60.5017C330.384 61.0883 329.851 61.835 329.397 62.7417C329.237 62.555 328.984 62.3283 328.637 62.0617C328.317 61.7683 327.971 61.475 327.597 61.1817C327.224 60.8883 326.864 60.6083 326.517 60.3417C326.171 60.075 325.904 59.8617 325.717 59.7017ZM342.703 72.8617C343.316 71.875 343.89 70.835 344.423 69.7417C344.956 68.6483 345.45 67.4883 345.903 66.2617C346.41 66.5817 347.13 66.915 348.063 67.2617C348.996 67.5817 350.023 67.875 351.143 68.1417C351.01 69.2617 350.77 70.2883 350.423 71.2217C350.076 72.1283 349.636 72.8883 349.103 73.5017L346.423 72.1017H345.943L342.703 76.6617V82.1817C342.703 83.115 342.863 83.795 343.183 84.2217C343.53 84.6217 344.13 84.8883 344.983 85.0217V85.7017H336.423V85.1017C337.143 84.835 337.503 83.9817 337.503 82.5417V68.5817L336.023 67.9417V67.5017C336.956 67.3683 337.97 67.195 339.063 66.9817C340.156 66.7417 341.13 66.515 341.983 66.3017L342.703 67.5017V72.8617ZM359.865 66.3417C361.705 66.955 363.238 67.3683 364.465 67.5817C365.691 67.795 366.825 67.9017 367.865 67.9017C368.451 67.9017 368.891 67.9017 369.185 67.9017C369.505 67.875 369.811 67.835 370.105 67.7817C369.785 69.515 369.625 71.555 369.625 73.9017C369.625 76.7817 369.865 79.5817 370.345 82.3017C369.678 82.3817 368.971 82.555 368.225 82.8217C367.478 83.0883 366.731 83.4217 365.985 83.8217C365.238 84.2217 364.518 84.6883 363.825 85.2217C363.131 85.7283 362.505 86.2617 361.945 86.8217C361.651 86.5817 361.145 86.3283 360.425 86.0617C359.705 85.8217 358.918 85.595 358.065 85.3817C357.211 85.1683 356.358 84.995 355.505 84.8617C354.651 84.7283 353.945 84.6617 353.385 84.6617C353.225 84.6617 353.065 84.675 352.905 84.7017C352.771 84.7017 352.638 84.715 352.505 84.7417C352.878 84.4217 353.145 83.795 353.305 82.8617C353.491 81.9017 353.585 80.6617 353.585 79.1417C353.585 78.3683 353.558 77.5283 353.505 76.6217C353.451 75.6883 353.371 74.8083 353.265 73.9817C353.185 73.155 353.091 72.4483 352.985 71.8617C352.878 71.275 352.771 70.915 352.665 70.7817C353.705 70.595 354.865 70.115 356.145 69.3417C357.425 68.5417 358.665 67.5417 359.865 66.3417ZM364.665 71.4217C363.438 71.315 362.238 71.1417 361.065 70.9017C359.891 70.635 358.998 70.3417 358.385 70.0217C358.518 71.1417 358.611 72.195 358.665 73.1817C358.718 74.1417 358.745 75.115 358.745 76.1017C358.745 76.875 358.718 77.755 358.665 78.7417C358.638 79.7017 358.598 80.6483 358.545 81.5817C359.451 81.6883 360.451 81.835 361.545 82.0217C362.638 82.2083 363.651 82.4483 364.585 82.7417L364.665 71.4217Z" fill="#1E1D1D"/>
</g>
<path d="M74.6236 93.2888C85.0314 73.538 106.914 88.3876 120.044 62.6557" stroke="#B20000" stroke-width="2.5" stroke-dasharray="5 5"/>
<defs>
<filter id="filter0_d_235_8" x="14.0732" y="53.103" width="67.9092" height="66.228" filterUnits="userSpaceOnUse" color-interpolation-filters="sRGB">
<feFlood flood-opacity="0" result="BackgroundImageFix"/>
<feColorMatrix in="SourceAlpha" type="matrix" values="0 0 0 0 0 0 0 0 0 0 0 0 0 0 0 0 0 0 127 0" result="hardAlpha"/>
<feOffset dy="5"/>
<feGaussianBlur stdDeviation="2.5"/>
<feComposite in2="hardAlpha" operator="out"/>
<feColorMatrix type="matrix" values="0 0 0 0 0 0 0 0 0 0 0 0 0 0 0 0 0 0 0.5 0"/>
<feBlend mode="normal" in2="BackgroundImageFix" result="effect1_dropShadow_235_8"/>
<feBlend mode="normal" in="SourceGraphic" in2="effect1_dropShadow_235_8" result="shape"/>
</filter>
<filter id="filter1_d_235_8" x="116.36" y="19.1816" width="297.352" height="79.7202" filterUnits="userSpaceOnUse" color-interpolation-filters="sRGB">
<feFlood flood-opacity="0" result="BackgroundImageFix"/>
<feColorMatrix in="SourceAlpha" type="matrix" values="0 0 0 0 0 0 0 0 0 0 0 0 0 0 0 0 0 0 127 0" result="hardAlpha"/>
<feOffset dx="-3" dy="5"/>
<feGaussianBlur stdDeviation="2"/>
<feComposite in2="hardAlpha" operator="out"/>
<feColorMatrix type="matrix" values="0 0 0 0 0 0 0 0 0 0 0 0 0 0 0 0 0 0 0.2 0"/>
<feBlend mode="normal" in2="BackgroundImageFix" result="effect1_dropShadow_235_8"/>
<feBlend mode="normal" in="SourceGraphic" in2="effect1_dropShadow_235_8" result="shape"/>
</filter>
</defs>
</svg>
