<svg width="297" height="160" viewBox="0 0 297 160" fill="none" xmlns="http://www.w3.org/2000/svg">
<g style="mix-blend-mode:color-burn" filter="url(#filter0_d_235_13)">
<path d="M36.0659 109.332L43.6847 79.6465L45.6691 84.6257L19.738 69.86L30.004 65.5864L48.2819 76.1731L44.3675 77.8026L49.3543 57.531L59.3248 53.3804L52.0207 81.9816L49.9625 77.0331L76.9821 92.2987L66.5684 96.6338L47.286 85.3389L51.3493 84.2539L46.258 105.089L36.0659 109.332Z" fill="#8F0000"/>
</g>
<g style="mix-blend-mode:darken" filter="url(#filter1_d_235_13)">
<path d="M100.84 46.8359C101.24 46.5959 101.587 46.1426 101.88 45.4759C102.2 44.8093 102.467 44.0493 102.68 43.1959C102.92 42.3426 103.093 41.4626 103.2 40.5559C103.307 39.6226 103.36 38.7693 103.36 37.9959C103.36 36.7959 103.227 35.6493 102.96 34.5559C102.72 33.4626 102.373 32.6359 101.92 32.0759C102.347 31.6493 102.693 31.0893 102.96 30.3959C103.253 29.6759 103.48 28.9159 103.64 28.1159C103.8 27.2893 103.907 26.4493 103.96 25.5959C104.013 24.7426 104.04 23.9426 104.04 23.1959C104.04 22.5826 104.027 22.0493 104 21.5959C103.973 21.1426 103.947 20.7959 103.92 20.5559C103.307 20.3426 102.667 19.9026 102 19.2359C101.36 18.5693 100.88 17.8493 100.56 17.0759C102.267 17.2626 103.88 17.3959 105.4 17.4759C106.947 17.5293 108.4 17.5559 109.76 17.5559C112.667 17.5559 115.013 17.4626 116.8 17.2759C118.587 17.0893 120 16.9959 121.04 16.9959C121.253 16.9959 121.44 17.0093 121.6 17.0359C121.76 17.0359 121.907 17.0493 122.04 17.0759C121.88 17.3959 121.707 17.9959 121.52 18.8759C121.36 19.7559 121.2 20.7159 121.04 21.7559C120.88 22.7959 120.733 23.8093 120.6 24.7959C120.493 25.7826 120.413 26.5293 120.36 27.0359L120.08 27.1559C119.147 26.4626 118.467 25.7026 118.04 24.8759C117.64 24.0226 117.333 22.9826 117.12 21.7559C116.747 21.4626 116.28 21.2759 115.72 21.1959C115.16 21.1159 114.453 21.0759 113.6 21.0759C112.907 21.0759 112.24 21.0893 111.6 21.1159C110.96 21.1426 110.453 21.1559 110.08 21.1559C109.947 21.9293 109.827 22.8226 109.72 23.8359C109.64 24.8493 109.56 25.9293 109.48 27.0759C109.427 28.2226 109.373 29.4226 109.32 30.6759C109.293 31.9026 109.28 33.1293 109.28 34.3559C109.28 36.0359 109.293 37.6359 109.32 39.1559C109.373 40.6493 109.453 41.9559 109.56 43.0759L116.32 43.7559C116.693 42.1026 117.347 40.6359 118.28 39.3559C119.24 38.0759 120.267 36.8359 121.36 35.6359L121.6 35.7159C121.52 36.3293 121.467 36.9426 121.44 37.5559C121.413 38.1426 121.4 38.7159 121.4 39.2759C121.4 40.6626 121.467 41.9159 121.6 43.0359C121.733 44.1559 121.893 44.9959 122.08 45.5559C121.627 45.6093 121.173 45.6893 120.72 45.7959C120.293 45.8759 119.827 46.0226 119.32 46.2359C118.813 46.4493 118.267 46.7426 117.68 47.1159C117.12 47.4893 116.493 47.9693 115.8 48.5559C113.56 47.8893 111.347 47.3826 109.16 47.0359C106.973 46.7159 105 46.5559 103.24 46.5559C102.387 46.5559 101.6 46.6893 100.88 46.9559L100.84 46.8359ZM132.521 27.4759C134.361 28.0893 135.894 28.5026 137.121 28.7159C138.348 28.9293 139.481 29.0359 140.521 29.0359C141.108 29.0359 141.548 29.0359 141.841 29.0359C142.161 29.0093 142.468 28.9693 142.761 28.9159C142.441 30.6493 142.281 32.6893 142.281 35.0359C142.281 37.9159 142.521 40.7159 143.001 43.4359C142.334 43.5159 141.628 43.6893 140.881 43.9559C140.134 44.2226 139.388 44.5559 138.641 44.9559C137.894 45.3559 137.174 45.8226 136.481 46.3559C135.788 46.8626 135.161 47.3959 134.601 47.9559C134.308 47.7159 133.801 47.4626 133.081 47.1959C132.361 46.9559 131.574 46.7293 130.721 46.5159C129.868 46.3026 129.014 46.1293 128.161 45.9959C127.308 45.8626 126.601 45.7959 126.041 45.7959C125.881 45.7959 125.721 45.8093 125.561 45.8359C125.428 45.8359 125.294 45.8493 125.161 45.8759C125.534 45.5559 125.801 44.9293 125.961 43.9959C126.148 43.0359 126.241 41.7959 126.241 40.2759C126.241 39.5026 126.214 38.6626 126.161 37.7559C126.108 36.8226 126.028 35.9426 125.921 35.1159C125.841 34.2893 125.748 33.5826 125.641 32.9959C125.534 32.4093 125.428 32.0493 125.321 31.9159C126.361 31.7293 127.521 31.2493 128.801 30.4759C130.081 29.6759 131.321 28.6759 132.521 27.4759ZM137.321 32.5559C136.094 32.4493 134.894 32.2759 133.721 32.0359C132.548 31.7693 131.654 31.4759 131.041 31.1559C131.174 32.2759 131.268 33.3293 131.321 34.3159C131.374 35.2759 131.401 36.2493 131.401 37.2359C131.401 38.0093 131.374 38.8893 131.321 39.8759C131.294 40.8359 131.254 41.7826 131.201 42.7159C132.108 42.8226 133.108 42.9693 134.201 43.1559C135.294 43.3426 136.308 43.5826 137.241 43.8759L137.321 32.5559ZM152.351 31.9559C153.497 31.2093 154.524 30.4626 155.431 29.7159C156.337 28.9693 157.271 28.0893 158.231 27.0759C158.684 27.5026 159.097 27.8893 159.471 28.2359C159.844 28.5559 160.217 28.8493 160.591 29.1159C160.991 29.3826 161.404 29.6493 161.831 29.9159C162.257 30.1559 162.751 30.4093 163.311 30.6759C163.204 31.0493 163.111 31.4493 163.031 31.8759C162.977 32.2759 162.924 32.7959 162.871 33.4359C162.844 34.0759 162.817 34.8626 162.791 35.7959C162.764 36.7293 162.751 37.8893 162.751 39.2759C162.751 40.4493 162.751 41.4226 162.751 42.1959C162.777 42.9426 162.804 43.5559 162.831 44.0359C162.857 44.5159 162.897 44.9159 162.951 45.2359C163.004 45.5293 163.057 45.8093 163.111 46.0759C162.577 46.2626 162.031 46.5159 161.471 46.8359C160.937 47.1559 160.391 47.5159 159.831 47.9159C159.297 48.3159 158.791 48.7293 158.311 49.1559C157.831 49.5826 157.404 49.9959 157.031 50.3959L156.791 50.1559C156.951 49.6226 157.097 48.9559 157.231 48.1559C157.364 47.3826 157.471 46.6093 157.551 45.8359C157.631 45.0359 157.697 44.3026 157.751 43.6359C157.804 42.9693 157.831 42.4893 157.831 42.1959C157.831 40.6759 157.817 39.1559 157.791 37.6359C157.791 36.1159 157.791 34.5959 157.791 33.0759L157.271 32.5159L152.351 34.7159V43.3159C152.351 44.9959 152.711 45.9693 153.431 46.2359V46.8359H146.071V46.2359C146.391 46.1026 146.644 45.8359 146.831 45.4359C147.044 45.0093 147.151 44.4226 147.151 43.6759V29.7159L145.671 29.0759V28.6359C146.604 28.5026 147.617 28.3293 148.711 28.1159C149.804 27.8759 150.777 27.6493 151.631 27.4359L152.351 28.6359V31.9559ZM172.889 30.7159C172.836 31.1426 172.796 31.5559 172.769 31.9559C172.769 32.3559 172.769 32.8226 172.769 33.3559C172.769 33.8893 172.782 34.4226 172.809 34.9559C172.836 35.4893 172.876 35.9693 172.929 36.3959C173.436 36.2093 173.956 36.0493 174.489 35.9159C175.049 35.7826 175.662 35.6626 176.329 35.5559C177.022 35.4493 177.796 35.3559 178.649 35.2759C179.502 35.1959 180.502 35.1159 181.649 35.0359C181.569 35.9693 181.529 37.3293 181.529 39.1159C181.529 40.6359 181.556 41.9959 181.609 43.1959C181.662 44.3693 181.756 45.2626 181.889 45.8759C181.062 45.8759 180.222 45.9293 179.369 46.0359C178.516 46.1426 177.702 46.2893 176.929 46.4759C176.156 46.6626 175.436 46.8893 174.769 47.1559C174.102 47.4226 173.542 47.7159 173.089 48.0359C172.769 47.7426 172.409 47.4893 172.009 47.2759C171.636 47.0626 171.182 46.8893 170.649 46.7559C170.116 46.5959 169.489 46.4759 168.769 46.3959C168.049 46.2893 167.196 46.2093 166.209 46.1559C166.262 45.3293 166.422 44.4893 166.689 43.6359C166.982 42.7559 167.342 42.0493 167.769 41.5159C168.382 41.5159 169.342 41.7426 170.649 42.1959C171.956 42.6493 173.689 43.3559 175.849 44.3159C176.009 43.4626 176.129 42.6893 176.209 41.9959C176.289 41.2759 176.329 40.5293 176.329 39.7559C176.329 39.2759 176.329 38.9293 176.329 38.7159C176.329 38.5026 176.316 38.3026 176.289 38.1159C175.116 38.2226 173.756 38.4226 172.209 38.7159C170.662 38.9826 169.209 39.3026 167.849 39.6759C167.956 38.5293 168.022 37.6493 168.049 37.0359C168.076 36.3959 168.089 35.8226 168.089 35.3159C168.089 34.1159 168.022 33.0626 167.889 32.1559C167.782 31.2493 167.596 30.4093 167.329 29.6359C168.342 29.6359 169.436 29.4626 170.609 29.1159C171.782 28.7693 173.249 28.2226 175.009 27.4759C176.689 28.3293 179.196 28.8759 182.529 29.1159C182.049 30.2626 181.502 31.1026 180.889 31.6359C180.276 32.1426 179.516 32.3959 178.609 32.3959C178.209 32.3959 177.756 32.3559 177.249 32.2759C176.742 32.1959 176.222 32.0759 175.689 31.9159C175.182 31.7559 174.676 31.5826 174.169 31.3959C173.689 31.1826 173.262 30.9559 172.889 30.7159ZM184.408 29.1159C184.968 29.0626 185.594 28.9826 186.288 28.8759C186.981 28.7426 187.674 28.5959 188.368 28.4359C189.061 28.2759 189.701 28.1159 190.288 27.9559C190.874 27.7693 191.341 27.5959 191.688 27.4359C191.634 27.8893 191.581 28.3026 191.528 28.6759C191.501 29.0493 191.474 29.4493 191.448 29.8759C191.448 30.3026 191.434 30.7693 191.408 31.2759C191.408 31.7826 191.408 32.3826 191.408 33.0759V41.1559L193.088 42.4359L196.928 40.7559V34.5159C196.928 33.6093 196.901 32.8626 196.848 32.2759C196.821 31.6893 196.741 31.2226 196.608 30.8759C196.474 30.5293 196.288 30.2759 196.048 30.1159C195.834 29.9293 195.528 29.7826 195.128 29.6759V29.1559C196.408 29.0759 197.661 28.8893 198.888 28.5959C200.141 28.3026 201.221 27.9293 202.128 27.4759V36.9159C202.128 38.1693 202.154 39.1959 202.208 39.9959C202.261 40.7693 202.354 41.3959 202.488 41.8759C202.621 42.3559 202.794 42.7026 203.008 42.9159C203.248 43.1293 203.554 43.2759 203.928 43.3559V43.7959C203.581 43.9559 203.194 44.1959 202.768 44.5159C202.341 44.8359 201.928 45.1959 201.528 45.5959C201.128 45.9959 200.768 46.4093 200.448 46.8359C200.128 47.2359 199.888 47.6093 199.728 47.9559C198.848 47.2093 198.208 46.5159 197.808 45.8759C197.434 45.2359 197.181 44.4493 197.048 43.5159C196.248 43.9159 195.541 44.2893 194.928 44.6359C194.341 44.9826 193.794 45.3293 193.288 45.6759C192.808 46.0226 192.354 46.3826 191.928 46.7559C191.528 47.1293 191.114 47.5293 190.688 47.9559C190.154 47.4759 189.674 47.0759 189.248 46.7559C188.848 46.4093 188.448 46.1026 188.048 45.8359C187.674 45.5693 187.288 45.3293 186.888 45.1159C186.514 44.8759 186.087 44.6226 185.608 44.3559C185.714 44.1959 185.808 43.8359 185.888 43.2759C185.994 42.7159 186.088 42.0359 186.168 41.2359C186.248 40.4359 186.301 39.5826 186.327 38.6759C186.381 37.7426 186.408 36.8493 186.408 35.9959C186.408 35.0359 186.368 34.2093 186.288 33.5159C186.234 32.7959 186.128 32.1826 185.968 31.6759C185.808 31.1693 185.594 30.7559 185.328 30.4359C185.088 30.0893 184.768 29.7959 184.368 29.5559L184.408 29.1159ZM205.618 47.6759C206.312 47.3293 206.832 46.7559 207.178 45.9559C207.525 45.1559 207.698 44.2226 207.698 43.1559V22.6359C207.698 21.9693 207.685 21.3693 207.658 20.8359C207.632 20.3026 207.565 19.8093 207.458 19.3559C207.378 18.9026 207.258 18.4626 207.098 18.0359C206.938 17.6093 206.738 17.1693 206.498 16.7159C207.032 16.9026 207.658 16.9959 208.378 16.9959C209.258 16.9959 210.178 16.8493 211.138 16.5559C212.125 16.2626 213.178 15.8493 214.298 15.3159C213.765 15.9559 213.392 16.8093 213.178 17.8759C212.992 18.9426 212.898 20.1693 212.898 21.5559V40.9159C212.898 42.0093 212.938 42.9159 213.018 43.6359C213.098 44.3559 213.232 44.9959 213.418 45.5559C213.632 46.1159 213.925 46.6493 214.298 47.1559C214.672 47.6893 215.138 48.3159 215.698 49.0359L215.458 49.3959C214.738 49.0493 214.138 48.7693 213.658 48.5559C213.178 48.3693 212.765 48.1959 212.418 48.0359C212.098 47.8759 211.805 47.7026 211.538 47.5159C211.298 47.3559 211.045 47.1293 210.778 46.8359C210.005 47.1559 209.165 47.4226 208.258 47.6359C207.378 47.8493 206.512 47.9559 205.658 47.9559L205.618 47.6759ZM224.518 31.4759V40.3159C224.518 41.7026 224.851 42.7426 225.518 43.4359C226.211 44.1293 227.064 44.5026 228.078 44.5559V45.1159C227.624 45.2759 227.144 45.4759 226.638 45.7159C226.131 45.9559 225.638 46.2093 225.158 46.4759C224.678 46.7159 224.224 46.9693 223.798 47.2359C223.371 47.5026 223.038 47.7426 222.798 47.9559C222.184 47.5826 221.558 47.2226 220.918 46.8759C220.278 46.5293 219.744 46.2493 219.318 46.0359V31.1559H215.998V30.7159C217.171 30.2626 218.278 29.5693 219.318 28.6359V27.3559C219.318 27.1426 219.291 26.8093 219.238 26.3559C219.211 25.8759 219.171 25.3959 219.118 24.9159C219.064 24.4093 218.998 23.9559 218.918 23.5559C218.838 23.1293 218.744 22.8493 218.638 22.7159C219.838 22.6359 220.944 22.3959 221.958 21.9959C222.971 21.5959 224.051 21.0893 225.198 20.4759C225.091 20.7426 224.998 21.1559 224.918 21.7159C224.838 22.2759 224.758 22.8759 224.678 23.5159C224.624 24.1293 224.584 24.7293 224.558 25.3159C224.531 25.8759 224.518 26.2759 224.518 26.5159V28.6359H230.158V28.7959C229.731 29.2493 229.344 29.7559 228.998 30.3159C228.678 30.8759 228.451 31.4226 228.318 31.9559L224.518 31.4759ZM238.224 27.4759C240.064 28.0893 241.597 28.5026 242.824 28.7159C244.051 28.9293 245.184 29.0359 246.224 29.0359C246.811 29.0359 247.251 29.0359 247.544 29.0359C247.864 29.0093 248.171 28.9693 248.464 28.9159C248.144 30.6493 247.984 32.6893 247.984 35.0359C247.984 37.9159 248.224 40.7159 248.704 43.4359C248.037 43.5159 247.331 43.6893 246.584 43.9559C245.837 44.2226 245.091 44.5559 244.344 44.9559C243.597 45.3559 242.877 45.8226 242.184 46.3559C241.491 46.8626 240.864 47.3959 240.304 47.9559C240.011 47.7159 239.504 47.4626 238.784 47.1959C238.064 46.9559 237.277 46.7293 236.424 46.5159C235.571 46.3026 234.717 46.1293 233.864 45.9959C233.011 45.8626 232.304 45.7959 231.744 45.7959C231.584 45.7959 231.424 45.8093 231.264 45.8359C231.131 45.8359 230.997 45.8493 230.864 45.8759C231.237 45.5559 231.504 44.9293 231.664 43.9959C231.851 43.0359 231.944 41.7959 231.944 40.2759C231.944 39.5026 231.917 38.6626 231.864 37.7559C231.811 36.8226 231.731 35.9426 231.624 35.1159C231.544 34.2893 231.451 33.5826 231.344 32.9959C231.237 32.4093 231.131 32.0493 231.024 31.9159C232.064 31.7293 233.224 31.2493 234.504 30.4759C235.784 29.6759 237.024 28.6759 238.224 27.4759ZM243.024 32.5559C241.797 32.4493 240.597 32.2759 239.424 32.0359C238.251 31.7693 237.357 31.4759 236.744 31.1559C236.877 32.2759 236.971 33.3293 237.024 34.3159C237.077 35.2759 237.104 36.2493 237.104 37.2359C237.104 38.0093 237.077 38.8893 237.024 39.8759C236.997 40.8359 236.957 41.7826 236.904 42.7159C237.811 42.8226 238.811 42.9693 239.904 43.1559C240.997 43.3426 242.011 43.5826 242.944 43.8759L243.024 32.5559ZM258.094 33.9959C258.707 33.0093 259.28 31.9693 259.814 30.8759C260.347 29.7826 260.84 28.6226 261.294 27.3959C261.8 27.7159 262.52 28.0493 263.454 28.3959C264.387 28.7159 265.414 29.0093 266.534 29.2759C266.4 30.3959 266.16 31.4226 265.814 32.3559C265.467 33.2626 265.027 34.0226 264.494 34.6359L261.814 33.2359H261.334L258.094 37.7959V43.3159C258.094 44.2493 258.254 44.9293 258.574 45.3559C258.92 45.7559 259.52 46.0226 260.374 46.1559V46.8359H251.814V46.2359C252.534 45.9693 252.894 45.1159 252.894 43.6759V29.7159L251.414 29.0759V28.6359C252.347 28.5026 253.36 28.3293 254.454 28.1159C255.547 27.8759 256.52 27.6493 257.374 27.4359L258.094 28.6359V33.9959ZM274.615 28.6359V43.3159C274.615 44.9959 274.975 45.9693 275.695 46.2359V46.8359C274.842 46.9693 274.042 47.1293 273.295 47.3159C272.549 47.5026 271.775 47.7159 270.975 47.9559H270.775C269.869 46.7293 269.415 45.2893 269.415 43.6359V29.7159L267.935 29.0759V28.6359C268.869 28.5026 269.882 28.3293 270.975 28.1159C272.069 27.8759 273.042 27.6493 273.895 27.4359L274.615 28.6359ZM268.295 20.8359C268.749 20.0626 269.295 19.3026 269.935 18.5559C270.602 17.7826 271.335 17.1826 272.135 16.7559C272.295 16.9693 272.535 17.2226 272.855 17.5159C273.202 17.8093 273.562 18.1026 273.935 18.3959C274.335 18.6893 274.709 18.9693 275.055 19.2359C275.429 19.4759 275.709 19.6493 275.895 19.7559C274.989 20.3959 274.215 21.0226 273.575 21.6359C272.962 22.2226 272.429 22.9693 271.975 23.8759C271.815 23.6893 271.562 23.4626 271.215 23.1959C270.895 22.9026 270.549 22.6093 270.175 22.3159C269.802 22.0226 269.442 21.7426 269.095 21.4759C268.749 21.2093 268.482 20.9959 268.295 20.8359ZM284.481 43.0759C285.068 43.1293 285.668 43.1693 286.281 43.1959C286.921 43.2226 287.708 43.3426 288.641 43.5559V37.9159C287.868 38.2093 287.121 38.4626 286.401 38.6759C285.681 38.8626 285.068 38.9826 284.561 39.0359L284.481 43.0759ZM294.801 30.3159C294.375 30.9293 294.095 31.7426 293.961 32.7559C293.855 33.7693 293.801 35.2493 293.801 37.1959C293.801 38.4759 293.828 39.5026 293.881 40.2759C293.961 41.0226 294.068 41.6226 294.201 42.0759C294.335 42.5026 294.521 42.8093 294.761 42.9959C295.001 43.1559 295.295 43.2759 295.641 43.3559V43.7959C295.268 43.9293 294.868 44.1693 294.441 44.5159C294.041 44.8359 293.641 45.1959 293.241 45.5959C292.841 45.9959 292.481 46.4093 292.161 46.8359C291.841 47.2626 291.601 47.6359 291.441 47.9559C290.881 47.5826 290.375 47.0893 289.921 46.4759C289.468 45.8626 289.108 45.2493 288.841 44.6359L286.081 47.9559C285.068 47.3426 283.948 46.8759 282.721 46.5559C281.521 46.2359 280.148 46.0626 278.601 46.0359C278.868 45.3426 279.028 44.4759 279.081 43.4359C279.135 42.3693 279.161 41.3026 279.161 40.2359C279.161 39.5959 279.121 38.9959 279.041 38.4359C278.961 37.8493 278.828 37.3293 278.641 36.8759C279.228 36.9559 279.868 36.9959 280.561 36.9959C281.308 36.9959 282.068 36.9693 282.841 36.9159C283.641 36.8359 284.401 36.7293 285.121 36.5959C285.841 36.4626 286.495 36.3159 287.081 36.1559C287.695 35.9693 288.201 35.7693 288.601 35.5559V31.5959C287.695 31.9959 286.748 32.3293 285.761 32.5959C284.775 32.8626 283.961 32.9959 283.321 32.9959C282.868 32.9959 282.441 32.9559 282.041 32.8759C281.668 32.7693 281.321 32.5826 281.001 32.3159C280.681 32.0226 280.388 31.6226 280.121 31.1159C279.881 30.6093 279.668 29.9559 279.481 29.1559C279.641 29.1559 279.748 29.1693 279.801 29.1959C279.881 29.1959 280.081 29.1959 280.401 29.1959C282.321 29.1959 283.975 29.0226 285.361 28.6759C286.748 28.3293 287.828 27.9293 288.601 27.4759C289.481 28.4359 290.388 29.1559 291.321 29.6359C292.281 30.0893 293.441 30.3159 294.801 30.3159ZM107.88 77.3159C108.36 77.5826 108.8 77.8226 109.2 78.0359C109.6 78.2493 110 78.4493 110.4 78.6359C110.827 78.7959 111.28 78.9426 111.76 79.0759C112.24 79.2093 112.787 79.3293 113.4 79.4359C114.52 78.8759 115.413 78.5159 116.08 78.3559C116.747 78.1693 117.187 78.0093 117.4 77.8759C117.453 75.2893 117.493 72.5826 117.52 69.7559C117.573 66.9026 117.6 64.1959 117.6 61.6359C117.6 60.9693 117.6 60.3159 117.6 59.6759C117.6 59.0093 117.573 58.3693 117.52 57.7559C117.04 57.4893 116.6 57.2493 116.2 57.0359C115.8 56.8226 115.387 56.6359 114.96 56.4759C114.56 56.2893 114.12 56.1293 113.64 55.9959C113.187 55.8626 112.653 55.7426 112.04 55.6359C110.92 56.1959 110.013 56.5826 109.32 56.7959C108.653 57.0093 108.213 57.1826 108 57.3159C107.973 57.9826 107.947 58.7959 107.92 59.7559C107.893 60.6893 107.867 61.7026 107.84 62.7959C107.84 63.8893 107.84 65.0359 107.84 66.2359C107.84 67.4359 107.84 68.6093 107.84 69.7559C107.84 70.9559 107.84 72.2493 107.84 73.6359C107.867 75.0226 107.88 76.2493 107.88 77.3159ZM100.68 67.3559C101.027 66.9826 101.333 66.5159 101.6 65.9559C101.893 65.3693 102.147 64.7426 102.36 64.0759C102.573 63.3826 102.733 62.6626 102.84 61.9159C102.973 61.1693 103.04 60.4359 103.04 59.7159C103.04 58.4893 102.853 57.3293 102.48 56.2359C102.107 55.1426 101.493 54.3426 100.64 53.8359C101.467 53.7826 102.36 53.6759 103.32 53.5159C104.307 53.3559 105.293 53.1559 106.28 52.9159C107.267 52.6759 108.213 52.4226 109.12 52.1559C110.027 51.8626 110.827 51.5559 111.52 51.2359C112.4 51.3693 113.44 51.5959 114.64 51.9159C115.867 52.2093 117.08 52.5159 118.28 52.8359C119.48 53.1559 120.573 53.4493 121.56 53.7159C122.573 53.9826 123.307 54.1293 123.76 54.1559C123.387 54.7693 123.12 55.5426 122.96 56.4759C122.8 57.3826 122.72 58.3293 122.72 59.3159C122.72 60.8093 122.907 62.3026 123.28 63.7959C123.653 65.2626 124.187 66.4626 124.88 67.3959C124.213 68.2226 123.667 69.3559 123.24 70.7959C122.813 72.2093 122.6 73.6759 122.6 75.1959C122.6 76.4226 122.787 77.5693 123.16 78.6359C123.533 79.7026 124.147 80.5026 125 81.0359C124.173 81.0893 123.253 81.1959 122.24 81.3559C121.253 81.5159 120.253 81.7159 119.24 81.9559C118.253 82.1959 117.293 82.4493 116.36 82.7159C115.427 83.0093 114.627 83.3159 113.96 83.6359C113.08 83.5293 112.04 83.3293 110.84 83.0359C109.64 82.7426 108.44 82.4359 107.24 82.1159C106.067 81.7959 104.987 81.5026 104 81.2359C103.013 80.9426 102.307 80.7693 101.88 80.7159C102.253 80.3693 102.507 79.8093 102.64 79.0359C102.8 78.2359 102.88 77.3293 102.88 76.3159C102.88 75.3826 102.813 74.4093 102.68 73.3959C102.573 72.3559 102.413 71.4093 102.2 70.5559C102.013 69.6759 101.787 68.9426 101.52 68.3559C101.253 67.7693 100.973 67.4359 100.68 67.3559ZM134.616 66.9559C135.763 66.2093 136.79 65.4626 137.696 64.7159C138.603 63.9693 139.536 63.0893 140.496 62.0759C140.95 62.5026 141.363 62.8893 141.736 63.2359C142.11 63.5559 142.483 63.8493 142.856 64.1159C143.256 64.3826 143.67 64.6493 144.096 64.9159C144.523 65.1559 145.016 65.4093 145.576 65.6759C145.47 66.0493 145.376 66.4493 145.296 66.8759C145.243 67.2759 145.19 67.7959 145.136 68.4359C145.11 69.0759 145.083 69.8626 145.056 70.7959C145.03 71.7293 145.016 72.8893 145.016 74.2759C145.016 75.4493 145.016 76.4226 145.016 77.1959C145.043 77.9426 145.07 78.5559 145.096 79.0359C145.123 79.5159 145.163 79.9159 145.216 80.2359C145.27 80.5293 145.323 80.8093 145.376 81.0759C144.843 81.2626 144.296 81.5159 143.736 81.8359C143.203 82.1559 142.656 82.5159 142.096 82.9159C141.563 83.3159 141.056 83.7293 140.576 84.1559C140.096 84.5826 139.67 84.9959 139.296 85.3959L139.056 85.1559C139.216 84.6226 139.363 83.9559 139.496 83.1559C139.63 82.3826 139.736 81.6093 139.816 80.8359C139.896 80.0359 139.963 79.3026 140.016 78.6359C140.07 77.9693 140.096 77.4893 140.096 77.1959C140.096 75.6759 140.083 74.1559 140.056 72.6359C140.056 71.1159 140.056 69.5959 140.056 68.0759L139.536 67.5159L134.616 69.7159V78.3159C134.616 79.9959 134.976 80.9693 135.696 81.2359V81.8359H128.336V81.2359C128.656 81.1026 128.91 80.8359 129.096 80.4359C129.31 80.0093 129.416 79.4226 129.416 78.6759V64.7159L127.936 64.0759V63.6359C128.87 63.5026 129.883 63.3293 130.976 63.1159C132.07 62.8759 133.043 62.6493 133.896 62.4359L134.616 63.6359V66.9559ZM148.275 82.6759C148.968 82.3293 149.488 81.7559 149.835 80.9559C150.181 80.1559 150.355 79.2226 150.355 78.1559V57.6359C150.355 56.9693 150.341 56.3693 150.315 55.8359C150.288 55.3026 150.221 54.8093 150.115 54.3559C150.035 53.9026 149.915 53.4626 149.755 53.0359C149.595 52.6093 149.395 52.1693 149.155 51.7159C149.688 51.9026 150.315 51.9959 151.035 51.9959C151.915 51.9959 152.835 51.8493 153.795 51.5559C154.781 51.2626 155.835 50.8493 156.955 50.3159C156.421 50.9559 156.048 51.8093 155.835 52.8759C155.648 53.9426 155.555 55.1693 155.555 56.5559V75.9159C155.555 77.0093 155.595 77.9159 155.675 78.6359C155.755 79.3559 155.888 79.9959 156.075 80.5559C156.288 81.1159 156.581 81.6493 156.955 82.1559C157.328 82.6893 157.795 83.3159 158.355 84.0359L158.115 84.3959C157.395 84.0493 156.795 83.7693 156.315 83.5559C155.835 83.3693 155.421 83.1959 155.075 83.0359C154.755 82.8759 154.461 82.7026 154.195 82.5159C153.955 82.3559 153.701 82.1293 153.435 81.8359C152.661 82.1559 151.821 82.4226 150.915 82.6359C150.035 82.8493 149.168 82.9559 148.315 82.9559L148.275 82.6759ZM166.334 63.6359V78.3159C166.334 79.9959 166.694 80.9693 167.414 81.2359V81.8359C166.561 81.9693 165.761 82.1293 165.014 82.3159C164.267 82.5026 163.494 82.7159 162.694 82.9559H162.494C161.587 81.7293 161.134 80.2893 161.134 78.6359V64.7159L159.654 64.0759V63.6359C160.587 63.5026 161.601 63.3293 162.694 63.1159C163.787 62.8759 164.761 62.6493 165.614 62.4359L166.334 63.6359ZM160.014 55.8359C160.467 55.0626 161.014 54.3026 161.654 53.5559C162.321 52.7826 163.054 52.1826 163.854 51.7559C164.014 51.9693 164.254 52.2226 164.574 52.5159C164.921 52.8093 165.281 53.1026 165.654 53.3959C166.054 53.6893 166.427 53.9693 166.774 54.2359C167.147 54.4759 167.427 54.6493 167.614 54.7559C166.707 55.3959 165.934 56.0226 165.294 56.6359C164.681 57.2226 164.147 57.9693 163.694 58.8759C163.534 58.6893 163.281 58.4626 162.934 58.1959C162.614 57.9026 162.267 57.6093 161.894 57.3159C161.521 57.0226 161.161 56.7426 160.814 56.4759C160.467 56.2093 160.201 55.9959 160.014 55.8359ZM176.96 66.9559C178.107 66.2093 179.133 65.4626 180.04 64.7159C180.947 63.9693 181.88 63.0893 182.84 62.0759C183.293 62.5026 183.707 62.8893 184.08 63.2359C184.453 63.5559 184.827 63.8493 185.2 64.1159C185.6 64.3826 186.013 64.6493 186.44 64.9159C186.867 65.1559 187.36 65.4093 187.92 65.6759C187.813 66.0493 187.72 66.4493 187.64 66.8759C187.587 67.2759 187.533 67.7959 187.48 68.4359C187.453 69.0759 187.427 69.8626 187.4 70.7959C187.373 71.7293 187.36 72.8893 187.36 74.2759C187.36 75.4493 187.36 76.4226 187.36 77.1959C187.387 77.9426 187.413 78.5559 187.44 79.0359C187.467 79.5159 187.507 79.9159 187.56 80.2359C187.613 80.5293 187.667 80.8093 187.72 81.0759C187.187 81.2626 186.64 81.5159 186.08 81.8359C185.547 82.1559 185 82.5159 184.44 82.9159C183.907 83.3159 183.4 83.7293 182.92 84.1559C182.44 84.5826 182.013 84.9959 181.64 85.3959L181.4 85.1559C181.56 84.6226 181.707 83.9559 181.84 83.1559C181.973 82.3826 182.08 81.6093 182.16 80.8359C182.24 80.0359 182.307 79.3026 182.36 78.6359C182.413 77.9693 182.44 77.4893 182.44 77.1959C182.44 75.6759 182.427 74.1559 182.4 72.6359C182.4 71.1159 182.4 69.5959 182.4 68.0759L181.88 67.5159L176.96 69.7159V78.3159C176.96 79.9959 177.32 80.9693 178.04 81.2359V81.8359H170.68V81.2359C171 81.1026 171.253 80.8359 171.44 80.4359C171.653 80.0093 171.76 79.4226 171.76 78.6759V64.7159L170.28 64.0759V63.6359C171.213 63.5026 172.227 63.3293 173.32 63.1159C174.413 62.8759 175.387 62.6493 176.24 62.4359L176.96 63.6359V66.9559ZM199.338 83.1159C198.832 82.7426 198.205 82.3959 197.458 82.0759C196.712 81.7559 195.938 81.4893 195.138 81.2759C194.365 81.0359 193.605 80.8493 192.858 80.7159C192.138 80.5826 191.538 80.5159 191.058 80.5159C191.272 80.1693 191.458 79.6893 191.618 79.0759C191.778 78.4359 191.898 77.7559 191.978 77.0359C192.085 76.2893 192.152 75.5293 192.178 74.7559C192.232 73.9826 192.258 73.2759 192.258 72.6359C192.258 71.0093 192.152 69.6626 191.938 68.5959C191.752 67.5026 191.565 66.6493 191.378 66.0359C192.525 65.8226 193.565 65.4093 194.498 64.7959C195.458 64.1826 196.405 63.4093 197.338 62.4759C198.432 62.6893 199.778 62.8759 201.378 63.0359C202.978 63.1693 204.565 63.2626 206.138 63.3159C206.058 63.7959 206.018 64.3959 206.018 65.1159C206.018 65.6759 206.045 66.2893 206.098 66.9559C206.152 67.5959 206.218 68.2359 206.298 68.8759C206.378 69.5159 206.485 70.1293 206.618 70.7159C206.752 71.3026 206.898 71.8093 207.058 72.2359C205.432 72.3693 203.778 72.5559 202.098 72.7959C200.418 73.0093 198.778 73.2493 197.178 73.5159C197.152 74.2893 197.098 75.0493 197.018 75.7959C196.938 76.5426 196.872 77.1959 196.818 77.7559C197.138 77.8893 197.538 78.0093 198.018 78.1159C198.525 78.2226 199.058 78.3293 199.618 78.4359C200.178 78.5159 200.725 78.5959 201.258 78.6759C201.792 78.7293 202.245 78.7693 202.618 78.7959C202.752 77.9693 203.072 77.2626 203.578 76.6759C204.112 76.0893 205.005 75.6093 206.258 75.2359C206.232 75.5559 206.218 75.8759 206.218 76.1959C206.218 76.4893 206.218 76.7826 206.218 77.0759C206.218 77.9826 206.245 78.7026 206.298 79.2359C206.378 79.7426 206.512 80.2493 206.698 80.7559C206.192 80.8093 205.592 80.9159 204.898 81.0759C204.205 81.2093 203.512 81.3959 202.818 81.6359C202.125 81.8493 201.458 82.0759 200.818 82.3159C200.205 82.5826 199.712 82.8493 199.338 83.1159ZM196.778 66.0759C196.912 67.1959 197.005 68.1826 197.058 69.0359C197.138 69.8893 197.192 70.6759 197.218 71.3959L201.898 70.2359C201.765 69.7026 201.645 69.1426 201.538 68.5559C201.458 67.9693 201.418 67.3693 201.418 66.7559C200.805 66.7559 200.058 66.7026 199.178 66.5959C198.325 66.4626 197.525 66.2893 196.778 66.0759Z" fill="#1E1D1D"/>
</g>
<path d="M59.6782 75.8366C68.0014 59.7178 85.5011 71.8367 96.001 50.8367" stroke="#B20000" stroke-width="2.5" stroke-dasharray="5 5"/>
<defs>
<filter id="filter0_d_235_13" x="14.0732" y="53.1035" width="67.9092" height="66.228" filterUnits="userSpaceOnUse" color-interpolation-filters="sRGB">
<feFlood flood-opacity="0" result="BackgroundImageFix"/>
<feColorMatrix in="SourceAlpha" type="matrix" values="0 0 0 0 0 0 0 0 0 0 0 0 0 0 0 0 0 0 127 0" result="hardAlpha"/>
<feOffset dy="5"/>
<feGaussianBlur stdDeviation="2.5"/>
<feComposite in2="hardAlpha" operator="out"/>
<feColorMatrix type="matrix" values="0 0 0 0 0 0 0 0 0 0 0 0 0 0 0 0 0 0 0.5 0"/>
<feBlend mode="normal" in2="BackgroundImageFix" result="effect1_dropShadow_235_13"/>
<feBlend mode="normal" in="SourceGraphic" in2="effect1_dropShadow_235_13" result="shape"/>
</filter>
<filter id="filter1_d_235_13" x="93.5596" y="15.3159" width="203.082" height="79.0801" filterUnits="userSpaceOnUse" color-interpolation-filters="sRGB">
<feFlood flood-opacity="0" result="BackgroundImageFix"/>
<feColorMatrix in="SourceAlpha" type="matrix" values="0 0 0 0 0 0 0 0 0 0 0 0 0 0 0 0 0 0 127 0" result="hardAlpha"/>
<feOffset dx="-3" dy="5"/>
<feGaussianBlur stdDeviation="2"/>
<feComposite in2="hardAlpha" operator="out"/>
<feColorMatrix type="matrix" values="0 0 0 0 0 0 0 0 0 0 0 0 0 0 0 0 0 0 0.2 0"/>
<feBlend mode="normal" in2="BackgroundImageFix" result="effect1_dropShadow_235_13"/>
<feBlend mode="normal" in="SourceGraphic" in2="effect1_dropShadow_235_13" result="shape"/>
</filter>
</defs>
</svg>
