<svg width="443" height="160" viewBox="0 0 443 160" fill="none" xmlns="http://www.w3.org/2000/svg">
<g style="mix-blend-mode:color-burn" filter="url(#filter0_d_333_163)">
<path d="M36.0659 109.168L43.6847 79.4828L45.6691 84.462L19.738 69.6963L30.004 65.4227L48.2819 76.0094L44.3675 77.6389L49.3543 57.3673L59.3248 53.2167L52.0207 81.8179L49.9625 76.8694L76.9821 92.135L66.5684 96.4701L47.286 85.1752L51.3493 84.0902L46.258 104.925L36.0659 109.168Z" fill="#8F0000"/>
</g>
<g style="mix-blend-mode:darken" filter="url(#filter1_d_333_163)">
<path d="M156.92 53.24C155.4 52.7067 153.893 52.12 152.4 51.48C150.933 50.8667 149.48 50.1333 148.04 49.28C147.693 49.6267 147.387 49.92 147.12 50.16C146.853 50.4 146.573 50.6133 146.28 50.8C145.987 50.96 145.667 51.0933 145.32 51.2C145 51.3333 144.613 51.4533 144.16 51.56C144.427 51.24 144.613 50.8533 144.72 50.4C144.827 49.9467 144.88 49.48 144.88 49C144.88 48.2267 144.773 47.48 144.56 46.76C144.373 46.0133 144.2 45.3867 144.04 44.88L143.08 41.84C142.307 42.8533 141.533 43.9733 140.76 45.2C140.013 46.4267 139.36 47.6 138.8 48.72C138.347 48.08 137.733 47.1733 136.96 46C136.213 44.8267 135.373 43.56 134.44 42.2L133.8 44.28C133.64 44.8133 133.507 45.3467 133.4 45.88C133.32 46.4133 133.28 46.96 133.28 47.52C133.28 48.3467 133.387 49.16 133.6 49.96C133.813 50.76 134.16 51.5067 134.64 52.2C134.107 52.0133 133.653 51.8267 133.28 51.64C132.933 51.4533 132.6 51.24 132.28 51C131.987 50.76 131.68 50.5067 131.36 50.24C131.067 49.9467 130.72 49.6133 130.32 49.24C129.2 50.3067 128.093 51.0533 127 51.48C125.907 51.9333 124.68 52.1733 123.32 52.2C123.827 52.12 124.36 51.7867 124.92 51.2C125.48 50.64 126.027 49.9067 126.56 49C127.093 48.0667 127.6 47.0133 128.08 45.84C128.587 44.6667 129.027 43.4267 129.4 42.12L130.68 37.64C129.747 36.6533 128.733 35.8133 127.64 35.12C126.547 34.4 125.56 34.04 124.68 34.04C124.627 34.04 124.56 34.04 124.48 34.04C124.4 34.04 124.24 34.0533 124 34.08L123.96 33.96C125.107 33.3733 126.173 33.08 127.16 33.08C127.827 33.08 128.507 33.2133 129.2 33.48C129.893 33.72 130.693 34.0933 131.6 34.6L133.76 27.2C133.893 26.7467 133.987 26.3467 134.04 26C134.093 25.6533 134.12 25.3733 134.12 25.16C134.12 24.6 133.947 24.2 133.6 23.96C133.28 23.72 132.693 23.6 131.84 23.6C131.307 23.6 130.733 23.64 130.12 23.72C129.507 23.8 128.773 23.92 127.92 24.08C128.08 23.84 128.467 23.56 129.08 23.24C129.693 22.92 130.427 22.6133 131.28 22.32C132.16 22.0267 133.093 21.7867 134.08 21.6C135.093 21.3867 136.067 21.28 137 21.28C137.693 21.28 138.36 21.36 139 21.52C139.64 21.68 140.12 21.96 140.44 22.36C140.92 22.3333 141.44 22.2667 142 22.16C142.56 22.0533 143.093 21.9333 143.6 21.8C144.107 21.64 144.56 21.4933 144.96 21.36C145.36 21.2 145.627 21.08 145.76 21C145.387 21.5333 145.107 22.1733 144.92 22.92C144.76 23.64 144.68 24.4267 144.68 25.28C144.68 26.3733 144.8 27.52 145.04 28.72C145.28 29.8933 145.56 30.9867 145.88 32C146.227 33.0133 146.587 33.88 146.96 34.6C147.333 35.32 147.653 35.76 147.92 35.92C147.92 37.4933 148.187 39.16 148.72 40.92C149.28 42.68 149.987 44.36 150.84 45.96C151.72 47.56 152.693 49 153.76 50.28C154.853 51.5333 155.92 52.48 156.96 53.12L156.92 53.24ZM138.76 42.16C139.213 41.5467 139.72 40.8933 140.28 40.2C140.867 39.48 141.4 38.7733 141.88 38.08L138.8 28.08L135.64 38.4C136.173 38.96 136.707 39.5867 137.24 40.28C137.8 40.9733 138.307 41.6 138.76 42.16ZM161.179 36.12C162.325 35.3733 163.352 34.6267 164.259 33.88C165.165 33.1333 166.099 32.2533 167.059 31.24C167.512 31.6667 167.925 32.0533 168.299 32.4C168.672 32.72 169.045 33.0133 169.419 33.28C169.819 33.5467 170.232 33.8133 170.659 34.08C171.085 34.32 171.579 34.5733 172.139 34.84C172.032 35.2133 171.939 35.6133 171.859 36.04C171.805 36.44 171.752 36.96 171.699 37.6C171.672 38.24 171.645 39.0267 171.619 39.96C171.592 40.8933 171.579 42.0533 171.579 43.44C171.579 44.6133 171.579 45.5867 171.579 46.36C171.605 47.1067 171.632 47.72 171.659 48.2C171.685 48.68 171.725 49.08 171.779 49.4C171.832 49.6933 171.885 49.9733 171.939 50.24C171.405 50.4267 170.859 50.68 170.299 51C169.765 51.32 169.219 51.68 168.659 52.08C168.125 52.48 167.619 52.8933 167.139 53.32C166.659 53.7467 166.232 54.16 165.859 54.56L165.619 54.32C165.779 53.7867 165.925 53.12 166.059 52.32C166.192 51.5467 166.299 50.7733 166.379 50C166.459 49.2 166.525 48.4667 166.579 47.8C166.632 47.1333 166.659 46.6533 166.659 46.36C166.659 44.84 166.645 43.32 166.619 41.8C166.619 40.28 166.619 38.76 166.619 37.24L166.099 36.68L161.179 38.88V47.48C161.179 49.16 161.539 50.1333 162.259 50.4V51H154.899V50.4C155.219 50.2667 155.472 50 155.659 49.6C155.872 49.1733 155.979 48.5867 155.979 47.84V33.88L154.499 33.24V32.8C155.432 32.6667 156.445 32.4933 157.539 32.28C158.632 32.04 159.605 31.8133 160.459 31.6L161.179 32.8V36.12ZM181.317 47.24C181.904 47.2933 182.504 47.3333 183.117 47.36C183.757 47.3867 184.544 47.5067 185.477 47.72V42.08C184.704 42.3733 183.957 42.6267 183.237 42.84C182.517 43.0267 181.904 43.1467 181.397 43.2L181.317 47.24ZM191.637 34.48C191.211 35.0933 190.931 35.9067 190.797 36.92C190.691 37.9333 190.637 39.4133 190.637 41.36C190.637 42.64 190.664 43.6667 190.717 44.44C190.797 45.1867 190.904 45.7867 191.037 46.24C191.171 46.6667 191.357 46.9733 191.597 47.16C191.837 47.32 192.131 47.44 192.477 47.52V47.96C192.104 48.0933 191.704 48.3333 191.277 48.68C190.877 49 190.477 49.36 190.077 49.76C189.677 50.16 189.317 50.5733 188.997 51C188.677 51.4267 188.437 51.8 188.277 52.12C187.717 51.7467 187.211 51.2533 186.757 50.64C186.304 50.0267 185.944 49.4133 185.677 48.8L182.917 52.12C181.904 51.5067 180.784 51.04 179.557 50.72C178.357 50.4 176.984 50.2267 175.437 50.2C175.704 49.5067 175.864 48.64 175.917 47.6C175.971 46.5333 175.997 45.4667 175.997 44.4C175.997 43.76 175.957 43.16 175.877 42.6C175.797 42.0133 175.664 41.4933 175.477 41.04C176.064 41.12 176.704 41.16 177.397 41.16C178.144 41.16 178.904 41.1333 179.677 41.08C180.477 41 181.237 40.8933 181.957 40.76C182.677 40.6267 183.331 40.48 183.917 40.32C184.531 40.1333 185.037 39.9333 185.437 39.72V35.76C184.531 36.16 183.584 36.4933 182.597 36.76C181.611 37.0267 180.797 37.16 180.157 37.16C179.704 37.16 179.277 37.12 178.877 37.04C178.504 36.9333 178.157 36.7467 177.837 36.48C177.517 36.1867 177.224 35.7867 176.957 35.28C176.717 34.7733 176.504 34.12 176.317 33.32C176.477 33.32 176.584 33.3333 176.637 33.36C176.717 33.36 176.917 33.36 177.237 33.36C179.157 33.36 180.811 33.1867 182.197 32.84C183.584 32.4933 184.664 32.0933 185.437 31.64C186.317 32.6 187.224 33.32 188.157 33.8C189.117 34.2533 190.277 34.48 191.637 34.48ZM193.939 51.84C194.632 51.4933 195.152 50.92 195.499 50.12C195.845 49.32 196.019 48.3867 196.019 47.32V26.8C196.019 26.1333 196.005 25.5333 195.979 25C195.952 24.4667 195.885 23.9733 195.779 23.52C195.699 23.0667 195.579 22.6267 195.419 22.2C195.259 21.7733 195.059 21.3333 194.819 20.88C195.352 21.0667 195.979 21.16 196.699 21.16C197.579 21.16 198.499 21.0133 199.459 20.72C200.445 20.4267 201.499 20.0133 202.619 19.48C202.085 20.12 201.712 20.9733 201.499 22.04C201.312 23.1067 201.219 24.3333 201.219 25.72V45.08C201.219 46.1733 201.259 47.08 201.339 47.8C201.419 48.52 201.552 49.16 201.739 49.72C201.952 50.28 202.245 50.8133 202.619 51.32C202.992 51.8533 203.459 52.48 204.019 53.2L203.779 53.56C203.059 53.2133 202.459 52.9333 201.979 52.72C201.499 52.5333 201.085 52.36 200.739 52.2C200.419 52.04 200.125 51.8667 199.859 51.68C199.619 51.52 199.365 51.2933 199.099 51C198.325 51.32 197.485 51.5867 196.579 51.8C195.699 52.0133 194.832 52.12 193.979 52.12L193.939 51.84ZM211.998 32.8V47.48C211.998 49.16 212.358 50.1333 213.078 50.4V51C212.225 51.1333 211.425 51.2933 210.678 51.48C209.931 51.6667 209.158 51.88 208.358 52.12H208.158C207.251 50.8933 206.798 49.4533 206.798 47.8V33.88L205.318 33.24V32.8C206.251 32.6667 207.265 32.4933 208.358 32.28C209.451 32.04 210.425 31.8133 211.278 31.6L211.998 32.8ZM205.678 25C206.131 24.2267 206.678 23.4667 207.318 22.72C207.985 21.9467 208.718 21.3467 209.518 20.92C209.678 21.1333 209.918 21.3867 210.238 21.68C210.585 21.9733 210.945 22.2667 211.318 22.56C211.718 22.8533 212.091 23.1333 212.438 23.4C212.811 23.64 213.091 23.8133 213.278 23.92C212.371 24.56 211.598 25.1867 210.958 25.8C210.345 26.3867 209.811 27.1333 209.358 28.04C209.198 27.8533 208.945 27.6267 208.598 27.36C208.278 27.0667 207.931 26.7733 207.558 26.48C207.185 26.1867 206.825 25.9067 206.478 25.64C206.131 25.3733 205.865 25.16 205.678 25ZM222.264 34.88C222.211 35.3067 222.171 35.72 222.144 36.12C222.144 36.52 222.144 36.9867 222.144 37.52C222.144 38.0533 222.157 38.5867 222.184 39.12C222.211 39.6533 222.251 40.1333 222.304 40.56C222.811 40.3733 223.331 40.2133 223.864 40.08C224.424 39.9467 225.037 39.8267 225.704 39.72C226.397 39.6133 227.171 39.52 228.024 39.44C228.877 39.36 229.877 39.28 231.024 39.2C230.944 40.1333 230.904 41.4933 230.904 43.28C230.904 44.8 230.931 46.16 230.984 47.36C231.037 48.5333 231.131 49.4267 231.264 50.04C230.437 50.04 229.597 50.0933 228.744 50.2C227.891 50.3067 227.077 50.4533 226.304 50.64C225.531 50.8267 224.811 51.0533 224.144 51.32C223.477 51.5867 222.917 51.88 222.464 52.2C222.144 51.9067 221.784 51.6533 221.384 51.44C221.011 51.2267 220.557 51.0533 220.024 50.92C219.491 50.76 218.864 50.64 218.144 50.56C217.424 50.4533 216.571 50.3733 215.584 50.32C215.637 49.4933 215.797 48.6533 216.064 47.8C216.357 46.92 216.717 46.2133 217.144 45.68C217.757 45.68 218.717 45.9067 220.024 46.36C221.331 46.8133 223.064 47.52 225.224 48.48C225.384 47.6267 225.504 46.8533 225.584 46.16C225.664 45.44 225.704 44.6933 225.704 43.92C225.704 43.44 225.704 43.0933 225.704 42.88C225.704 42.6667 225.691 42.4667 225.664 42.28C224.491 42.3867 223.131 42.5867 221.584 42.88C220.037 43.1467 218.584 43.4667 217.224 43.84C217.331 42.6933 217.397 41.8133 217.424 41.2C217.451 40.56 217.464 39.9867 217.464 39.48C217.464 38.28 217.397 37.2267 217.264 36.32C217.157 35.4133 216.971 34.5733 216.704 33.8C217.717 33.8 218.811 33.6267 219.984 33.28C221.157 32.9333 222.624 32.3867 224.384 31.64C226.064 32.4933 228.571 33.04 231.904 33.28C231.424 34.4267 230.877 35.2667 230.264 35.8C229.651 36.3067 228.891 36.56 227.984 36.56C227.584 36.56 227.131 36.52 226.624 36.44C226.117 36.36 225.597 36.24 225.064 36.08C224.557 35.92 224.051 35.7467 223.544 35.56C223.064 35.3467 222.637 35.12 222.264 34.88ZM241.823 35.64V44.48C241.823 45.8667 242.156 46.9067 242.823 47.6C243.516 48.2933 244.369 48.6667 245.383 48.72V49.28C244.929 49.44 244.449 49.64 243.943 49.88C243.436 50.12 242.943 50.3733 242.463 50.64C241.983 50.88 241.529 51.1333 241.103 51.4C240.676 51.6667 240.343 51.9067 240.103 52.12C239.489 51.7467 238.863 51.3867 238.223 51.04C237.583 50.6933 237.049 50.4133 236.623 50.2V35.32H233.303V34.88C234.476 34.4267 235.583 33.7333 236.623 32.8V31.52C236.623 31.3067 236.596 30.9733 236.543 30.52C236.516 30.04 236.476 29.56 236.423 29.08C236.369 28.5733 236.303 28.12 236.223 27.72C236.143 27.2933 236.049 27.0133 235.943 26.88C237.143 26.8 238.249 26.56 239.263 26.16C240.276 25.76 241.356 25.2533 242.503 24.64C242.396 24.9067 242.303 25.32 242.223 25.88C242.143 26.44 242.063 27.04 241.983 27.68C241.929 28.2933 241.889 28.8933 241.863 29.48C241.836 30.04 241.823 30.44 241.823 30.68V32.8H247.463V32.96C247.036 33.4133 246.649 33.92 246.303 34.48C245.983 35.04 245.756 35.5867 245.623 36.12L241.823 35.64ZM254.169 47.24C254.755 47.2933 255.355 47.3333 255.969 47.36C256.609 47.3867 257.395 47.5067 258.329 47.72V42.08C257.555 42.3733 256.809 42.6267 256.089 42.84C255.369 43.0267 254.755 43.1467 254.249 43.2L254.169 47.24ZM264.489 34.48C264.062 35.0933 263.782 35.9067 263.649 36.92C263.542 37.9333 263.489 39.4133 263.489 41.36C263.489 42.64 263.515 43.6667 263.569 44.44C263.649 45.1867 263.755 45.7867 263.889 46.24C264.022 46.6667 264.209 46.9733 264.449 47.16C264.689 47.32 264.982 47.44 265.329 47.52V47.96C264.955 48.0933 264.555 48.3333 264.129 48.68C263.729 49 263.329 49.36 262.929 49.76C262.529 50.16 262.169 50.5733 261.849 51C261.529 51.4267 261.289 51.8 261.129 52.12C260.569 51.7467 260.062 51.2533 259.609 50.64C259.155 50.0267 258.795 49.4133 258.529 48.8L255.769 52.12C254.755 51.5067 253.635 51.04 252.409 50.72C251.209 50.4 249.835 50.2267 248.289 50.2C248.555 49.5067 248.715 48.64 248.769 47.6C248.822 46.5333 248.849 45.4667 248.849 44.4C248.849 43.76 248.809 43.16 248.729 42.6C248.649 42.0133 248.515 41.4933 248.329 41.04C248.915 41.12 249.555 41.16 250.249 41.16C250.995 41.16 251.755 41.1333 252.529 41.08C253.329 41 254.089 40.8933 254.809 40.76C255.529 40.6267 256.182 40.48 256.769 40.32C257.382 40.1333 257.889 39.9333 258.289 39.72V35.76C257.382 36.16 256.435 36.4933 255.449 36.76C254.462 37.0267 253.649 37.16 253.009 37.16C252.555 37.16 252.129 37.12 251.729 37.04C251.355 36.9333 251.009 36.7467 250.689 36.48C250.369 36.1867 250.075 35.7867 249.809 35.28C249.569 34.7733 249.355 34.12 249.169 33.32C249.329 33.32 249.435 33.3333 249.489 33.36C249.569 33.36 249.769 33.36 250.089 33.36C252.009 33.36 253.662 33.1867 255.049 32.84C256.435 32.4933 257.515 32.0933 258.289 31.64C259.169 32.6 260.075 33.32 261.009 33.8C261.969 34.2533 263.129 34.48 264.489 34.48ZM293.735 40.4C293.735 41.8933 293.761 43.08 293.815 43.96C293.868 44.84 293.961 45.5333 294.095 46.04C294.255 46.52 294.441 46.8667 294.655 47.08C294.895 47.2667 295.188 47.4133 295.535 47.52V47.96C295.161 48.0933 294.761 48.3333 294.335 48.68C293.935 49 293.535 49.36 293.135 49.76C292.735 50.16 292.375 50.5733 292.055 51C291.735 51.4267 291.495 51.8 291.335 52.12C290.775 51.7467 290.268 51.2533 289.815 50.64C289.361 50.0267 289.001 49.4133 288.735 48.8C288.255 49.12 287.708 49.44 287.095 49.76C286.481 50.08 285.828 50.3867 285.135 50.68C284.468 50.9467 283.775 51.1867 283.055 51.4C282.335 51.64 281.641 51.84 280.975 52C280.335 51.3067 279.641 50.7333 278.895 50.28C278.148 49.8267 277.388 49.4933 276.615 49.28C276.908 48.16 277.081 47.1067 277.135 46.12C277.188 45.1067 277.215 44.0933 277.215 43.08C277.215 41.8 277.201 40.7067 277.175 39.8C277.148 38.8667 277.095 38.08 277.015 37.44C276.961 36.7733 276.895 36.24 276.815 35.84C276.735 35.4133 276.641 35.0667 276.535 34.8C277.735 34.5867 278.948 34.1867 280.175 33.6C281.428 32.9867 282.668 32.2533 283.895 31.4C284.721 31.7467 285.495 32.0133 286.215 32.2C286.935 32.3867 287.708 32.52 288.535 32.6V26.8C288.535 26.1333 288.521 25.5333 288.495 25C288.468 24.4667 288.401 23.9733 288.295 23.52C288.215 23.0667 288.095 22.6267 287.935 22.2C287.775 21.7733 287.575 21.3333 287.335 20.88C287.868 21.0667 288.495 21.16 289.215 21.16C290.095 21.16 291.015 21.0133 291.975 20.72C292.961 20.4267 294.015 20.0133 295.135 19.48C294.601 20.12 294.228 20.9733 294.015 22.04C293.828 23.1067 293.735 24.3333 293.735 25.72V40.4ZM285.215 35.36C284.895 35.6533 284.455 35.9867 283.895 36.36C283.361 36.7067 282.881 36.9733 282.455 37.16C282.508 37.7467 282.535 38.5467 282.535 39.56C282.561 40.5467 282.575 41.4933 282.575 42.4C282.575 43.2533 282.548 44.1067 282.495 44.96C282.468 45.8133 282.428 46.6 282.375 47.32C282.908 47.2933 283.468 47.2267 284.055 47.12C284.668 46.9867 285.255 46.84 285.815 46.68C286.375 46.52 286.895 46.3467 287.375 46.16C287.855 45.9467 288.241 45.7467 288.535 45.56V36.16C288.108 36.1333 287.575 36.04 286.935 35.88C286.295 35.72 285.721 35.5467 285.215 35.36ZM305.862 52.28C305.355 51.9067 304.729 51.56 303.982 51.24C303.235 50.92 302.462 50.6533 301.662 50.44C300.889 50.2 300.129 50.0133 299.382 49.88C298.662 49.7467 298.062 49.68 297.582 49.68C297.795 49.3333 297.982 48.8533 298.142 48.24C298.302 47.6 298.422 46.92 298.502 46.2C298.609 45.4533 298.675 44.6933 298.702 43.92C298.755 43.1467 298.782 42.44 298.782 41.8C298.782 40.1733 298.675 38.8267 298.462 37.76C298.275 36.6667 298.089 35.8133 297.902 35.2C299.049 34.9867 300.089 34.5733 301.022 33.96C301.982 33.3467 302.929 32.5733 303.862 31.64C304.955 31.8533 306.302 32.04 307.902 32.2C309.502 32.3333 311.089 32.4267 312.662 32.48C312.582 32.96 312.542 33.56 312.542 34.28C312.542 34.84 312.569 35.4533 312.622 36.12C312.675 36.76 312.742 37.4 312.822 38.04C312.902 38.68 313.009 39.2933 313.142 39.88C313.275 40.4667 313.422 40.9733 313.582 41.4C311.955 41.5333 310.302 41.72 308.622 41.96C306.942 42.1733 305.302 42.4133 303.702 42.68C303.675 43.4533 303.622 44.2133 303.542 44.96C303.462 45.7067 303.395 46.36 303.342 46.92C303.662 47.0533 304.062 47.1733 304.542 47.28C305.049 47.3867 305.582 47.4933 306.142 47.6C306.702 47.68 307.249 47.76 307.782 47.84C308.315 47.8933 308.769 47.9333 309.142 47.96C309.275 47.1333 309.595 46.4267 310.102 45.84C310.635 45.2533 311.529 44.7733 312.782 44.4C312.755 44.72 312.742 45.04 312.742 45.36C312.742 45.6533 312.742 45.9467 312.742 46.24C312.742 47.1467 312.769 47.8667 312.822 48.4C312.902 48.9067 313.035 49.4133 313.222 49.92C312.715 49.9733 312.115 50.08 311.422 50.24C310.729 50.3733 310.035 50.56 309.342 50.8C308.649 51.0133 307.982 51.24 307.342 51.48C306.729 51.7467 306.235 52.0133 305.862 52.28ZM303.302 35.24C303.435 36.36 303.529 37.3467 303.582 38.2C303.662 39.0533 303.715 39.84 303.742 40.56L308.422 39.4C308.289 38.8667 308.169 38.3067 308.062 37.72C307.982 37.1333 307.942 36.5333 307.942 35.92C307.329 35.92 306.582 35.8667 305.702 35.76C304.849 35.6267 304.049 35.4533 303.302 35.24ZM145.48 66.56C144.947 66.1867 144.493 65.8133 144.12 65.44C143.773 65.04 143.48 64.6133 143.24 64.16C143 63.7067 142.8 63.2133 142.64 62.68C142.48 62.1467 142.347 61.56 142.24 60.92C141.867 60.6267 141.267 60.44 140.44 60.36C139.613 60.28 138.773 60.24 137.92 60.24C137.227 60.24 136.627 60.2533 136.12 60.28C135.613 60.3067 135.173 60.32 134.8 60.32C134.56 60.9867 134.4 62.1333 134.32 63.76C134.24 65.36 134.2 67.2 134.2 69.28C134.2 70.4 134.2 71.5467 134.2 72.72C134.227 73.8933 134.24 75.0533 134.24 76.2C134.267 77.3467 134.28 78.4667 134.28 79.56C134.307 80.6267 134.32 81.6267 134.32 82.56C135.12 82.7467 135.773 82.92 136.28 83.08C136.787 83.2133 137.28 83.3333 137.76 83.44C138.24 83.52 138.787 83.6 139.4 83.68C140.013 83.7333 140.827 83.7867 141.84 83.84C141.893 83.6267 141.92 83.1733 141.92 82.48C141.947 81.76 141.96 80.9333 141.96 80C141.96 78.96 141.947 78.0933 141.92 77.4C141.92 76.7067 141.893 76.0133 141.84 75.32C141.493 75.32 141.2 75.2933 140.96 75.24C140.747 75.16 140.48 75.08 140.16 75C139.867 74.92 139.467 74.84 138.96 74.76C138.48 74.68 137.827 74.6133 137 74.56C137.107 74.3733 137.24 74.1333 137.4 73.84C137.56 73.52 137.72 73.1867 137.88 72.84C138.04 72.4933 138.173 72.1733 138.28 71.88C138.413 71.56 138.507 71.2933 138.56 71.08C139.573 71.2933 140.56 71.4533 141.52 71.56C142.507 71.6667 143.44 71.72 144.32 71.72C145.227 71.72 146.053 71.6667 146.8 71.56C147.547 71.4267 148.173 71.2133 148.68 70.92C148.6 71.1333 148.453 71.44 148.24 71.84C148.053 72.2133 147.853 72.6267 147.64 73.08C147.427 73.5067 147.24 73.9333 147.08 74.36C146.92 74.7867 146.84 75.16 146.84 75.48C146.92 76.6 146.987 77.68 147.04 78.72C147.093 79.76 147.147 80.7067 147.2 81.56C147.28 82.3867 147.347 83.08 147.4 83.64C147.453 84.2 147.52 84.56 147.6 84.72C146.347 85.0133 145.16 85.4667 144.04 86.08C142.92 86.72 141.613 87.6667 140.12 88.92C138.947 88.2 137.693 87.5867 136.36 87.08C135.027 86.5733 133.707 86.1333 132.4 85.76C131.12 85.36 129.88 85.0133 128.68 84.72C127.507 84.4267 126.48 84.1333 125.6 83.84C126.027 83.7333 126.387 83.48 126.68 83.08C127 82.6533 127.253 82.1333 127.44 81.52C127.653 80.9067 127.813 80.2267 127.92 79.48C128.027 78.7067 128.08 77.9333 128.08 77.16C128.08 75.96 127.947 74.8133 127.68 73.72C127.44 72.6267 127.093 71.8 126.64 71.24C127.067 70.8133 127.413 70.2533 127.68 69.56C127.973 68.84 128.2 68.08 128.36 67.28C128.52 66.4533 128.627 65.6133 128.68 64.76C128.733 63.9067 128.76 63.1067 128.76 62.36C128.76 61.7467 128.747 61.2133 128.72 60.76C128.693 60.3067 128.667 59.96 128.64 59.72C128.027 59.5067 127.387 59.0667 126.72 58.4C126.08 57.7333 125.6 57.0133 125.28 56.24C126.987 56.4267 128.6 56.56 130.12 56.64C131.667 56.6933 133.12 56.72 134.48 56.72C137.44 56.72 139.867 56.6267 141.76 56.44C143.653 56.2533 145.12 56.16 146.16 56.16C146.373 56.16 146.56 56.1733 146.72 56.2C146.88 56.2 147.027 56.2133 147.16 56.24C147.053 56.48 146.933 56.8933 146.8 57.48C146.693 58.04 146.573 58.68 146.44 59.4C146.307 60.0933 146.187 60.84 146.08 61.64C145.973 62.4133 145.867 63.1467 145.76 63.84C145.68 64.5067 145.613 65.0933 145.56 65.6C145.507 66.1067 145.48 66.4267 145.48 66.56ZM158.055 73.16C158.668 72.1733 159.241 71.1333 159.775 70.04C160.308 68.9467 160.801 67.7867 161.255 66.56C161.761 66.88 162.481 67.2133 163.415 67.56C164.348 67.88 165.375 68.1733 166.495 68.44C166.361 69.56 166.121 70.5867 165.775 71.52C165.428 72.4267 164.988 73.1867 164.455 73.8L161.775 72.4H161.295L158.055 76.96V82.48C158.055 83.4133 158.215 84.0933 158.535 84.52C158.881 84.92 159.481 85.1867 160.335 85.32V86H151.775V85.4C152.495 85.1333 152.855 84.28 152.855 82.84V68.88L151.375 68.24V67.8C152.308 67.6667 153.321 67.4933 154.415 67.28C155.508 67.04 156.481 66.8133 157.335 66.6L158.055 67.8V73.16ZM175.216 66.64C177.056 67.2533 178.59 67.6667 179.816 67.88C181.043 68.0933 182.176 68.2 183.216 68.2C183.803 68.2 184.243 68.2 184.536 68.2C184.856 68.1733 185.163 68.1333 185.456 68.08C185.136 69.8133 184.976 71.8533 184.976 74.2C184.976 77.08 185.216 79.88 185.696 82.6C185.03 82.68 184.323 82.8533 183.576 83.12C182.83 83.3867 182.083 83.72 181.336 84.12C180.59 84.52 179.87 84.9867 179.176 85.52C178.483 86.0267 177.856 86.56 177.296 87.12C177.003 86.88 176.496 86.6267 175.776 86.36C175.056 86.12 174.27 85.8933 173.416 85.68C172.563 85.4667 171.71 85.2933 170.856 85.16C170.003 85.0267 169.296 84.96 168.736 84.96C168.576 84.96 168.416 84.9733 168.256 85C168.123 85 167.99 85.0133 167.856 85.04C168.23 84.72 168.496 84.0933 168.656 83.16C168.843 82.2 168.936 80.96 168.936 79.44C168.936 78.6667 168.91 77.8267 168.856 76.92C168.803 75.9867 168.723 75.1067 168.616 74.28C168.536 73.4533 168.443 72.7467 168.336 72.16C168.23 71.5733 168.123 71.2133 168.016 71.08C169.056 70.8933 170.216 70.4133 171.496 69.64C172.776 68.84 174.016 67.84 175.216 66.64ZM180.016 71.72C178.79 71.6133 177.59 71.44 176.416 71.2C175.243 70.9333 174.35 70.64 173.736 70.32C173.87 71.44 173.963 72.4933 174.016 73.48C174.07 74.44 174.096 75.4133 174.096 76.4C174.096 77.1733 174.07 78.0533 174.016 79.04C173.99 80 173.95 80.9467 173.896 81.88C174.803 81.9867 175.803 82.1333 176.896 82.32C177.99 82.5067 179.003 82.7467 179.936 83.04L180.016 71.72ZM206.686 87.12C206.179 86.8 205.699 86.4933 205.246 86.2C204.793 85.9333 204.339 85.68 203.886 85.44C203.433 85.1733 202.953 84.9067 202.446 84.64C201.966 84.3467 201.446 84.04 200.886 83.72H200.606L197.206 87.12H196.806C196.033 86.5867 195.033 86.0667 193.806 85.56C192.579 85.0533 191.366 84.64 190.166 84.32C190.219 84.0533 190.273 83.6267 190.326 83.04C190.379 82.4267 190.406 81.52 190.406 80.32C190.406 77.8133 190.259 75.6933 189.966 73.96C189.673 72.2267 189.206 70.8 188.566 69.68L187.406 69.44V68.76C187.966 68.68 188.579 68.56 189.246 68.4C189.913 68.24 190.539 68.0667 191.126 67.88C191.739 67.6933 192.286 67.4933 192.766 67.28C193.246 67.0667 193.606 66.8533 193.846 66.64C194.246 67.2 194.593 68.5067 194.886 70.56C195.179 72.5867 195.393 75.32 195.526 78.76L195.646 82.24L197.686 83.32H197.926L199.606 81.6C199.686 81.1733 199.739 80.7467 199.766 80.32C199.793 79.8667 199.806 79.1733 199.806 78.24C199.806 76 199.739 74.2133 199.606 72.88C199.499 71.5467 199.313 70.48 199.046 69.68L197.886 69.44V68.76C198.446 68.68 199.059 68.56 199.726 68.4C200.393 68.24 201.019 68.0667 201.606 67.88C202.219 67.6933 202.766 67.4933 203.246 67.28C203.726 67.0667 204.086 66.8533 204.326 66.64C204.539 67.4667 204.686 68.48 204.766 69.68C204.846 70.8533 204.886 72.32 204.886 74.08C204.886 74.8267 204.873 75.6133 204.846 76.44C204.846 77.24 204.833 78 204.806 78.72C204.779 79.44 204.753 80.08 204.726 80.64C204.699 81.2 204.673 81.6 204.646 81.84L206.966 83.64H207.206C207.473 83.1333 207.739 82.44 208.006 81.56C208.273 80.68 208.499 79.72 208.686 78.68C208.899 77.6133 209.073 76.52 209.206 75.4C209.339 74.28 209.406 73.2267 209.406 72.24C209.406 71.12 209.299 70.28 209.086 69.72C208.899 69.16 208.553 68.7467 208.046 68.48L208.086 67.84C210.326 67.68 212.433 67.28 214.406 66.64C214.353 66.72 214.326 66.8667 214.326 67.08C214.326 68.1467 214.379 69.0533 214.486 69.8C214.593 70.52 214.833 71.0667 215.206 71.44L211.686 83.32L207.086 87.12H206.686ZM224.948 70.64V79.48C224.948 80.8667 225.281 81.9067 225.948 82.6C226.641 83.2933 227.494 83.6667 228.508 83.72V84.28C228.054 84.44 227.574 84.64 227.068 84.88C226.561 85.12 226.068 85.3733 225.588 85.64C225.108 85.88 224.654 86.1333 224.228 86.4C223.801 86.6667 223.468 86.9067 223.228 87.12C222.614 86.7467 221.988 86.3867 221.348 86.04C220.708 85.6933 220.174 85.4133 219.748 85.2V70.32H216.428V69.88C217.601 69.4267 218.708 68.7333 219.748 67.8V66.52C219.748 66.3067 219.721 65.9733 219.668 65.52C219.641 65.04 219.601 64.56 219.548 64.08C219.494 63.5733 219.428 63.12 219.348 62.72C219.268 62.2933 219.174 62.0133 219.068 61.88C220.268 61.8 221.374 61.56 222.388 61.16C223.401 60.76 224.481 60.2533 225.628 59.64C225.521 59.9067 225.428 60.32 225.348 60.88C225.268 61.44 225.188 62.04 225.108 62.68C225.054 63.2933 225.014 63.8933 224.988 64.48C224.961 65.04 224.948 65.44 224.948 65.68V67.8H230.588V67.96C230.161 68.4133 229.774 68.92 229.428 69.48C229.108 70.04 228.881 70.5867 228.748 71.12L224.948 70.64ZM242.494 89.72C242.654 89.1867 242.8 88.52 242.934 87.72C243.067 86.9467 243.174 86.1733 243.254 85.4C243.334 84.6 243.4 83.8667 243.454 83.2C243.507 82.5333 243.534 82.0533 243.534 81.76C243.534 80.24 243.52 78.72 243.494 77.2C243.494 75.68 243.494 74.16 243.494 72.64L242.974 72.08L238.054 74.28V82.48C238.054 84.16 238.414 85.1333 239.134 85.4V86H231.774V85.4C232.094 85.2667 232.347 85 232.534 84.6C232.747 84.1733 232.854 83.5867 232.854 82.84V61.8C232.854 61.1333 232.84 60.5333 232.814 60C232.787 59.4667 232.72 58.9733 232.614 58.52C232.534 58.0667 232.414 57.6267 232.254 57.2C232.094 56.7733 231.894 56.3333 231.654 55.88C232.187 56.0667 232.814 56.16 233.534 56.16C234.414 56.16 235.334 56.0133 236.294 55.72C237.28 55.4267 238.334 55.0133 239.454 54.48C238.92 55.12 238.547 55.9733 238.334 57.04C238.147 58.1067 238.054 59.3333 238.054 60.72V71.52C239.2 70.7733 240.227 70.0267 241.134 69.28C242.04 68.5333 242.974 67.6533 243.934 66.64C244.387 67.0667 244.8 67.4533 245.174 67.8C245.547 68.12 245.92 68.4133 246.294 68.68C246.694 68.9467 247.107 69.2133 247.534 69.48C247.96 69.72 248.454 69.9733 249.014 70.24C248.907 70.6133 248.814 71.0133 248.734 71.44C248.68 71.84 248.627 72.36 248.574 73C248.547 73.64 248.52 74.4267 248.494 75.36C248.467 76.2933 248.454 77.4533 248.454 78.84C248.454 80.0133 248.454 80.9867 248.454 81.76C248.48 82.5067 248.507 83.12 248.534 83.6C248.56 84.08 248.6 84.48 248.654 84.8C248.707 85.0933 248.76 85.3733 248.814 85.64C248.28 85.8267 247.734 86.08 247.174 86.4C246.64 86.72 246.094 87.08 245.534 87.48C245 87.88 244.494 88.2933 244.014 88.72C243.534 89.1467 243.107 89.56 242.734 89.96L242.494 89.72ZM277.215 83.52L269.655 70.24V76.36C269.655 78.0133 269.708 79.4 269.815 80.52C269.921 81.64 270.095 82.6133 270.335 83.44C270.575 84.2667 270.881 85 271.255 85.64C271.628 86.2533 272.081 86.88 272.615 87.52C272.028 87.36 271.508 87.2 271.055 87.04C270.628 86.88 270.201 86.6933 269.775 86.48C269.375 86.2667 268.948 86 268.495 85.68C268.068 85.36 267.561 84.96 266.975 84.48C266.601 85.12 266.188 85.7067 265.735 86.24C265.308 86.8 264.788 87.32 264.175 87.8C263.588 88.28 262.908 88.72 262.135 89.12C261.361 89.52 260.455 89.88 259.415 90.2C260.215 89.4267 260.961 88.5467 261.655 87.56C262.348 86.6 262.948 85.5733 263.455 84.48C263.988 83.36 264.401 82.2133 264.695 81.04C265.015 79.8667 265.175 78.68 265.175 77.48C265.175 76.36 265.028 75.28 264.735 74.24C264.468 73.2 264.015 72.2 263.375 71.24C264.681 68.7333 265.335 66.4933 265.335 64.52C265.335 62.84 264.895 61.3333 264.015 60C263.161 58.64 261.935 57.3867 260.335 56.24C260.601 56.16 260.908 56.12 261.255 56.12C261.788 56.12 262.375 56.1867 263.015 56.32C263.681 56.4267 264.401 56.5467 265.175 56.68C265.975 56.8133 266.841 56.9467 267.775 57.08C268.708 57.1867 269.735 57.24 270.855 57.24C271.121 57.24 271.375 57.24 271.615 57.24C271.881 57.24 272.148 57.2267 272.415 57.2C272.175 57.3867 271.948 57.6267 271.735 57.92C271.548 58.2133 271.375 58.5333 271.215 58.88C271.055 59.2267 270.921 59.5867 270.815 59.96C270.735 60.3333 270.695 60.68 270.695 61L278.655 74.72L285.295 61.24C284.975 60.3067 284.601 59.52 284.175 58.88C283.775 58.24 283.241 57.64 282.575 57.08C282.761 57.1333 282.935 57.16 283.095 57.16C283.255 57.16 283.428 57.16 283.615 57.16C284.521 57.16 285.468 57.1333 286.455 57.08C287.441 57 288.428 56.9067 289.415 56.8C290.401 56.6667 291.361 56.5333 292.295 56.4C293.228 56.24 294.121 56.0933 294.975 55.96C294.175 56.52 293.521 57.1333 293.015 57.8C292.535 58.44 292.161 59.12 291.895 59.84C291.655 60.56 291.481 61.32 291.375 62.12C291.295 62.8933 291.255 63.6933 291.255 64.52C291.255 65.5333 291.428 66.5867 291.775 67.68C292.121 68.7733 292.628 69.96 293.295 71.24C292.815 72.0933 292.375 73.16 291.975 74.44C291.601 75.72 291.415 77 291.415 78.28C291.415 79.6667 291.655 80.96 292.135 82.16C292.641 83.36 293.361 84.2533 294.295 84.84C293.735 85.1333 293.175 85.48 292.615 85.88C292.055 86.2533 291.535 86.6533 291.055 87.08C290.575 87.5333 290.148 87.9867 289.775 88.44C289.401 88.8933 289.121 89.32 288.935 89.72C288.801 89.32 288.561 88.88 288.215 88.4C287.895 87.92 287.495 87.4533 287.015 87C286.535 86.5467 286.015 86.1333 285.455 85.76C284.895 85.36 284.335 85.0533 283.775 84.84C284.201 84.4667 284.535 83.9733 284.775 83.36C285.041 82.7467 285.228 82.0667 285.335 81.32C285.468 80.5733 285.548 79.7733 285.575 78.92C285.628 78.0667 285.655 77.2133 285.655 76.36V68.8L277.895 83.64L277.215 83.52ZM303.348 82.24C303.935 82.2933 304.535 82.3333 305.148 82.36C305.788 82.3867 306.575 82.5067 307.508 82.72V77.08C306.735 77.3733 305.988 77.6267 305.268 77.84C304.548 78.0267 303.935 78.1467 303.428 78.2L303.348 82.24ZM313.668 69.48C313.242 70.0933 312.962 70.9067 312.828 71.92C312.722 72.9333 312.668 74.4133 312.668 76.36C312.668 77.64 312.695 78.6667 312.748 79.44C312.828 80.1867 312.935 80.7867 313.068 81.24C313.202 81.6667 313.388 81.9733 313.628 82.16C313.868 82.32 314.162 82.44 314.508 82.52V82.96C314.135 83.0933 313.735 83.3333 313.308 83.68C312.908 84 312.508 84.36 312.108 84.76C311.708 85.16 311.348 85.5733 311.028 86C310.708 86.4267 310.468 86.8 310.308 87.12C309.748 86.7467 309.242 86.2533 308.788 85.64C308.335 85.0267 307.975 84.4133 307.708 83.8L304.948 87.12C303.935 86.5067 302.815 86.04 301.588 85.72C300.388 85.4 299.015 85.2267 297.468 85.2C297.735 84.5067 297.895 83.64 297.948 82.6C298.002 81.5333 298.028 80.4667 298.028 79.4C298.028 78.76 297.988 78.16 297.908 77.6C297.828 77.0133 297.695 76.4933 297.508 76.04C298.095 76.12 298.735 76.16 299.428 76.16C300.175 76.16 300.935 76.1333 301.708 76.08C302.508 76 303.268 75.8933 303.988 75.76C304.708 75.6267 305.362 75.48 305.948 75.32C306.562 75.1333 307.068 74.9333 307.468 74.72V70.76C306.562 71.16 305.615 71.4933 304.628 71.76C303.642 72.0267 302.828 72.16 302.188 72.16C301.735 72.16 301.308 72.12 300.908 72.04C300.535 71.9333 300.188 71.7467 299.868 71.48C299.548 71.1867 299.255 70.7867 298.988 70.28C298.748 69.7733 298.535 69.12 298.348 68.32C298.508 68.32 298.615 68.3333 298.668 68.36C298.748 68.36 298.948 68.36 299.268 68.36C301.188 68.36 302.842 68.1867 304.228 67.84C305.615 67.4933 306.695 67.0933 307.468 66.64C308.348 67.6 309.255 68.32 310.188 68.8C311.148 69.2533 312.308 69.48 313.668 69.48ZM323.25 73.16C323.863 72.1733 324.437 71.1333 324.97 70.04C325.503 68.9467 325.997 67.7867 326.45 66.56C326.957 66.88 327.677 67.2133 328.61 67.56C329.543 67.88 330.57 68.1733 331.69 68.44C331.557 69.56 331.317 70.5867 330.97 71.52C330.623 72.4267 330.183 73.1867 329.65 73.8L326.97 72.4H326.49L323.25 76.96V82.48C323.25 83.4133 323.41 84.0933 323.73 84.52C324.077 84.92 324.677 85.1867 325.53 85.32V86H316.97V85.4C317.69 85.1333 318.05 84.28 318.05 82.84V68.88L316.57 68.24V67.8C317.503 67.6667 318.517 67.4933 319.61 67.28C320.703 67.04 321.677 66.8133 322.53 66.6L323.25 67.8V73.16ZM343.932 89.12C344.065 88.7733 344.185 88.3467 344.292 87.84C344.425 87.3333 344.532 86.8 344.612 86.24C344.692 85.68 344.758 85.1067 344.812 84.52C344.865 83.9333 344.892 83.3867 344.892 82.88V79.56C344.092 79 343.278 78.5067 342.452 78.08C341.625 77.6267 340.745 77.2133 339.812 76.84V82.48C339.812 84.16 340.172 85.1333 340.892 85.4V86H333.532V85.4C334.252 85.1333 334.612 84.28 334.612 82.84V61.8C334.612 61.08 334.585 60.44 334.532 59.88C334.505 59.32 334.438 58.8133 334.332 58.36C334.252 57.9067 334.132 57.48 333.972 57.08C333.838 56.68 333.652 56.28 333.412 55.88C333.892 56.0667 334.518 56.16 335.292 56.16C336.118 56.16 337.012 56.0267 337.972 55.76C338.932 55.4933 340.012 55.0667 341.212 54.48C340.732 55.0667 340.372 55.8533 340.132 56.84C339.918 57.8267 339.812 59.12 339.812 60.72V69.04C340.372 68.6667 340.932 68.24 341.492 67.76C342.052 67.28 342.678 66.6933 343.372 66C344.172 66.5333 345.078 66.9867 346.092 67.36C347.132 67.7067 348.372 68.0267 349.812 68.32C349.572 69.0933 349.452 70.0267 349.452 71.12C349.452 71.4133 349.465 71.7867 349.492 72.24C349.518 72.6933 349.558 73.0267 349.612 73.24L343.692 75.48V75.64C345.132 75.9333 346.372 76.2933 347.412 76.72C348.478 77.1467 349.465 77.6267 350.372 78.16C350.265 78.72 350.185 79.28 350.132 79.84C350.105 80.4 350.092 81.0533 350.092 81.8C350.092 83.32 350.185 84.5067 350.372 85.36C349.838 85.6 349.278 85.88 348.692 86.2C348.105 86.52 347.532 86.8533 346.972 87.2C346.412 87.5467 345.892 87.8933 345.412 88.24C344.958 88.5867 344.572 88.92 344.252 89.24L343.932 89.12ZM339.812 75.16L345.932 72.68L345.852 71.36L339.812 70.16V75.16ZM361.331 87.28C360.824 86.9067 360.197 86.56 359.451 86.24C358.704 85.92 357.931 85.6533 357.131 85.44C356.357 85.2 355.597 85.0133 354.851 84.88C354.131 84.7467 353.531 84.68 353.051 84.68C353.264 84.3333 353.451 83.8533 353.611 83.24C353.771 82.6 353.891 81.92 353.971 81.2C354.077 80.4533 354.144 79.6933 354.171 78.92C354.224 78.1467 354.251 77.44 354.251 76.8C354.251 75.1733 354.144 73.8267 353.931 72.76C353.744 71.6667 353.557 70.8133 353.371 70.2C354.517 69.9867 355.557 69.5733 356.491 68.96C357.451 68.3467 358.397 67.5733 359.331 66.64C360.424 66.8533 361.771 67.04 363.371 67.2C364.971 67.3333 366.557 67.4267 368.131 67.48C368.051 67.96 368.011 68.56 368.011 69.28C368.011 69.84 368.037 70.4533 368.091 71.12C368.144 71.76 368.211 72.4 368.291 73.04C368.371 73.68 368.477 74.2933 368.611 74.88C368.744 75.4667 368.891 75.9733 369.051 76.4C367.424 76.5333 365.771 76.72 364.091 76.96C362.411 77.1733 360.771 77.4133 359.171 77.68C359.144 78.4533 359.091 79.2133 359.011 79.96C358.931 80.7067 358.864 81.36 358.811 81.92C359.131 82.0533 359.531 82.1733 360.011 82.28C360.517 82.3867 361.051 82.4933 361.611 82.6C362.171 82.68 362.717 82.76 363.251 82.84C363.784 82.8933 364.237 82.9333 364.611 82.96C364.744 82.1333 365.064 81.4267 365.571 80.84C366.104 80.2533 366.997 79.7733 368.251 79.4C368.224 79.72 368.211 80.04 368.211 80.36C368.211 80.6533 368.211 80.9467 368.211 81.24C368.211 82.1467 368.237 82.8667 368.291 83.4C368.371 83.9067 368.504 84.4133 368.691 84.92C368.184 84.9733 367.584 85.08 366.891 85.24C366.197 85.3733 365.504 85.56 364.811 85.8C364.117 86.0133 363.451 86.24 362.811 86.48C362.197 86.7467 361.704 87.0133 361.331 87.28ZM358.771 70.24C358.904 71.36 358.997 72.3467 359.051 73.2C359.131 74.0533 359.184 74.84 359.211 75.56L363.891 74.4C363.757 73.8667 363.637 73.3067 363.531 72.72C363.451 72.1333 363.411 71.5333 363.411 70.92C362.797 70.92 362.051 70.8667 361.171 70.76C360.317 70.6267 359.517 70.4533 358.771 70.24ZM379.088 70.64V79.48C379.088 80.8667 379.421 81.9067 380.088 82.6C380.781 83.2933 381.635 83.6667 382.648 83.72V84.28C382.195 84.44 381.715 84.64 381.208 84.88C380.701 85.12 380.208 85.3733 379.728 85.64C379.248 85.88 378.795 86.1333 378.368 86.4C377.941 86.6667 377.608 86.9067 377.368 87.12C376.755 86.7467 376.128 86.3867 375.488 86.04C374.848 85.6933 374.315 85.4133 373.888 85.2V70.32H370.568V69.88C371.741 69.4267 372.848 68.7333 373.888 67.8V66.52C373.888 66.3067 373.861 65.9733 373.808 65.52C373.781 65.04 373.741 64.56 373.688 64.08C373.635 63.5733 373.568 63.12 373.488 62.72C373.408 62.2933 373.315 62.0133 373.208 61.88C374.408 61.8 375.515 61.56 376.528 61.16C377.541 60.76 378.621 60.2533 379.768 59.64C379.661 59.9067 379.568 60.32 379.488 60.88C379.408 61.44 379.328 62.04 379.248 62.68C379.195 63.2933 379.155 63.8933 379.128 64.48C379.101 65.04 379.088 65.44 379.088 65.68V67.8H384.728V67.96C384.301 68.4133 383.915 68.92 383.568 69.48C383.248 70.04 383.021 70.5867 382.888 71.12L379.088 70.64ZM392.154 67.8V82.48C392.154 84.16 392.514 85.1333 393.234 85.4V86C392.381 86.1333 391.581 86.2933 390.834 86.48C390.088 86.6667 389.314 86.88 388.514 87.12H388.314C387.408 85.8933 386.954 84.4533 386.954 82.8V68.88L385.474 68.24V67.8C386.408 67.6667 387.421 67.4933 388.514 67.28C389.608 67.04 390.581 66.8133 391.434 66.6L392.154 67.8ZM385.834 60C386.288 59.2267 386.834 58.4667 387.474 57.72C388.141 56.9467 388.874 56.3467 389.674 55.92C389.834 56.1333 390.074 56.3867 390.394 56.68C390.741 56.9733 391.101 57.2667 391.474 57.56C391.874 57.8533 392.248 58.1333 392.594 58.4C392.968 58.64 393.248 58.8133 393.434 58.92C392.528 59.56 391.754 60.1867 391.114 60.8C390.501 61.3867 389.968 62.1333 389.514 63.04C389.354 62.8533 389.101 62.6267 388.754 62.36C388.434 62.0667 388.088 61.7733 387.714 61.48C387.341 61.1867 386.981 60.9067 386.634 60.64C386.288 60.3733 386.021 60.16 385.834 60ZM402.78 71.12C403.927 70.3733 404.954 69.6267 405.86 68.88C406.767 68.1333 407.7 67.2533 408.66 66.24C409.114 66.6667 409.527 67.0533 409.9 67.4C410.274 67.72 410.647 68.0133 411.02 68.28C411.42 68.5467 411.834 68.8133 412.26 69.08C412.687 69.32 413.18 69.5733 413.74 69.84C413.634 70.2133 413.54 70.6133 413.46 71.04C413.407 71.44 413.354 71.96 413.3 72.6C413.274 73.24 413.247 74.0267 413.22 74.96C413.194 75.8933 413.18 77.0533 413.18 78.44C413.18 79.6133 413.18 80.5867 413.18 81.36C413.207 82.1067 413.234 82.72 413.26 83.2C413.287 83.68 413.327 84.08 413.38 84.4C413.434 84.6933 413.487 84.9733 413.54 85.24C413.007 85.4267 412.46 85.68 411.9 86C411.367 86.32 410.82 86.68 410.26 87.08C409.727 87.48 409.22 87.8933 408.74 88.32C408.26 88.7467 407.834 89.16 407.46 89.56L407.22 89.32C407.38 88.7867 407.527 88.12 407.66 87.32C407.794 86.5467 407.9 85.7733 407.98 85C408.06 84.2 408.127 83.4667 408.18 82.8C408.234 82.1333 408.26 81.6533 408.26 81.36C408.26 79.84 408.247 78.32 408.22 76.8C408.22 75.28 408.22 73.76 408.22 72.24L407.7 71.68L402.78 73.88V82.48C402.78 84.16 403.14 85.1333 403.86 85.4V86H396.5V85.4C396.82 85.2667 397.074 85 397.26 84.6C397.474 84.1733 397.58 83.5867 397.58 82.84V68.88L396.1 68.24V67.8C397.034 67.6667 398.047 67.4933 399.14 67.28C400.234 67.04 401.207 66.8133 402.06 66.6L402.78 67.8V71.12ZM434.439 85.04C434.439 88.4267 434.559 90.68 434.799 91.8C434.052 91.8 433.239 91.9067 432.359 92.12C431.479 92.36 430.585 92.68 429.679 93.08C428.799 93.48 427.932 93.9467 427.079 94.48C426.225 95.04 425.465 95.64 424.799 96.28C423.279 95.16 421.865 94.3467 420.559 93.84C419.252 93.3333 417.879 93.08 416.439 93.08C416.652 91.96 416.985 90.9333 417.439 90C417.919 89.0933 418.465 88.3467 419.079 87.76C419.372 87.7867 419.825 87.92 420.439 88.16C421.079 88.4267 421.772 88.76 422.519 89.16C423.265 89.56 423.999 89.9867 424.719 90.44C425.465 90.8933 426.105 91.3333 426.639 91.76L429.639 90.8C429.585 90.4533 429.532 90.08 429.479 89.68C429.452 89.28 429.425 88.7867 429.399 88.2C429.372 87.6133 429.345 86.8933 429.319 86.04C429.292 85.2133 429.265 84.2 429.239 83C428.732 83.3733 428.159 83.7333 427.519 84.08C426.905 84.4267 426.265 84.7467 425.599 85.04C424.932 85.3333 424.252 85.6 423.559 85.84C422.892 86.0533 422.252 86.2267 421.639 86.36C420.332 85.0267 418.879 84.12 417.279 83.64C417.385 83.2667 417.479 82.8933 417.559 82.52C417.639 82.12 417.692 81.6933 417.719 81.24C417.772 80.76 417.812 80.2267 417.839 79.64C417.865 79.0267 417.879 78.3067 417.879 77.48C417.879 75.32 417.825 73.6533 417.719 72.48C417.612 71.3067 417.439 70.4667 417.199 69.96C417.812 69.8533 418.479 69.6933 419.199 69.48C419.919 69.2667 420.639 69.0133 421.359 68.72C422.079 68.4267 422.785 68.0933 423.479 67.72C424.172 67.3467 424.799 66.96 425.359 66.56C426.959 67.04 428.239 67.3867 429.199 67.6C430.185 67.7867 431.025 67.88 431.719 67.88C432.332 67.88 432.999 67.8267 433.719 67.72C434.465 67.5867 435.105 67.4267 435.639 67.24C435.425 67.6667 435.239 68.1733 435.079 68.76C434.919 69.3467 434.785 70.0667 434.679 70.92C434.599 71.7733 434.532 72.7867 434.479 73.96C434.452 75.1333 434.439 76.52 434.439 78.12V85.04ZM425.479 70.52C425.185 70.8133 424.812 71.1333 424.359 71.48C423.905 71.8267 423.492 72.1067 423.119 72.32C423.199 73.0933 423.239 74.5467 423.239 76.68C423.239 77.8 423.225 78.7467 423.199 79.52C423.172 80.2667 423.119 80.9867 423.039 81.68C423.519 81.6533 424.052 81.5867 424.639 81.48C425.225 81.3733 425.799 81.24 426.359 81.08C426.945 80.92 427.492 80.7467 427.999 80.56C428.505 80.3467 428.919 80.1333 429.239 79.92V78.32C429.239 76.56 429.265 75.12 429.319 74C429.372 72.88 429.465 71.9867 429.599 71.32C429.332 71.32 429.012 71.3067 428.639 71.28C428.292 71.2267 427.932 71.16 427.559 71.08C427.185 71 426.812 70.92 426.439 70.84C426.065 70.7333 425.745 70.6267 425.479 70.52Z" fill="#1E1D1D"/>
</g>
<path d="M74.6236 93.1256C85.0314 73.3748 106.914 88.2245 120.044 62.4925" stroke="#B20000" stroke-width="2.5" stroke-dasharray="5 5"/>
<defs>
<filter id="filter0_d_333_163" x="14.0742" y="52.94" width="67.9082" height="66.2281" filterUnits="userSpaceOnUse" color-interpolation-filters="sRGB">
<feFlood flood-opacity="0" result="BackgroundImageFix"/>
<feColorMatrix in="SourceAlpha" type="matrix" values="0 0 0 0 0 0 0 0 0 0 0 0 0 0 0 0 0 0 127 0" result="hardAlpha"/>
<feOffset dy="5"/>
<feGaussianBlur stdDeviation="2.5"/>
<feComposite in2="hardAlpha" operator="out"/>
<feColorMatrix type="matrix" values="0 0 0 0 0 0 0 0 0 0 0 0 0 0 0 0 0 0 0.5 0"/>
<feBlend mode="normal" in2="BackgroundImageFix" result="effect1_dropShadow_333_163"/>
<feBlend mode="normal" in="SourceGraphic" in2="effect1_dropShadow_333_163" result="shape"/>
</filter>
<filter id="filter1_d_333_163" x="116.32" y="19.48" width="320.318" height="85.8" filterUnits="userSpaceOnUse" color-interpolation-filters="sRGB">
<feFlood flood-opacity="0" result="BackgroundImageFix"/>
<feColorMatrix in="SourceAlpha" type="matrix" values="0 0 0 0 0 0 0 0 0 0 0 0 0 0 0 0 0 0 127 0" result="hardAlpha"/>
<feOffset dx="-3" dy="5"/>
<feGaussianBlur stdDeviation="2"/>
<feComposite in2="hardAlpha" operator="out"/>
<feColorMatrix type="matrix" values="0 0 0 0 0 0 0 0 0 0 0 0 0 0 0 0 0 0 0.2 0"/>
<feBlend mode="normal" in2="BackgroundImageFix" result="effect1_dropShadow_333_163"/>
<feBlend mode="normal" in="SourceGraphic" in2="effect1_dropShadow_333_163" result="shape"/>
</filter>
</defs>
</svg>
