<svg width="30" height="30" viewBox="0 0 30 30" fill="none" xmlns="http://www.w3.org/2000/svg">
<path fill-rule="evenodd" clip-rule="evenodd" d="M25.4344 4.28824C22.6998 1.5461 19.0629 0.0352996 15.1883 0.0336914C7.20445 0.0336914 0.70674 6.54131 0.703529 14.5397C0.702458 17.0965 1.36936 19.5924 2.63696 21.7924L0.582031 29.3098L8.26064 27.2924C10.3764 28.4484 12.7584 29.0575 15.1824 29.0582H15.1885C23.1715 29.0582 29.6699 22.5501 29.6729 14.5513C29.6745 10.6749 28.1693 7.03019 25.4344 4.28824ZM15.1883 26.6082H15.1833C13.0231 26.6074 10.9045 26.0259 9.05582 24.9275L8.61639 24.6661L4.05979 25.8633L5.27601 21.4138L4.98966 20.9576C3.7845 19.0378 3.14811 16.8189 3.14918 14.5406C3.15168 7.89254 8.55252 2.48385 15.1931 2.48385C18.4088 2.48492 21.4316 3.74074 23.7046 6.0199C25.9775 8.29905 27.2285 11.3285 27.2275 14.5504C27.2246 21.199 21.8241 26.6082 15.1883 26.6082ZM21.792 17.5776C21.4302 17.396 19.6507 16.5194 19.3189 16.3982C18.9874 16.2773 18.7458 16.217 18.5048 16.5798C18.2634 16.9425 17.5699 17.7591 17.3587 18.0009C17.1474 18.2428 16.9366 18.2732 16.5746 18.0917C16.2126 17.9103 15.0465 17.5274 13.664 16.2924C12.5882 15.3313 11.8619 14.1443 11.6506 13.7815C11.4397 13.4184 11.6488 13.2412 11.8094 13.0418C12.2012 12.5545 12.5935 12.0436 12.7141 11.8019C12.8349 11.5599 12.7744 11.3482 12.6838 11.1668C12.5935 10.9854 11.8697 9.20124 11.5682 8.47524C11.2742 7.76871 10.9761 7.86413 10.7538 7.85305C10.5429 7.84251 10.3015 7.84036 10.0601 7.84036C9.81888 7.84036 9.42673 7.93096 9.09489 8.29405C8.76322 8.65696 7.82835 9.53378 7.82835 11.318C7.82835 13.1022 9.12522 14.8258 9.30613 15.0677C9.48704 15.3097 11.8583 18.971 15.4888 20.5409C16.3523 20.9147 17.0263 21.1376 17.5521 21.3046C18.4192 21.5805 19.2079 21.5416 19.8316 21.4483C20.5271 21.3441 21.9727 20.5713 22.2746 19.7247C22.5761 18.8779 22.5761 18.1522 22.4855 18.0009C22.3952 17.8497 22.1538 17.7591 21.792 17.5776Z" fill="black"/>
</svg>
